<?xml version="1.0" encoding="utf-8"?>
<!-- Generator: Adobe Illustrator 16.0.0, SVG Export Plug-In . SVG Version: 6.00 Build 0)  -->
<!DOCTYPE svg PUBLIC "-//W3C//DTD SVG 1.1//EN" "http://www.w3.org/Graphics/SVG/1.1/DTD/svg11.dtd">
<svg version="1.1" id="Layer_1" xmlns="http://www.w3.org/2000/svg" xmlns:xlink="http://www.w3.org/1999/xlink" x="0px" y="0px"
	 width="65.5px" height="85px" viewBox="0 0 65.5 85" enable-background="new 0 0 65.5 85" xml:space="preserve">
<g>
	<path fill="#FFFFFF" d="M16.275,23.979c0.013-0.19,0.165-0.297,0.307-0.337c0.179-0.095,0.47-0.353,0.788-0.668v-1.785h-0.007
		v-1.652h0.007v-1.653h-0.007v-1.653h0.007v-1.653h-0.007v-1.653h0.007V11.27h-0.007V9.618h0.007V7.965h-0.007V6.312h0.007V4.66
		h-0.007V3.006h0.007V1.603h1.18V1.354h1.188v0.249h1.187V1.354h1.188v0.249h1.19V1.354h1.187v0.249h1.19V1.354h1.186v0.249h1.19
		V1.354h1.188v0.249h1.186V1.354h1.19v0.249h1.186V1.354h1.19v0.249h1.189V1.354h1.189v0.249h1.186V1.354h1.188v0.249h1.189V1.354
		h1.187v0.249h1.189V1.354h1.19v0.249h1.185V1.354h1.188v0.249h1.189V1.354h1.188v0.249h1.188V1.354h1.189v0.249h1.189V1.354h1.186
		v0.249h1.189V1.354h1.187v0.249h1.19V1.354h1.186v0.249h1.189V1.354h1.188v0.249h1.188V1.354h1.188v0.249h1.18v1.404h0.01V4.66
		h-0.01v1.652h0.01v1.653h-0.01v1.653h0.01v1.652h-0.01v1.653h0.01v1.653h-0.01v1.653h0.01v1.653h-0.01v1.653h0.01v1.652h-0.01
		v1.652h0.01v1.654h-0.01v1.653h0.01V27.8h-0.01v1.653h0.01v1.653h-0.01v1.651h0.01v1.652h-0.01v1.654h0.01v1.653h-0.01v1.652h0.01
		v1.654h-0.01v1.652h0.01v1.653h-0.01v1.036c0.303,0.811,0.493,1.402,0.61,1.837l0.656-0.347l0.151,1.139
		c0.076,0.568,0.137,1.133,0.185,1.696V0H15.769v24.448c0.175-0.105,0.352-0.21,0.528-0.314
		C16.277,24.082,16.271,24.031,16.275,23.979z"/>
	<path fill="#FFFFFF" d="M64.061,55.58l-0.259-2.699l-0.107-1.105l-0.08-0.835l-0.076-0.786c-0.067-0.136-0.228-0.485-0.288-0.866
		c-0.011-0.066-0.018-0.132-0.021-0.2c-0.009-0.185,0.011-0.369,0.086-0.533c0.059-0.13,0.171-0.288,0.38-0.396
		c0.069-0.036,0.148-0.064,0.239-0.087c-0.004-0.105-0.03-0.296-0.115-0.626c-0.03-0.118-0.069-0.253-0.114-0.408
		c-0.003-0.008-0.007-0.019-0.01-0.029c-0.083-0.275-0.195-0.612-0.343-1.025c-0.161-0.454-0.369-0.999-0.63-1.653
		c-0.032-0.078-0.063-0.157-0.096-0.238l-0.015-0.036l-0.005-0.037c-0.021-0.223-0.053-0.464-0.092-0.711
		c-0.032-0.208-0.069-0.419-0.113-0.63c-0.123-0.616-0.288-1.218-0.482-1.653c-0.146-0.326-0.308-0.56-0.481-0.63
		c-0.011-0.006-0.053-0.024-0.11-0.057c-0.134-0.076-0.353-0.238-0.467-0.511c-0.061-0.144-0.082-0.296-0.067-0.456
		c0.01-0.119,0.041-0.241,0.093-0.368c0.023-0.076,0.238-0.772-0.242-1.005l-0.025-0.012l-0.021-0.016
		c-0.02-0.015-0.128-0.104-0.199-0.252c-0.04-0.083-0.068-0.185-0.063-0.304c0.015-0.263,0.19-0.502,0.523-0.713
		c0.02-0.031,0.112-0.201-0.047-0.636c-0.069-0.195-0.191-0.444-0.393-0.756c-0.033-0.057-0.153-0.258-0.279-0.531
		c-0.051-0.112-0.103-0.235-0.15-0.366c-0.168-0.453-0.282-0.995-0.114-1.407c-0.018-0.087-0.041-0.169-0.066-0.244
		c-0.072-0.211-0.165-0.357-0.213-0.357c-0.024,0-0.096,0.032-0.203,0.148l-0.192,0.209l-0.149,0.163l-0.038-0.163H58.95v-0.002
		v-0.267l-0.015-0.063c-0.018-0.072-0.076-0.184-0.119-0.184c-0.021,0-0.2,0.018-0.57,0.514c-0.05,0.067-0.102,0.141-0.158,0.226
		l-0.012,0.015c-0.023,0.031-0.138,0.164-0.314,0.213c-0.04,0.013-0.084,0.022-0.131,0.022c-0.29,0-0.463-0.241-0.565-0.474h-0.166
		c-0.008,0.131-0.013,0.288-0.013,0.482c0.001,0.094,0.001,0.637-0.118,1.168c-0.046,0.203-0.108,0.403-0.193,0.577
		c-0.062,0.121-0.134,0.23-0.219,0.317c-0.254,0.257-0.601,0.303-0.972,0.124c-0.039-0.02-0.078-0.04-0.119-0.065l-0.007-0.004
		c-0.035,0.08-0.091,0.273-0.106,0.705c0,0.029-0.001,0.059-0.001,0.089c0.008,0.16,0.064,0.566,0.233,0.85
		c0.03,0.049,0.063,0.098,0.1,0.138l0.029,0.036c0.009,0.014,0.143,0.228,0.209,0.54c0.042,0.196,0.057,0.431-0.002,0.677
		c-0.055,0.234-0.169,0.445-0.336,0.634c-0.108,0.124-0.241,0.239-0.397,0.342c-0.034,0.023-0.068,0.047-0.105,0.069
		c-0.058,0.039-0.146,0.096-0.247,0.161c-0.126,0.079-0.277,0.171-0.437,0.259c-0.328,0.181-0.685,0.344-0.904,0.344
		c-0.099,0-0.182-0.026-0.25-0.078l-0.021-0.015l-0.014-0.016l-0.004-0.004c-0.022-0.025-0.262-0.302-0.518-0.72
		c-0.04-0.068-0.081-0.137-0.121-0.211c-0.227-0.407-0.437-0.914-0.488-1.441c-0.01-0.091-0.015-0.182-0.014-0.274
		c-0.014-0.023-0.026-0.047-0.041-0.07c-0.08-0.133-0.167-0.254-0.238-0.335c-0.015,0.088-0.028,0.229-0.023,0.452l0.01,0.226
		l0.046,1.019l0.011,0.222l-0.18,0.069c-0.019,0.008-0.121,0.044-0.264,0.044c-0.146,0-0.356-0.042-0.551-0.221
		c-0.013-0.013-0.025-0.023-0.036-0.036c-0.114-0.116-0.203-0.269-0.269-0.457c-0.063-0.18-0.107-0.393-0.129-0.639
		c-0.019-0.206-0.022-0.432-0.012-0.685c-0.007-0.075-0.039-0.469-0.144-0.969c-0.106-0.521-0.291-1.154-0.601-1.654l0,0l0,0
		c-0.187-0.3-0.416-0.55-0.703-0.698L48.718,33.7c-0.121-0.079-0.248-0.245-0.201-0.445c0.04-0.179,0.187-0.308,0.478-0.403
		c-0.034-0.03-0.064-0.062-0.096-0.095c-0.124-0.135-0.215-0.295-0.215-0.476v-0.245l0.69-0.062c0.016-0.112,0.038-0.256,0.07-0.417
		c0.027-0.14,0.063-0.293,0.106-0.452c0.178-0.636,0.502-1.352,1.083-1.589c0.049-0.02,0.098-0.037,0.15-0.049
		c0.007-0.005,0.016-0.011,0.022-0.015c0.233-0.161,0.547-0.422,0.618-0.594l0.07-0.172l0.188,0.007
		c0.002,0,0.028,0.002,0.072,0.002c0.018,0,0.042-0.001,0.068-0.002c0.226-0.004,0.739-0.036,1.186-0.209
		c0.335-0.131,0.635-0.342,0.748-0.686c0.011-0.028,0.02-0.059,0.027-0.09l0.095-0.42l0.319,0.261l0.015,0.011
		c0.093,0.076,0.235,0.171,0.367,0.24c0.096,0.048,0.187,0.084,0.25,0.085c0.005-0.014,0.012-0.041,0.015-0.085
		c0.005-0.108-0.011-0.318-0.13-0.714l-0.284-0.939l-0.057-0.188l0.172,0.188l0.621,0.683c0.062,0.066,0.137,0.14,0.218,0.212
		c0.256,0.227,0.582,0.449,0.795,0.449c0.058,0,0.098-0.017,0.135-0.056c0.069-0.074,0.227-0.336,0.184-1.198l-0.004-0.09
		l-0.011-0.205l0.092,0.005l0.223,0.011c0.184,0,0.295-0.047,0.313-0.072c0,0,0.018-0.125-0.26-0.45l-0.275-0.325l-0.187-0.219
		l0.187,0.028l0.519,0.079c0.002,0,0.223,0.032,0.498,0.032c0.059,0,0.114-0.001,0.169-0.004c0.413-0.021,0.701-0.121,0.798-0.282
		c0.042-0.069,0.05-0.157,0.039-0.25c-0.019-0.148-0.088-0.314-0.157-0.449l-0.24-0.458l0.513,0.071c0,0,0.058,0.007,0.141,0.007
		c0.025,0,0.06-0.001,0.097-0.003c0.148-0.011,0.371-0.05,0.493-0.189c0.087-0.098,0.12-0.25,0.101-0.449
		c-0.015-0.037-0.035-0.101-0.058-0.182c-0.105-0.384-0.241-1.181,0.287-1.631c0.003-0.006,0.007-0.014,0.011-0.021
		c0.074-0.144,0.173-0.445-0.153-0.653l-0.059-0.038l-0.032-0.063c-0.107-0.203-0.265-0.579-0.115-0.827
		c0.017-0.027,0.036-0.051,0.058-0.072c0.074-0.076,0.179-0.117,0.297-0.117c0.103,0,0.22,0.03,0.359,0.092
		c0.002,0,0.003,0,0.006,0.002l0.035,0.016l0.009,0.007l0.02,0.018c0.166,0.139,0.685,0.504,1.067,0.504
		c0.016,0,0.032,0,0.052-0.001c0.118-0.009,0.313-0.075,0.406-0.52c0.014-0.063,0.025-0.134,0.033-0.215l0.007-0.071l0.018-0.019
		c0.016-0.087-0.061-0.296-0.464-0.555c-0.159-0.102-0.369-0.211-0.646-0.324c-0.073-0.016-0.282-0.066-0.542-0.161
		c-0.202-0.074-0.434-0.176-0.656-0.309c-0.194-0.117-0.378-0.257-0.532-0.426c-0.064-0.07-0.122-0.143-0.173-0.223
		c-0.033-0.03-0.26-0.212-1.016-0.303c-0.264-0.033-0.592-0.054-1.002-0.054c-0.061,0-0.123,0-0.185,0.001
		c-0.364,0.006-0.762,0.027-1.19,0.064c-0.219,0.018-0.444,0.04-0.68,0.067c-0.089,0.098-0.25,0.231-0.507,0.327
		c-0.181,0.067-0.409,0.114-0.695,0.114c-0.155,0-0.321-0.016-0.494-0.043c-0.067-0.011-0.139-0.023-0.208-0.04l-0.042-0.013l0,0
		c-0.003,0-0.07-0.019-0.207-0.019c-0.174,0-0.38,0.03-0.614,0.088l-0.029,0.007l-0.028,0.001c0,0-0.021,0-0.057,0
		c-0.026,0-0.06,0-0.102,0c-0.271,0-0.69-0.011-1.088-0.064c-0.193-0.026-0.383-0.063-0.545-0.113
		c-0.087-0.003-0.326-0.011-0.645-0.012c-0.024,0-0.049,0-0.073,0c-0.401,0-0.774,0.011-1.115,0.032
		c-0.462,0.028-0.862,0.074-1.188,0.138c-0.214,0.042-0.396,0.091-0.541,0.147l-0.042,0.012c-0.016,0.003-0.258,0.053-0.606,0.089
		c-0.199,0.021-0.433,0.037-0.679,0.037c-0.18,0-0.35-0.009-0.509-0.026c-0.313-0.034-0.586-0.099-0.814-0.197
		c-0.029-0.009-0.158-0.043-0.371-0.061c-0.074-0.006-0.159-0.01-0.252-0.01c-0.233,0-0.55,0.025-0.938,0.114
		c-0.277,0.063-0.59,0.159-0.934,0.302l-0.068,0.028l-0.073-0.01c-0.012-0.002-0.052-0.008-0.113-0.018
		c-0.201-0.03-0.645-0.101-1.188-0.208c-0.366-0.072-0.777-0.161-1.189-0.265c-0.408-0.103-0.818-0.221-1.188-0.353
		c-0.395-0.142-0.742-0.298-0.988-0.47c-0.029-0.012-0.103-0.041-0.197-0.061c-0.056-0.011-0.119-0.019-0.188-0.019
		c-0.178,0-0.336,0.056-0.469,0.167l-0.03,0.026l-0.037,0.016c-0.019,0.007-0.12,0.047-0.245,0.047c-0.08,0-0.154-0.016-0.221-0.046
		c-0.074-0.036-0.139-0.087-0.189-0.156c-0.053-0.074-0.086-0.165-0.104-0.27c-0.038-0.228,0.006-0.535,0.137-0.94
		c0.012-0.055,0.065-0.317,0.115-0.713c0.015-0.111,0.028-0.234,0.041-0.364c0.034-0.37,0.06-0.811,0.053-1.289
		c-0.007-0.278-0.021-0.568-0.053-0.865c-0.027-0.259-0.066-0.523-0.121-0.787c-0.035-0.168-0.074-0.334-0.121-0.5l-0.003-0.01
		c-0.008-0.031-0.146-0.637,0.216-1.144c0.002-0.003,0.003-0.005,0.005-0.007l-0.073-0.032l0.098-0.07V9.501
		c-0.086-0.094-0.19-0.219-0.316-0.391c-0.055-0.078-0.414-0.621-0.433-1.146c-0.002-0.042-0.002-0.085,0.002-0.126
		c-0.166-0.095-0.313-0.186-0.443-0.274c-0.435-0.296-0.655-0.554-0.655-0.768V6.614c-0.001,0.002-0.004,0.005-0.006,0.007
		c-0.015,0.02-0.062,0.08-0.042,0.225l0.031,0.216L33.12,7.135c-0.101,0.038-0.252,0.134-0.268,0.22
		c-0.012,0.071,0.066,0.19,0.21,0.32l0.06,0.053l0.021,0.076c0.004,0.016,0.021,0.076,0.029,0.161
		c0.017,0.156,0.011,0.395-0.126,0.588l-0.028,0.039l-0.039,0.026c-0.058,0.039-0.114,0.081-0.17,0.121
		c-0.07,0.052-0.138,0.103-0.195,0.149l0.195,0.106l0.842,0.457l-0.842-0.119l-0.625-0.088c-0.055-0.008-0.104-0.028-0.147-0.06
		c-0.126-0.065-0.266-0.132-0.414-0.197c-0.407-0.177-0.859-0.331-1.19-0.349c-0.021-0.001-0.043-0.002-0.065-0.002H30.33
		l-0.036-0.01c-0.158-0.045-0.602-0.181-1.048-0.403c-0.152-0.076-0.305-0.161-0.447-0.257c-0.37-0.249-0.668-0.566-0.695-0.946
		l-0.001-0.02l0.002-0.019c0.001-0.006,0.02-0.302-0.029-0.667h-0.017v0V6.203c-0.056-0.327-0.17-0.689-0.401-0.942
		c-0.194-0.212-0.445-0.319-0.767-0.324c-0.005,0-0.013-0.001-0.021-0.002c-0.098-0.007-0.408-0.043-0.627-0.214
		c-0.059,0.07-0.094,0.137-0.087,0.173c0.008,0.042,0.132,0.172,0.596,0.272l0.07,0.016l0.049,0.044l0.004,0.005
		c0.708,0.651,0.887,0.925,0.912,1.081c0.011,0.066-0.006,0.111-0.022,0.153c-0.045,0.117-0.156,0.19-0.288,0.19l-0.605-0.022
		l-0.267-0.009l-0.047-0.021c-0.004-0.002-0.451-0.199-0.872-0.243c-0.054-0.006-0.107-0.009-0.159-0.009
		c-0.054,0-0.105,0.003-0.149,0.01l-0.109,0.017l-0.089-0.063c-0.001-0.001-0.002-0.002-0.004-0.003
		c-0.202-0.146-0.437-0.317-0.679-0.501c-0.412-0.311-0.845-0.657-1.187-0.97c-0.068-0.062-0.132-0.123-0.19-0.183
		c-0.146-0.143-0.264-0.276-0.343-0.391h-0.409l-0.064-0.039c-0.027-0.016-0.094-0.057-0.183-0.119
		c-0.29-0.201-0.826-0.621-1.027-1.103c-0.052-0.125-0.082-0.253-0.08-0.384c-0.021,0.021-0.049,0.054-0.081,0.093
		c-0.004,0.006-0.009,0.012-0.014,0.018l-0.01,0.013c-0.003,0.003-0.085,0.103-0.184,0.26c-0.194,0.306-0.448,0.833-0.284,1.304
		c0.124-0.123,0.29-0.235,0.492-0.267C20.962,4.039,21,4.035,21.038,4.035c0.324,0,0.62,0.206,0.896,0.625
		c0.062,0.093,0.122,0.196,0.181,0.311c0.013,0.024,0.027,0.049,0.04,0.075l0.055,0.11l-0.094,0.22l-0.113,0.268l-0.186-0.009
		c-0.126,0-0.591,0.03-0.89,0.463c-0.042,0.062-0.082,0.133-0.116,0.214c-0.061,0.141-0.106,0.312-0.128,0.519
		c0.013,0.047,0.016,0.096,0.006,0.146c-0.042,0.211-0.254,0.325-0.806,0.432l-0.019,0.003c-0.001,0-0.049,0.009-0.125,0.042
		c-0.139,0.059-0.372,0.198-0.604,0.512c-0.23,0.313-0.458,0.8-0.585,1.554v0.099h-0.016c-0.055,0.358-0.087,0.773-0.087,1.256
		v0.048l-0.017,0.045c-0.03,0.082-0.056,0.199-0.063,0.304c-0.005,0.08,0.001,0.152,0.029,0.191
		c0.022,0.032,0.084,0.039,0.132,0.039c0.007,0,0.015,0,0.021,0c0.105-0.003,0.289-0.038,0.594-0.173l0.019-0.007
		c0.021-0.007,0.098-0.031,0.216-0.031c0.094,0,0.216,0.015,0.359,0.067c0.322,0.116,0.748,0.418,1.187,1.154
		c0.001,0,0.002,0.001,0.003,0.003c0.002,0.006,0.104,0.172,0.286,0.41c0.207,0.273,0.515,0.638,0.899,0.964
		c0.345,0.292,0.747,0.553,1.19,0.687c0.002,0,0.005,0.001,0.007,0.002c0.198,0.059,0.403,0.094,0.615,0.094
		c0.188,0,0.376-0.028,0.564-0.082c0.012-0.003,0.025-0.009,0.038-0.012c0.175-0.055,0.349-0.132,0.521-0.233l0.338-0.2l0.062,0.387
		c0.002,0.015,0.004,0.03,0.007,0.046c0.035,0.2,0.111,0.514,0.225,0.828c0.115,0.317,0.269,0.631,0.462,0.825
		c0.118,0.119,0.251,0.194,0.399,0.194c0.038,0,0.078-0.005,0.118-0.014l0.094-0.021l0.086,0.043
		c0.006,0.003,0.016,0.008,0.028,0.015c0.08,0.046,0.262,0.175,0.281,0.398c0.009,0.114-0.022,0.278-0.223,0.434
		c-0.017,0.019-0.037,0.042-0.058,0.067c-0.073,0.09-0.154,0.215-0.177,0.314c-0.021,0.096-0.06,0.168-0.109,0.223
		c-0.085,0.094-0.199,0.132-0.3,0.132c-0.113,0-0.236-0.043-0.375-0.132c-0.067-0.043-0.138-0.096-0.214-0.16
		c-0.003,0-0.007,0-0.011,0c-0.102,0.009-0.255,0.043-0.386,0.158c-0.05,0.044-0.098,0.099-0.137,0.17l-0.081,0.146l-0.167-0.009
		c-0.105-0.005-0.25-0.014-0.419-0.026c-0.33-0.023-0.756-0.062-1.187-0.121c-0.308-0.042-0.619-0.094-0.897-0.16
		c-0.103-0.024-0.201-0.049-0.293-0.077c-0.078-0.024-0.152-0.049-0.219-0.075c-0.003,0.048-0.003,0.1-0.003,0.154
		c0.004,0.211,0.043,0.454,0.165,0.66l0.042,0.071l-0.005,0.083c-0.002,0.029-0.029,0.38-0.208,0.839
		c-0.163,0.412-0.451,0.911-0.96,1.337c-0.038,0.032-0.078,0.065-0.119,0.096l0.119,0.052l0.388,0.168l0.097,0.042l-0.485,0.183
		l-0.132,0.05c-0.024,0.008-0.234,0.084-0.509,0.084c-0.129,0-0.335-0.021-0.546-0.122c-0.112-0.054-0.225-0.13-0.329-0.237
		c-0.073-0.077-0.144-0.169-0.204-0.282c-0.021,0.076-0.041,0.17-0.058,0.282c-0.027,0.163-0.05,0.367-0.064,0.623l-0.006,0.089
		l-0.058,0.068c-0.051,0.06-0.229,0.269-0.471,0.537c-0.222,0.247-0.497,0.543-0.773,0.818c-0.137,0.136-0.274,0.267-0.406,0.384
		c-0.148,0.131-0.289,0.246-0.412,0.329c0.087,0.048,0.22,0.112,0.412,0.192c0.175,0.072,0.401,0.157,0.693,0.257
		c0.019,0.006,0.209,0.075,0.449,0.265c0.18,0.141,0.386,0.351,0.571,0.649c0.13,0.213,0.25,0.468,0.338,0.78
		c0.007,0.024,0.17,0.524,1.194,0.524c0.173,0,0.364-0.016,0.566-0.045l0.087-0.012l0.078,0.042
		c0.149,0.081,0.857,0.478,1.093,0.919c0.134,0.068,0.495,0.221,1.039,0.221c0.198,0,0.405-0.021,0.614-0.06l0.043-0.009
		l0.042,0.006c0.051,0.006,0.502,0.075,0.764,0.456c0.175,0.255,0.217,0.574,0.127,0.949l-0.022,0.092l-0.076,0.058
		c-0.01,0.009-0.362,0.322,0.114,1.142c0.083,0.101,0.155,0.267,0.115,0.462c-0.07,0.338-0.441,0.625-1.132,0.878
		c-0.073,0.031-0.874,0.392-0.787,1.089l0.002,0.021l-0.001,0.022c-0.001,0.04-0.024,1.01,1.041,1.272l0.033,0.009
		c0.26,0.101,1.125,0.464,1.311,0.921c0.054,0.137,0.053,0.274-0.006,0.402l-0.026,0.045c-0.072,0.1-0.256,0.416-0.239,0.667
		l0.006,0.072l-0.03,0.063c-0.16,0.335-0.29,0.537-0.392,0.662c0.119,0.123,0.396,0.352,1.025,0.675l0.019,0.009
		c0.006,0.002,0.021,0.007,0.042,0.007c0.077,0,0.167-0.09,0.244-0.248l0.061-0.122l0.135-0.023
		c0.019-0.003,0.465-0.076,0.755-0.076c0.109,0,0.365,0,0.454,0.208c0.019,0.045,0.067,0.198-0.076,0.347l-0.011,0.011
		c-0.012,0.01-1.155,1.077-1.067,2.216c0.043,0.564,0.391,1.069,1.035,1.501l0.405,0.271l-0.448,0.195
		c-0.333,0.145-0.802,0.463-0.817,0.68c-0.007,0.117,0.165,0.241,0.269,0.303l0.129,0.078v1.487
		c0.169,0.167,0.489,0.545,0.489,1.026c0,0.358-0.172,0.689-0.51,0.984c-0.006,0.142,0.052,0.512,0.737,0.839
		c0.136,0.063,0.91,0.501,0.443,2.139c0.016,0.37,0.168,3.138,1.052,4.469c0.042-0.291,0.071-0.901-0.024-2.152l-0.004-0.065
		l0.026-0.06c0.019-0.045,0.468-1.056,1.279-1.261l0.383-0.098l-0.053,0.393c-0.089,0.658-0.14,2.487,0.691,3.032l0.044,0.028
		l0.008,0.013c0.019,0.014,0.076,0.045,0.189,0.045c0.167,0,0.536-0.075,1.149-0.592l0.051-0.044l0.068-0.014
		c0.01-0.002,0.107-0.021,0.232-0.021c0.385,0,0.667,0.166,0.785,0.455c0.017,0.022,0.067,0.069,0.181,0.069
		c0.076,0,0.193-0.02,0.362-0.102l-0.252-0.398c-0.099-0.138-0.238-0.391-0.131-0.603c0.03-0.059,0.124-0.194,0.349-0.194
		c0.13,0,0.293,0.044,0.514,0.142l0.045,0.019l0.034,0.034c0.1,0.096,0.422,0.343,0.707,0.343c0.104,0,0.191-0.03,0.271-0.098
		l0.022-0.015c-0.002,0,0.434-0.356,0.286-1.698c-0.01-0.072-0.019-0.264,0.099-0.397c0.067-0.076,0.16-0.118,0.262-0.118
		c0.172,0,0.407,0.079,1.034,0.941c0.077-0.116,0.188-0.186,0.305-0.186c0.333,0,0.414,0.369,0.424,1.099
		c0.124,0.049,0.273,0.096,0.37,0.085l0.702-0.081l-0.475,0.525c-0.109,0.121-0.218,0.267-0.283,0.375
		c0.06,0.004,0.132,0.009,0.21,0.009c0.732,0,2.034-0.308,2.536-2.358c0.03-0.223,0.222-0.532,0.659-0.518
		c0.131-0.084,0.423-0.297,0.549-0.565l0.082-0.181l0.195,0.028c0.052,0.005,0.463,0.08,0.851,0.674
		c0.036-0.05,0.075-0.116,0.115-0.202l0.028-0.058l0.05-0.038c0.029-0.023,0.109-0.076,0.223-0.076c0.365,0,0.446,0.446,0.465,0.774
		c0.203,0.008,0.518-0.024,0.733-0.249c0.202-0.213,0.293-0.563,0.272-1.044c-0.001-0.052-0.015-1.084,0.087-2.156
		c0.149-1.575,0.445-2.346,0.956-2.479c0.068-0.032,0.202-0.079,0.388-0.079c0.153,0,0.369,0.034,0.622,0.169l0.205-0.687
		l0.318,0.349c0.005,0.005,0.577,0.62,1.147,0.62c0.133,0,0.252-0.033,0.365-0.103c0.067-0.141,0.242-0.651-0.349-1.326
		l-0.331-0.379l1.102-0.138c0.236-0.24,0.967-0.974,1.412-1.267c0.141-0.373,0.275-0.619,0.401-0.732
		c0.063-0.076,0.15-0.122,0.243-0.122c0.085,0,0.165,0.038,0.222,0.102c0.103,0.121,0.162,0.296-0.006,1.466l-0.007,0.049
		c0,0.112,0.079,0.7,1.425,1.897l0.015,0.014c0.058,0.06,1.425,1.488,1.521,3.566c0.003,0.021,0.008,0.041,0.012,0.063
		c0.05-0.121,0.114-0.302,0.188-0.573l0.016-0.04c0.027-0.061,0.695-1.448,2.984-1.756l0.292-0.039l0.011,0.295
		c0.002,0.023,0.089,2.355,0.309,3.286c0.036,0.105,0.188,0.634-0.05,1.013c-0.086,0.135-0.254,0.306-0.579,0.345
		c-0.223,0.022-0.469,0.094-0.557,0.153c0.025,0.035,0.089,0.104,0.238,0.204l0.023,0.016l0.02,0.021
		c0.157,0.163,0.338,0.339,0.503,0.487l-0.078-0.444l0.054-0.084c0.064-0.107,0.19-0.219,0.354-0.219
		c0.375,0,0.453,0.501,0.484,0.721l0.251,1.308l-0.406-0.101c-0.004-0.001-0.336-0.083-0.633-0.083c-0.197,0-0.27,0.035-0.287,0.047
		c0,0.015,0.004,0.043,0.021,0.091l0.012,0.049c0.002,0.009,0.15,0.855,0.812,2.104c0.181,0.347,0.278,0.628,0.292,0.843
		c0.097-0.183,0.24-0.331,0.445-0.413l0.05-0.015c0.153-0.028,0.6-0.109,0.859-0.139c0.071-0.079,0.179-0.161,0.325-0.161
		c0.388,0,0.521,0.514,0.604,1.017l0.005,0.035l-0.001,0.004c0.014,0.063,0.099,0.153,0.332,0.184
		c0.05,0.008,0.103,0.012,0.167,0.012c0.194,0,0.431-0.035,0.704-0.102l0.053-0.014l0.187-0.046l0.077,0.234
		c0.088,0.271,0.26,0.651,0.464,0.926L64.061,55.58z"/>
	<polygon fill="#5D5E5E" points="63.704,49.873 63.704,49.866 63.704,49.872 	"/>
	<g>
		<rect x="43.506" y="14.577" fill="none" width="1.185" height="1.653"/>
		<rect x="43.506" y="11.27" fill="none" width="1.185" height="1.653"/>
		<rect x="48.256" y="14.577" fill="none" width="1.188" height="1.653"/>
		<rect x="45.879" y="14.577" fill="none" width="1.189" height="1.653"/>
		<rect x="44.691" y="12.924" fill="none" width="1.188" height="1.652"/>
		<rect x="47.068" y="12.924" fill="none" width="1.188" height="1.652"/>
		<rect x="30.433" y="6.313" fill="none" width="1.188" height="1.652"/>
		<rect x="33.998" y="4.66" fill="none" width="1.189" height="1.652"/>
		<rect x="29.246" y="4.66" fill="none" width="1.186" height="1.652"/>
		<rect x="30.433" y="3.007" fill="none" width="1.188" height="1.653"/>
		<rect x="43.506" y="4.66" fill="none" width="1.185" height="1.652"/>
		<rect x="43.506" y="7.965" fill="none" width="1.185" height="1.653"/>
		<rect x="45.879" y="4.66" fill="none" width="1.189" height="1.652"/>
		<rect x="48.256" y="4.66" fill="none" width="1.188" height="1.652"/>
		<rect x="47.068" y="3.007" fill="none" width="1.188" height="1.653"/>
		<rect x="48.256" y="11.27" fill="none" width="1.188" height="1.653"/>
		<rect x="44.691" y="6.313" fill="none" width="1.188" height="1.652"/>
		<rect x="47.068" y="6.313" fill="none" width="1.188" height="1.652"/>
		<rect x="44.691" y="3.007" fill="none" width="1.188" height="1.653"/>
		<rect x="45.879" y="11.27" fill="none" width="1.189" height="1.653"/>
		<rect x="44.691" y="9.618" fill="none" width="1.188" height="1.652"/>
		<rect x="45.879" y="7.965" fill="none" width="1.189" height="1.653"/>
		<rect x="48.256" y="7.965" fill="none" width="1.188" height="1.653"/>
		<rect x="47.068" y="9.618" fill="none" width="1.188" height="1.652"/>
		<rect x="58.95" y="9.618" fill="none" width="1.188" height="1.652"/>
		<rect x="60.139" y="7.965" fill="none" width="1.188" height="1.653"/>
		<rect x="60.139" y="11.27" fill="none" width="1.188" height="1.653"/>
		<rect x="58.95" y="12.924" fill="none" width="1.188" height="1.652"/>
		<rect x="58.95" y="3.007" fill="none" width="1.188" height="1.653"/>
		<rect x="58.95" y="6.313" fill="none" width="1.188" height="1.652"/>
		<rect x="60.139" y="4.66" fill="none" width="1.188" height="1.652"/>
		<rect x="32.81" y="3.007" fill="none" width="1.187" height="1.653"/>
		<rect x="61.327" y="6.313" fill="none" width="1.188" height="1.652"/>
		<rect x="61.327" y="3.007" fill="none" width="1.188" height="1.653"/>
		<rect x="61.327" y="16.229" fill="none" width="1.188" height="1.653"/>
		<rect x="61.327" y="9.618" fill="none" width="1.188" height="1.652"/>
		<rect x="60.139" y="14.577" fill="none" width="1.188" height="1.653"/>
		<rect x="61.327" y="12.924" fill="none" width="1.188" height="1.652"/>
		<rect x="61.327" y="32.76" fill="none" width="1.188" height="1.65"/>
		<rect x="61.327" y="29.453" fill="none" width="1.188" height="1.653"/>
		<rect x="61.327" y="26.147" fill="none" width="1.188" height="1.653"/>
		<rect x="31.622" y="4.66" fill="none" width="1.186" height="1.652"/>
		<rect x="60.139" y="24.494" fill="none" width="1.188" height="1.653"/>
		<rect x="61.327" y="22.842" fill="none" width="1.188" height="1.652"/>
		<rect x="58.95" y="26.147" fill="none" width="1.188" height="1.653"/>
		<rect x="60.139" y="27.8" fill="none" width="1.188" height="1.653"/>
		<rect x="58.95" y="29.453" fill="none" width="1.188" height="1.653"/>
		<polygon fill="#FFFFFF" points="19.739,1.603 19.739,1.354 18.55,1.354 18.55,1.603 18.55,3.006 19.739,3.006 		"/>
		<path fill="#FFFFFF" d="M22.114,1.354h-1.188v0.249v0.452c0.042-0.012,0.084-0.021,0.129-0.021c0.271,0,0.439,0.246,0.485,0.489
			l0.009,0.042l-0.006,0.042c-0.015,0.114,0.048,0.254,0.155,0.399h0.417V1.603V1.354z"/>
		<polygon fill="#FFFFFF" points="24.491,1.354 23.304,1.354 23.304,1.603 23.304,3.006 24.491,3.006 24.491,1.603 		"/>
		<polygon fill="#FFFFFF" points="25.681,1.603 25.681,3.006 26.867,3.006 26.867,1.603 26.867,1.354 25.681,1.354 		"/>
		<path fill="#FFFFFF" d="M33.998,1.603V1.354h-1.19v0.249v1.404h-1.186V1.603V1.354h-1.19v0.249v1.404h-1.186V1.603V1.354h-1.188
			v0.249v1.404h-1.189v1.393c0.014,0.001,0.027,0.002,0.041,0.004c0.324,0.005,0.612,0.092,0.857,0.255h0.292V3.007h1.188V4.66
			h1.186v1.652h-1.186V4.66h-1.188v0.25c0.36,0.4,0.502,0.959,0.556,1.403h0.633v1.296c0.23,0.134,0.497,0.257,0.756,0.356h0.429
			v0.139c0.376,0.015,0.819,0.156,1.19,0.304V7.965h-1.188V6.313h1.188v1.652h0.975c-0.223-0.236-0.313-0.475-0.268-0.713
			c0.052-0.269,0.267-0.441,0.43-0.533c0.006-0.09,0.025-0.167,0.051-0.235V6.313h0.093c0.005-0.008,0.011-0.018,0.017-0.025
			c0.233-0.295,0.623-0.336,0.667-0.34l0.29-0.025v0.39h0.12v0.58c0.181,0.157,0.523,0.384,0.869,0.571l0.2,0.108L34.99,7.787
			c-0.019,0.052-0.024,0.113-0.021,0.178h0.217V6.312h-1.189V4.66h1.189V3.006h-1.189V1.603z M31.622,6.312V4.66h-1.188V3.007h1.188
			V4.66h1.186v1.652H31.622z M32.81,4.66V3.007h1.187V4.66H32.81z"/>
		<polygon fill="#FFFFFF" points="17.371,3.006 17.364,3.006 17.364,4.66 17.371,4.66 18.55,4.66 18.55,3.006 		"/>
		<path fill="#FFFFFF" d="M20.926,4.602c-0.027,0.015-0.054,0.034-0.08,0.056h0.08V4.602z"/>
		<path fill="#FFFFFF" d="M20,4.658c-0.302-0.582-0.122-1.207,0.102-1.652h-0.363v1.652H20z"/>
		<path fill="#FFFFFF" d="M22.114,3.438c0.132,0.112,0.271,0.214,0.398,0.296h0.636l0.041,0.207
			c0.016,0.038,0.057,0.093,0.115,0.158V3.006h-1.19V3.438z"/>
		<path fill="#FFFFFF" d="M24.491,4.658h1.171c0.005-0.014,0.012-0.029,0.019-0.043V3.006h-1.19V4.658z"/>
		<rect x="18.55" y="4.66" fill="#FFFFFF" width="1.188" height="1.652"/>
		<path fill="#FFFFFF" d="M20.926,5.365c0.243-0.153,0.49-0.219,0.664-0.246c-0.119-0.211-0.241-0.369-0.352-0.46h-0.312V5.365z"/>
		<path fill="#FFFFFF" d="M24.491,4.66h-0.584c0.177,0.149,0.375,0.31,0.584,0.474V4.66z"/>
		<path fill="#FFFFFF" d="M18.499,7.965c0.018-0.031,0.035-0.063,0.052-0.091V6.312h-1.18h-0.007v1.653h0.007H18.499z"/>
		<path fill="#FFFFFF" d="M19.786,6.883c0.187-0.037,0.299-0.068,0.364-0.09c0.017-0.18,0.049-0.338,0.092-0.48h-0.503v0.58
			C19.759,6.887,19.775,6.884,19.786,6.883z"/>
		<path fill="#FFFFFF" d="M17.833,11.27c0.006-0.185,0.052-0.354,0.082-0.442c0.001-0.454,0.03-0.855,0.081-1.21h-0.625h-0.007
			v1.652h0.007H17.833z"/>
		<path fill="#FFFFFF" d="M19.739,11.951c-0.174-0.111-0.302-0.127-0.359-0.127c-0.019,0-0.034,0.002-0.042,0.003
			c-0.314,0.136-0.571,0.204-0.787,0.208v0.889h1.188V11.951z"/>
		<polygon fill="#FFFFFF" points="17.371,12.923 17.364,12.923 17.364,14.577 17.371,14.577 18.55,14.577 18.55,12.923 		"/>
		<path fill="#FFFFFF" d="M20.926,14.576v-1.15c-0.167-0.208-0.293-0.388-0.369-0.503h-0.818v1.653H20.926z"/>
		<polygon fill="#FFFFFF" points="22.114,14.576 22.128,14.576 22.114,14.567 		"/>
		<rect x="18.55" y="14.577" fill="#FFFFFF" width="1.188" height="1.653"/>
		<rect x="20.926" y="14.577" fill="#FFFFFF" width="1.188" height="1.653"/>
		<path fill="#FFFFFF" d="M23.927,15.204c-0.214,0-0.423-0.029-0.623-0.078v1.103h1.187v-1.09
			C24.304,15.182,24.115,15.204,23.927,15.204z"/>
		<polygon fill="#FFFFFF" points="17.364,16.229 17.364,17.883 17.371,17.883 18.55,17.883 18.55,16.229 17.371,16.229 		"/>
		<rect x="19.739" y="16.229" fill="#FFFFFF" width="1.187" height="1.652"/>
		<path fill="#FFFFFF" d="M22.114,17.249c0.264,0.094,0.695,0.18,1.19,0.25v-1.27h-1.19V17.249z"/>
		<path fill="#FFFFFF" d="M24.491,16.229v1.397c0.099,0.007,0.197,0.015,0.294,0.021c0.286-0.378,0.702-0.448,0.896-0.458v-0.674
			c-0.074-0.088-0.143-0.184-0.205-0.285H24.491z"/>
		<path fill="#FFFFFF" d="M38.75,16.797c0.405,0.104,0.816,0.194,1.189,0.27v-0.837H38.75V16.797z"/>
		<path fill="#FFFFFF" d="M51.722,16.899c0.044,0,0.076,0,0.102-0.001v-0.669h-1.189v0.599
			C51.058,16.893,51.546,16.899,51.722,16.899z"/>
		<path fill="#FFFFFF" d="M53.502,16.916c0.354,0,0.572-0.091,0.696-0.172v-0.514h-1.189v0.635
			C53.185,16.897,53.352,16.916,53.502,16.916z"/>
		<rect x="18.55" y="17.883" fill="#FFFFFF" width="1.188" height="1.653"/>
		<path fill="#FFFFFF" d="M21.553,18.734c-0.145-0.282-0.19-0.589-0.194-0.852h-0.433v1.653h0.376
			C21.474,19.178,21.534,18.869,21.553,18.734z"/>
		<polygon fill="#FFFFFF" points="17.364,19.536 17.364,21.188 17.371,21.188 18.55,21.188 18.55,19.536 17.371,19.536 		"/>
		<path fill="#FFFFFF" d="M20.247,21.014c-0.013-0.055-0.018-0.106-0.018-0.149v-0.141l0.117-0.08
			c0.237-0.161,0.426-0.34,0.58-0.525v-0.583h-1.187v1.215C19.861,20.917,20.029,21.005,20.247,21.014z"/>
		<path fill="#FFFFFF" d="M57.573,25.565c0.072,0.171,0.105,0.364,0.021,0.545c-0.007,0.014-0.014,0.025-0.021,0.038h0.188v-0.586
			c-0.055,0.002-0.11,0.004-0.169,0.004C57.586,25.565,57.579,25.565,57.573,25.565z"/>
		<path fill="#FFFFFF" d="M55.385,27.798h0.121c-0.04-0.023-0.082-0.05-0.121-0.076V27.798z"/>
		<path fill="#FFFFFF" d="M51.827,29.229c-0.002,0.001-0.003,0.003-0.004,0.005v0.219h1.186V29.05
			C52.552,29.193,52.091,29.224,51.827,29.229z"/>
		<path fill="#FFFFFF" d="M55.377,27.8c-0.006,0.174-0.044,0.312-0.123,0.417c-0.097,0.13-0.247,0.202-0.421,0.202
			c-0.213,0-0.448-0.109-0.635-0.221v1.254h1.187V27.8H55.377z"/>
		<path fill="#FFFFFF" d="M56.701,27.804c-0.039,0.04-0.081,0.076-0.126,0.105v1.544h-1.19v1.652h1.19v-1.652h1.186V27.8h-1.058
			C56.703,27.802,56.702,27.803,56.701,27.804z"/>
		<path fill="#FFFFFF" d="M51.033,29.943l-0.043,0.027l-0.051,0.01c-0.111,0.021-0.214,0.078-0.306,0.162v0.963h1.189v-1.652h-0.181
			C51.406,29.698,51.112,29.893,51.033,29.943z"/>
		<rect x="53.009" y="29.453" fill="#FFFFFF" width="1.189" height="1.652"/>
		<path fill="#FFFFFF" d="M50.113,31.106c-0.138,0.439-0.211,0.895-0.232,1.14l-0.019,0.222l-0.418,0.037v0.024
			c0.104,0.074,0.234,0.15,0.362,0.206l0.057,0.023h0.771v-1.651H50.113z"/>
		<rect x="51.823" y="31.106" fill="#FFFFFF" width="1.186" height="1.651"/>
		<rect x="54.198" y="31.106" fill="#FFFFFF" width="1.187" height="1.651"/>
		<path fill="#FFFFFF" d="M56.575,31.839c0.075-0.099,0.174-0.153,0.304-0.153c0.284,0,0.474,0.322,0.563,0.513l0.017,0.047
			c0.072,0.293,0.146,0.403,0.18,0.44c0.005-0.004,0.01-0.008,0.016-0.012c0.036-0.055,0.071-0.106,0.107-0.156v-1.411h-1.186
			V31.839z"/>
		<path fill="#FFFFFF" d="M49.444,33.568V33.29c-0.114,0.022-0.2,0.045-0.264,0.064C49.274,33.417,49.361,33.491,49.444,33.568z"/>
		<polygon fill="#FFFFFF" points="50.634,33.087 50.706,33.117 50.634,33.127 50.634,34.41 51.823,34.41 51.823,32.758 
			50.634,32.758 		"/>
		<rect x="53.009" y="32.758" fill="#FFFFFF" width="1.189" height="1.652"/>
		<path fill="#FFFFFF" d="M55.385,34.41h0.835c0.099-0.379,0.137-0.851,0.134-1.164c0-0.177,0.003-0.338,0.01-0.488h-0.979V34.41z"
			/>
		<path fill="#FFFFFF" d="M50.053,34.41c0.277,0.546,0.442,1.158,0.539,1.654h0.042V34.41H50.053z"/>
		<rect x="51.823" y="34.41" fill="#FFFFFF" width="1.186" height="1.654"/>
		<path fill="#FFFFFF" d="M54.198,36.064h0.42c0.011-0.417,0.065-1.273,0.615-1.273c0.056,0,0.106,0.011,0.151,0.028V34.41h-1.187
			V36.064z"/>
		<path fill="#FFFFFF" d="M50.634,36.298c0.066,0.397,0.085,0.677,0.088,0.714v0.014v0.014c-0.012,0.274-0.003,0.496,0.017,0.676
			h0.299l-0.01-0.209c-0.009-0.524,0.053-0.811,0.206-0.966c0.077-0.078,0.178-0.121,0.283-0.121s0.209,0.043,0.307,0.117v-0.473
			h-1.189V36.298z"/>
		<rect x="53.009" y="36.064" fill="#FFFFFF" width="1.189" height="1.652"/>
		<path fill="#FFFFFF" d="M53.009,39.194v-1.477h-0.594C52.483,38.271,52.763,38.813,53.009,39.194z"/>
		<path fill="#FFFFFF" d="M54.198,37.717v1.522c0.134-0.079,0.268-0.165,0.393-0.249l0.012-0.007
			c0.33-0.196,0.531-0.435,0.599-0.709c0.05-0.208,0.018-0.408-0.029-0.557H54.198z"/>
		<path fill="#FFFFFF" d="M53.163,39.422c0.074,0.104,0.138,0.186,0.181,0.238c0.09-0.02,0.234-0.081,0.404-0.168
			c0.072-0.038,0.146-0.078,0.226-0.123h-0.848C53.139,39.388,53.152,39.407,53.163,39.422z"/>
		<path fill="#FFFFFF" d="M62.515,41.067v-0.044h-0.018C62.504,41.038,62.509,41.052,62.515,41.067z"/>
		<polygon fill="#FFFFFF" points="36.376,1.354 35.187,1.354 35.187,1.603 35.187,3.006 36.376,3.006 36.376,1.603 		"/>
		<polygon fill="#FFFFFF" points="38.75,1.354 37.562,1.354 37.562,1.603 37.562,3.006 36.376,3.006 36.376,4.658 37.562,4.658 
			37.562,3.006 38.75,3.006 38.75,1.603 		"/>
		<polygon fill="#FFFFFF" points="39.939,1.603 39.939,3.006 41.126,3.006 41.126,1.603 41.126,1.354 39.939,1.354 		"/>
		<path fill="#FFFFFF" d="M48.256,1.603V1.354h-1.188v0.249v1.404h-1.189V1.603V1.354H44.69v0.249v1.404h-1.185V1.603V1.354h-1.19
			v0.249v1.404h-1.188v1.652h1.188V3.007h1.19V4.66h1.185v1.652h-1.185V4.66h-1.19v1.652h-1.188v1.652h1.188V6.313h1.19v1.652h1.185
			v1.653h-1.185V7.965h-1.19v1.653h-1.188v1.652h1.188V9.618h1.19v1.652h1.185v1.653h-1.185V11.27h-1.19v1.653h-1.188v1.653h1.188
			v-1.652h1.19v1.652h1.185v1.653h-1.185v-1.653h-1.19v1.653h-1.188v1.049c0.048,0.008,0.089,0.015,0.118,0.019
			c0.365-0.147,0.723-0.256,1.07-0.328v-0.74h1.19v0.649c0.335,0.023,0.527,0.084,0.553,0.093l0.021,0.009
			c0.167,0.073,0.373,0.125,0.612,0.154v-0.904h1.188v0.894c0.243-0.026,0.421-0.06,0.479-0.07c0.203-0.077,0.446-0.136,0.711-0.184
			v-0.64h1.188v0.51c0.388-0.023,0.773-0.031,1.115-0.031c0.024,0,0.049,0,0.073,0v-0.479h-1.188v-1.653h-1.188v1.653h-1.189v-1.653
			h-1.188v-1.652h1.188v1.652h1.189v-1.652h1.188v1.652h1.188v-1.653h-1.188V11.27h-1.188v1.653h-1.189V11.27h-1.188V9.618h1.188
			v1.652h1.189V9.618h1.188v1.652h1.188V9.618h-1.188V7.965h-1.188v1.653h-1.189V7.965h-1.188V6.313h1.188v1.652h1.189V6.313h1.188
			v1.652h1.188V6.312h-1.188V4.66h-1.188v1.652h-1.189V4.66h-1.188V3.007h1.188V4.66h1.189V3.007h1.188V4.66h1.188V3.006h-1.188
			V1.603z"/>
		<polygon fill="#FFFFFF" points="50.634,1.354 49.444,1.354 49.444,1.603 49.444,3.006 50.634,3.006 50.634,1.603 		"/>
		<polygon fill="#FFFFFF" points="53.009,1.354 51.823,1.354 51.823,1.603 51.823,3.006 53.009,3.006 53.009,1.603 		"/>
		<polygon fill="#FFFFFF" points="55.385,1.354 54.198,1.354 54.198,1.603 54.198,3.006 55.385,3.006 55.385,1.603 		"/>
		<polygon fill="#FFFFFF" points="56.575,1.603 56.575,3.006 55.385,3.006 55.385,4.658 56.575,4.658 56.575,3.007 57.761,3.007 
			57.761,1.603 57.761,1.354 56.575,1.354 		"/>
		<rect x="38.75" y="3.006" fill="#FFFFFF" width="1.189" height="1.652"/>
		<rect x="50.634" y="3.006" fill="#FFFFFF" width="1.189" height="1.652"/>
		<rect x="53.009" y="3.006" fill="#FFFFFF" width="1.189" height="1.652"/>
		<rect x="35.187" y="4.66" fill="#FFFFFF" width="1.189" height="1.652"/>
		<rect x="39.939" y="4.66" fill="#FFFFFF" width="1.187" height="1.652"/>
		<rect x="49.444" y="4.66" fill="#FFFFFF" width="1.189" height="1.652"/>
		<rect x="51.823" y="4.66" fill="#FFFFFF" width="1.186" height="1.652"/>
		<rect x="54.198" y="4.66" fill="#FFFFFF" width="1.187" height="1.652"/>
		<polygon fill="#FFFFFF" points="56.575,6.312 55.385,6.312 55.385,7.964 56.575,7.964 56.575,6.313 57.761,6.313 57.761,4.66 
			56.575,4.66 		"/>
		<path fill="#FFFFFF" d="M61.327,4.66V3.007h1.188V4.66h1.18h0.01V3.006h-0.01h-1.18V1.603V1.354h-1.188v0.249v1.404h-1.188V1.603
			V1.354H58.95v0.249v1.404h-1.188V4.66h1.188V3.007h1.188V4.66H61.327v1.652h-1.188V4.66H58.95v1.652h-1.188v1.653h1.188V6.313
			h1.188v1.652h1.188v1.653h-1.188V7.965H58.95v1.653h-1.188v1.652h1.188V9.618h1.188v1.652h1.188v1.653h-1.188V11.27H58.95v1.653
			h-1.188v1.653h1.188v-1.652h1.188v1.652h1.188v1.653h-1.188v-1.653H58.95v1.653h-1.188v0.163c0.615,0.068,0.978,0.195,1.188,0.313
			v-0.477h1.188v1.39c0.271,0.116,0.528,0.188,0.674,0.216l0.046,0.013c0.027,0.011,0.055,0.022,0.08,0.034h0.389v0.18
			c0.511,0.266,0.83,0.561,0.948,0.882c0.079,0.214,0.048,0.382,0.019,0.469c-0.005,0.043-0.012,0.083-0.019,0.123h0.239v1.652h1.18
			h0.01v-1.652h-0.01h-1.18v-1.653h-1.188v-1.653h1.188v1.653h1.18h0.01v-1.653h-0.01h-1.18v-1.653h-1.188v-1.652h1.188v1.652h1.18
			h0.01v-1.653h-0.01h-1.18V11.27h-1.188V9.618h1.188v1.652h1.18h0.01V9.618h-0.01h-1.18V7.965h-1.188V6.313h1.188v1.652h1.18h0.01
			V6.312h-0.01h-1.18V4.66H61.327z"/>
		<polygon fill="#FFFFFF" points="37.562,7.964 37.562,6.312 38.75,6.312 38.75,4.66 37.562,4.66 37.562,6.312 36.376,6.312 
			36.376,7.964 		"/>
		<rect x="38.75" y="6.312" fill="#FFFFFF" width="1.189" height="1.652"/>
		<rect x="50.634" y="6.312" fill="#FFFFFF" width="1.189" height="1.652"/>
		<rect x="53.009" y="6.312" fill="#FFFFFF" width="1.189" height="1.652"/>
		<path fill="#FFFFFF" d="M35.305,8.8c0.16,0.217,0.268,0.337,0.335,0.403l0.378-0.205v0.422l0.119,0.058l-0.146,0.107
			c-0.003,0.011-0.008,0.021-0.015,0.032h0.399V7.965h-1.189v0.637C35.229,8.681,35.27,8.75,35.305,8.8z"/>
		<rect x="39.939" y="7.965" fill="#FFFFFF" width="1.187" height="1.653"/>
		<rect x="49.444" y="7.965" fill="#FFFFFF" width="1.189" height="1.653"/>
		<rect x="51.823" y="7.965" fill="#FFFFFF" width="1.186" height="1.653"/>
		<rect x="54.198" y="7.965" fill="#FFFFFF" width="1.187" height="1.653"/>
		<polygon fill="#FFFFFF" points="56.575,9.618 55.385,9.618 55.385,11.27 56.575,11.27 56.575,9.618 57.761,9.618 57.761,7.965 
			56.575,7.965 		"/>
		<polygon fill="#FFFFFF" points="37.562,11.27 37.562,9.618 38.75,9.618 38.75,7.965 37.562,7.965 37.562,9.618 36.376,9.618 
			36.376,11.27 		"/>
		<rect x="38.75" y="9.618" fill="#FFFFFF" width="1.189" height="1.652"/>
		<rect x="50.634" y="9.618" fill="#FFFFFF" width="1.189" height="1.652"/>
		<rect x="53.009" y="9.618" fill="#FFFFFF" width="1.189" height="1.652"/>
		<path fill="#FFFFFF" d="M35.61,11.27c0.109,0.57,0.157,1.134,0.165,1.653h0.601V11.27H35.61z"/>
		<polygon fill="#FFFFFF" points="37.562,11.27 37.562,12.923 36.376,12.923 36.376,14.576 37.562,14.576 37.562,12.923 
			38.75,12.923 38.75,11.27 		"/>
		<rect x="39.939" y="11.27" fill="#FFFFFF" width="1.187" height="1.653"/>
		<rect x="49.444" y="11.27" fill="#FFFFFF" width="1.189" height="1.653"/>
		<rect x="51.823" y="11.27" fill="#FFFFFF" width="1.186" height="1.653"/>
		<rect x="54.198" y="11.27" fill="#FFFFFF" width="1.187" height="1.653"/>
		<polygon fill="#FFFFFF" points="56.575,12.923 55.385,12.923 55.385,14.576 56.575,14.576 56.575,12.924 57.761,12.924 
			57.761,11.27 56.575,11.27 		"/>
		<rect x="38.75" y="12.923" fill="#FFFFFF" width="1.189" height="1.653"/>
		<rect x="50.634" y="12.923" fill="#FFFFFF" width="1.189" height="1.653"/>
		<rect x="53.009" y="12.923" fill="#FFFFFF" width="1.189" height="1.653"/>
		<path fill="#FFFFFF" d="M35.548,15.418l-0.007,0.023c-0.156,0.482-0.134,0.669-0.119,0.725c0.001,0,0.002,0,0.002,0
			c0.219-0.167,0.482-0.255,0.765-0.255c0.065,0,0.128,0.006,0.188,0.013v-1.347h-0.69C35.625,15.068,35.556,15.383,35.548,15.418z"
			/>
		<path fill="#FFFFFF" d="M37.562,14.577v1.653h-0.442c0.132,0.068,0.28,0.134,0.442,0.197v-0.197h1.188v-1.653H37.562z"/>
		<rect x="39.939" y="14.577" fill="#FFFFFF" width="1.187" height="1.653"/>
		<rect x="49.444" y="14.577" fill="#FFFFFF" width="1.189" height="1.653"/>
		<rect x="51.823" y="14.577" fill="#FFFFFF" width="1.186" height="1.653"/>
		<rect x="54.198" y="14.577" fill="#FFFFFF" width="1.187" height="1.653"/>
		<path fill="#FFFFFF" d="M56.575,16.229h-1.19v0.176c0.427-0.035,0.824-0.056,1.19-0.061V16.229h1.186v-1.653h-1.186V16.229z"/>
		<path fill="#FFFFFF" d="M61.327,20.589c-0.018,0-0.035,0.001-0.052,0.001c-0.421,0-0.86-0.24-1.137-0.425v0.103
			c0.117,0.124,0.195,0.27,0.229,0.429c0.039,0.181,0.02,0.351-0.019,0.49h0.978v1.652h-1.188v-1.24
			c-0.395,0.306-0.141,1.104-0.092,1.241h0.092v1.652h1.188v1.653h-1.188v-1.653h-1.006c0.014,0.197-0.024,0.374-0.117,0.527
			c-0.021,0.032-0.042,0.063-0.065,0.091v1.035h-1.188V27.8h1.188v-1.653h1.188V27.8h1.188v1.653h-1.188V27.8H58.95v1.653h-1.188
			v1.653h1.188v-1.653h1.188v1.653h1.188v1.651h-0.962c0.027,0.107,0.043,0.194,0.05,0.238l0.015,0.089l-0.043,0.081
			c-0.147,0.274-0.018,0.785,0.175,1.244h0.766v1.509c0.017,0.05,0.032,0.099,0.045,0.146h1.143v1.652h1.18h0.01v-1.653h-0.01h-1.18
			V34.41h-1.188v-1.65h1.188v1.65h1.18h0.01v-1.652h-0.01h-1.18v-1.651h-1.188v-1.653h1.188v1.653h1.18h0.01v-1.653h-0.01h-1.18
			V27.8h-1.188v-1.653h1.188V27.8h1.18h0.01v-1.653h-0.01h-1.18v-1.653h-1.188v-1.652h1.188v1.652h1.18h0.01V22.84h-0.01h-1.18
			v-1.652h-1.188V20.589z"/>
		<path fill="#FFFFFF" d="M58.95,31.727c0.145,0.035,0.257,0.123,0.337,0.226c0.102-0.057,0.204-0.085,0.308-0.085
			c0.244,0,0.42,0.152,0.544,0.346v-1.108H58.95V31.727z"/>
		<path fill="#FFFFFF" d="M61.327,36.962c-0.059,0.097-0.126,0.15-0.158,0.173c-0.219,0.134-0.297,0.246-0.301,0.307
			c-0.002,0.037,0.028,0.076,0.044,0.094c0.099,0.051,0.18,0.113,0.249,0.182h0.166v0.216c0.237,0.413,0.166,0.952,0.06,1.253
			L61.382,39.2c-0.026,0.061-0.041,0.116-0.05,0.17h1.183v1.653h1.18h0.01V39.37h-0.01h-1.18v-1.652h-1.188V36.962z"/>
		<path fill="#FFFFFF" d="M62.951,42.676c0.104,0.548,0.16,1.022,0.184,1.25c0.057,0.14,0.109,0.272,0.161,0.403h0.398h0.01v-1.653
			h-0.01H62.951z"/>
		<path fill="#FFFFFF" d="M25.681,5.148v0.676c0.443,0.037,0.892,0.209,1.04,0.27L26.867,6.1V5.97
			c-0.098-0.099-0.203-0.202-0.305-0.297C26.323,5.617,25.852,5.483,25.681,5.148z"/>
		<path fill="#FFFFFF" d="M56.937,32.384c-0.014,0.086-0.027,0.208-0.037,0.376h0.166c-0.06-0.137-0.097-0.271-0.118-0.357
			C56.944,32.395,56.94,32.389,56.937,32.384z"/>
		<path fill="#5D5E5E" d="M26.867,4.667V4.66h-0.066C26.828,4.664,26.851,4.666,26.867,4.667z"/>
		<rect x="61.327" y="39.37" fill="#5D5E5E" width="0" height="0.001"/>
	</g>
	<path fill="none" d="M34.252,67.258c-0.357,0.064-0.631,0.143-0.821,0.23c-0.19,0.09-0.338,0.217-0.444,0.384
		c-0.104,0.166-0.157,0.356-0.157,0.569c0,0.32,0.115,0.586,0.348,0.797c0.231,0.21,0.547,0.315,0.949,0.315
		c0.229,0,0.443-0.041,0.645-0.124c0.2-0.083,0.39-0.207,0.566-0.372c0.006,0.019,0.019,0.058,0.037,0.116
		c0.039,0.13,0.071,0.228,0.099,0.295h1.022c-0.092-0.18-0.153-0.348-0.187-0.506c-0.032-0.156-0.049-0.4-0.049-0.731l0.01-1.161
		c0-0.434-0.045-0.729-0.138-0.893c-0.091-0.162-0.251-0.296-0.476-0.399c-0.225-0.106-0.568-0.158-1.029-0.158
		c-0.508,0-0.889,0.087-1.148,0.261c-0.257,0.177-0.438,0.445-0.543,0.81l0.938,0.163c0.064-0.176,0.147-0.297,0.251-0.368
		c0.103-0.069,0.244-0.103,0.429-0.103c0.273,0,0.458,0.04,0.556,0.121c0.099,0.082,0.147,0.219,0.147,0.409v0.1
		C35.07,67.089,34.736,67.169,34.252,67.258z M35.257,67.859c0,0.238-0.014,0.4-0.041,0.486c-0.039,0.129-0.121,0.24-0.246,0.328
		c-0.169,0.118-0.348,0.178-0.534,0.178c-0.167,0-0.304-0.051-0.411-0.152c-0.108-0.101-0.162-0.222-0.162-0.361
		c0-0.142,0.068-0.259,0.203-0.352c0.088-0.055,0.275-0.114,0.563-0.173s0.496-0.109,0.629-0.152V67.859z"/>
	<rect x="30.972" y="64.271" fill="none" width="1.033" height="5.197"/>
	<path fill="none" d="M34.256,60.569c0-0.317,0.03-0.556,0.093-0.719c0.063-0.162,0.162-0.282,0.298-0.362
		c0.134-0.08,0.287-0.12,0.459-0.12c0.15,0,0.273,0.03,0.372,0.092c0.101,0.064,0.171,0.148,0.208,0.255
		c0.039,0.106,0.059,0.355,0.059,0.752v1.987h1.034v-2.209c0-0.337-0.019-0.587-0.054-0.747c-0.034-0.161-0.102-0.307-0.199-0.439
		c-0.097-0.132-0.24-0.24-0.432-0.326c-0.19-0.084-0.404-0.127-0.644-0.127c-0.463,0-0.86,0.188-1.194,0.564v-1.911h-1.033v5.195
		h1.033V60.569z"/>
	<path fill="none" d="M28.946,66.232c-0.314-0.409-0.712-0.612-1.196-0.612c-0.468,0-0.86,0.166-1.174,0.499
		c-0.315,0.333-0.472,0.815-0.472,1.445c0,0.505,0.12,0.925,0.36,1.262c0.306,0.428,0.722,0.643,1.246,0.643
		c0.471,0,0.86-0.202,1.17-0.609v0.549c0,0.222-0.016,0.375-0.049,0.458c-0.046,0.114-0.115,0.199-0.205,0.251
		c-0.135,0.077-0.337,0.117-0.607,0.117c-0.21,0-0.364-0.035-0.463-0.106c-0.071-0.05-0.116-0.141-0.136-0.274l-1.18-0.138
		c-0.002,0.048-0.003,0.088-0.003,0.122c0,0.335,0.138,0.612,0.415,0.83c0.276,0.219,0.747,0.329,1.408,0.329
		c0.351,0,0.641-0.036,0.869-0.108c0.229-0.069,0.413-0.167,0.55-0.294c0.138-0.124,0.244-0.297,0.32-0.517
		c0.076-0.219,0.114-0.551,0.114-0.996v-3.378h-0.966V66.232z M28.636,68.378c-0.175,0.191-0.387,0.286-0.64,0.286
		c-0.235,0-0.433-0.093-0.594-0.278c-0.161-0.186-0.241-0.479-0.241-0.877c0-0.38,0.08-0.663,0.241-0.85
		c0.161-0.186,0.364-0.276,0.613-0.276c0.254,0,0.465,0.095,0.631,0.282c0.167,0.189,0.25,0.479,0.25,0.868
		C28.897,67.906,28.811,68.189,28.636,68.378z"/>
	<path fill="none" d="M30.729,61.124c0,0.354,0.011,0.587,0.033,0.704c0.026,0.161,0.075,0.291,0.145,0.388
		c0.069,0.095,0.18,0.173,0.329,0.232c0.149,0.062,0.317,0.091,0.504,0.091c0.303,0,0.576-0.049,0.816-0.148l-0.088-0.772
		c-0.181,0.063-0.32,0.096-0.415,0.096c-0.069,0-0.127-0.017-0.175-0.05c-0.049-0.033-0.08-0.074-0.092-0.127
		c-0.013-0.049-0.021-0.229-0.021-0.536v-1.517h0.706v-0.795h-0.706V57.36l-1.037,0.582v0.747h-0.475v0.795h0.475V61.124z"/>
	<path fill="none" d="M38.728,69.554c0.222,0,0.44-0.052,0.657-0.157c0.218-0.106,0.404-0.266,0.565-0.48v0.553h0.957v-5.197h-1.031
		v1.873c-0.318-0.35-0.697-0.524-1.133-0.524c-0.477,0-0.869,0.166-1.182,0.498c-0.311,0.331-0.467,0.816-0.467,1.453
		c0,0.625,0.16,1.112,0.48,1.46C37.895,69.379,38.28,69.554,38.728,69.554z M38.399,66.663c0.165-0.188,0.37-0.28,0.615-0.28
		c0.253,0,0.459,0.095,0.622,0.283c0.162,0.191,0.242,0.503,0.242,0.935c0,0.389-0.083,0.679-0.25,0.874
		c-0.166,0.195-0.369,0.292-0.607,0.292c-0.299,0-0.531-0.129-0.697-0.39c-0.116-0.18-0.173-0.471-0.173-0.872
		C38.151,67.132,38.233,66.852,38.399,66.663z"/>
	<path fill="none" d="M40.114,62.454h1.034v-2.98h0.771v-0.784h-0.771v-0.265c0-0.191,0.032-0.321,0.097-0.388
		c0.065-0.068,0.172-0.102,0.322-0.102c0.152,0,0.311,0.02,0.475,0.057l0.14-0.695c-0.282-0.084-0.57-0.127-0.865-0.127
		c-0.285,0-0.523,0.049-0.711,0.147c-0.188,0.098-0.316,0.225-0.387,0.381c-0.069,0.156-0.104,0.392-0.104,0.709v0.282h-0.572v0.784
		h0.572V62.454z"/>
	<path fill="none" d="M45.97,66.775c0,0.36,0.154,0.643,0.464,0.847c0.222,0.146,0.75,0.31,1.584,0.485
		c0.179,0.041,0.294,0.085,0.346,0.131c0.049,0.05,0.074,0.113,0.074,0.188c0,0.111-0.047,0.2-0.137,0.265
		c-0.135,0.095-0.336,0.143-0.604,0.143c-0.242,0-0.431-0.051-0.566-0.15c-0.134-0.101-0.224-0.248-0.269-0.441l-1.036,0.152
		c0.096,0.357,0.298,0.639,0.608,0.847c0.31,0.208,0.731,0.313,1.263,0.313c0.586,0,1.028-0.124,1.327-0.373
		c0.3-0.246,0.448-0.543,0.448-0.89c0-0.315-0.107-0.563-0.322-0.74c-0.219-0.174-0.604-0.321-1.153-0.442
		c-0.551-0.12-0.872-0.214-0.965-0.28c-0.068-0.05-0.103-0.11-0.103-0.181c0-0.083,0.039-0.15,0.118-0.202
		c0.117-0.073,0.312-0.109,0.584-0.109c0.216,0,0.382,0.039,0.498,0.116s0.195,0.191,0.236,0.337l0.976-0.174
		c-0.098-0.328-0.278-0.576-0.538-0.744s-0.657-0.251-1.19-0.251c-0.562,0-0.976,0.11-1.244,0.333
		C46.103,66.174,45.97,66.449,45.97,66.775z"/>
	<path fill="none" d="M48.166,61.293c0-0.641,0.028-1.062,0.085-1.263c0.058-0.201,0.137-0.34,0.237-0.416
		c0.101-0.078,0.224-0.116,0.367-0.116c0.15,0,0.313,0.055,0.486,0.164l0.319-0.869c-0.218-0.125-0.445-0.188-0.681-0.188
		c-0.166,0-0.315,0.04-0.445,0.12c-0.132,0.08-0.279,0.247-0.443,0.499v-0.535h-0.96v3.765h1.034V61.293z"/>
	<path fill="none" d="M51.445,67.584c0-0.317,0.03-0.557,0.093-0.719c0.063-0.162,0.162-0.282,0.297-0.363
		c0.134-0.079,0.287-0.119,0.459-0.119c0.15,0,0.273,0.029,0.374,0.092c0.1,0.064,0.169,0.148,0.206,0.255
		c0.04,0.106,0.06,0.356,0.06,0.751v1.988h1.033V67.26c0-0.337-0.018-0.586-0.053-0.747s-0.103-0.307-0.198-0.439
		c-0.098-0.132-0.241-0.24-0.433-0.326c-0.19-0.086-0.405-0.127-0.643-0.127c-0.463,0-0.862,0.188-1.195,0.563v-1.911h-1.033v5.197
		h1.033V67.584z"/>
	<path fill="none" d="M26.614,62.373c0.209,0.11,0.444,0.166,0.706,0.166c0.257,0,0.502-0.057,0.733-0.174
		c0.232-0.116,0.419-0.273,0.561-0.475v0.563h0.96v-3.765h-1.033v1.588c0,0.539-0.025,0.879-0.077,1.017s-0.147,0.254-0.288,0.347
		c-0.139,0.094-0.297,0.14-0.473,0.14c-0.155,0-0.283-0.034-0.383-0.104c-0.101-0.069-0.169-0.165-0.208-0.284
		s-0.057-0.443-0.057-0.974v-1.729h-1.034v2.383c0,0.354,0.047,0.633,0.139,0.833C26.254,62.106,26.405,62.261,26.614,62.373z"/>
	<path fill="none" d="M43.294,62.306c0.324,0.156,0.666,0.233,1.024,0.233c0.577,0,1.059-0.188,1.439-0.563s0.571-0.846,0.571-1.415
		c0-0.563-0.188-1.032-0.567-1.402c-0.376-0.369-0.86-0.554-1.45-0.554c-0.383,0-0.73,0.082-1.039,0.245
		c-0.31,0.163-0.55,0.399-0.72,0.707c-0.17,0.311-0.254,0.631-0.254,0.961c0,0.434,0.084,0.8,0.254,1.101
		C42.723,61.921,42.969,62.148,43.294,62.306z M43.634,59.715c0.184-0.198,0.41-0.299,0.681-0.299c0.27,0,0.496,0.101,0.679,0.299
		c0.183,0.197,0.273,0.482,0.273,0.85c0,0.379-0.091,0.668-0.273,0.866c-0.183,0.197-0.409,0.297-0.679,0.297
		c-0.271,0-0.497-0.1-0.681-0.297c-0.184-0.198-0.275-0.484-0.275-0.859C43.358,60.2,43.45,59.912,43.634,59.715z"/>
	<path fill="none" d="M41.663,67.614c0,0.523,0.128,0.955,0.386,1.299c0.326,0.427,0.829,0.641,1.508,0.641
		c0.429,0,0.786-0.096,1.072-0.285c0.285-0.19,0.493-0.468,0.627-0.831l-1.031-0.166c-0.056,0.188-0.139,0.325-0.249,0.41
		s-0.246,0.128-0.408,0.128c-0.237,0-0.437-0.082-0.596-0.247c-0.159-0.164-0.242-0.393-0.249-0.688h2.587
		c0.015-0.763-0.145-1.33-0.481-1.7c-0.335-0.369-0.795-0.554-1.374-0.554c-0.518,0-0.945,0.177-1.283,0.529
		C41.832,66.503,41.663,66.991,41.663,67.614z M42.957,66.619c0.147-0.158,0.334-0.236,0.559-0.236c0.212,0,0.391,0.074,0.537,0.223
		c0.147,0.151,0.225,0.371,0.231,0.66h-1.543C42.738,66.992,42.81,66.777,42.957,66.619z"/>
	<path fill="none" d="M15.154,69.434c0.29-0.032,0.533-0.113,0.73-0.246c0.197-0.134,0.354-0.312,0.466-0.536
		c0.114-0.223,0.171-0.454,0.171-0.689c0-0.3-0.088-0.561-0.264-0.783c-0.177-0.221-0.43-0.379-0.758-0.471
		c0.232-0.103,0.417-0.255,0.554-0.458c0.135-0.202,0.204-0.427,0.204-0.669c0-0.226-0.056-0.428-0.166-0.608
		c-0.11-0.181-0.248-0.326-0.414-0.434c-0.165-0.109-0.353-0.181-0.562-0.215s-0.527-0.053-0.954-0.053h-2.155v5.197h1.835
		C14.536,69.464,14.973,69.452,15.154,69.434z M13.096,65.138h0.625c0.512,0,0.822,0.006,0.93,0.017
		c0.182,0.021,0.318,0.082,0.41,0.185c0.092,0.101,0.138,0.229,0.138,0.39c0,0.168-0.053,0.304-0.16,0.406
		c-0.107,0.104-0.253,0.166-0.439,0.188c-0.103,0.011-0.367,0.018-0.79,0.018h-0.713V65.138z M13.096,67.205h0.878
		c0.496,0,0.817,0.024,0.966,0.072c0.148,0.051,0.262,0.13,0.34,0.238c0.078,0.109,0.118,0.242,0.118,0.397
		c0,0.185-0.051,0.33-0.153,0.441c-0.102,0.109-0.233,0.178-0.395,0.207c-0.106,0.021-0.355,0.031-0.746,0.031h-1.008V67.205z"/>
	<polygon fill="none" points="18.328,62.454 19.413,62.454 19.413,60.274 21.395,57.259 20.141,57.259 18.898,59.314 17.63,57.259 
		16.354,57.259 18.328,60.267 	"/>
	<path fill="none" d="M24.99,66.042c-0.096-0.124-0.24-0.224-0.428-0.305c-0.189-0.078-0.397-0.117-0.625-0.117
		c-0.518,0-0.947,0.213-1.287,0.637v-0.553h-0.96v3.765h1.034v-1.704c0-0.421,0.026-0.709,0.079-0.866
		c0.054-0.154,0.151-0.28,0.293-0.376c0.143-0.093,0.303-0.14,0.481-0.14c0.141,0,0.26,0.032,0.359,0.099
		c0.099,0.065,0.17,0.158,0.215,0.278c0.044,0.119,0.066,0.381,0.066,0.788v1.921h1.033v-2.34c0-0.29-0.019-0.514-0.057-0.669
		C25.155,66.304,25.087,66.164,24.99,66.042z"/>
	<path fill="none" d="M21.421,61.619c0.169,0.302,0.416,0.529,0.74,0.687c0.325,0.156,0.667,0.233,1.024,0.233
		c0.578,0,1.059-0.188,1.439-0.563c0.382-0.375,0.573-0.846,0.573-1.415c0-0.563-0.189-1.032-0.567-1.402
		c-0.377-0.369-0.861-0.554-1.451-0.554c-0.383,0-0.729,0.082-1.039,0.245c-0.311,0.163-0.55,0.399-0.719,0.707
		c-0.17,0.311-0.254,0.631-0.254,0.961C21.167,60.952,21.251,61.318,21.421,61.619z M22.502,59.715
		c0.183-0.198,0.41-0.299,0.68-0.299c0.27,0,0.495,0.101,0.679,0.299c0.183,0.197,0.273,0.482,0.273,0.85
		c0,0.379-0.091,0.668-0.273,0.866c-0.184,0.197-0.409,0.297-0.679,0.297c-0.27,0-0.497-0.1-0.68-0.297
		c-0.184-0.198-0.276-0.484-0.276-0.859C22.227,60.2,22.318,59.912,22.502,59.715z"/>
	<path fill="none" d="M20.63,68.231l0.011-1.161c0-0.434-0.045-0.729-0.138-0.893c-0.092-0.162-0.251-0.296-0.476-0.399
		c-0.226-0.106-0.569-0.158-1.029-0.158c-0.508,0-0.89,0.087-1.148,0.261c-0.257,0.177-0.438,0.445-0.544,0.81l0.938,0.163
		c0.064-0.176,0.147-0.297,0.25-0.368c0.103-0.069,0.246-0.103,0.43-0.103c0.272,0,0.457,0.04,0.555,0.121
		c0.099,0.082,0.148,0.219,0.148,0.409v0.1c-0.187,0.076-0.521,0.156-1.004,0.245c-0.358,0.064-0.633,0.143-0.822,0.23
		c-0.19,0.09-0.338,0.217-0.443,0.384c-0.105,0.166-0.158,0.356-0.158,0.569c0,0.32,0.117,0.586,0.347,0.797
		c0.232,0.21,0.548,0.315,0.951,0.315c0.228,0,0.442-0.041,0.643-0.124c0.202-0.083,0.39-0.207,0.567-0.372
		c0.007,0.019,0.02,0.058,0.037,0.116c0.039,0.13,0.072,0.228,0.099,0.295h1.022c-0.09-0.18-0.153-0.348-0.186-0.506
		C20.647,68.807,20.63,68.563,20.63,68.231z M19.627,67.859c0,0.238-0.015,0.4-0.041,0.486c-0.039,0.129-0.122,0.24-0.246,0.328
		c-0.169,0.118-0.348,0.178-0.533,0.178c-0.167,0-0.303-0.051-0.412-0.152c-0.107-0.101-0.161-0.222-0.161-0.361
		c0-0.142,0.067-0.259,0.202-0.352c0.088-0.055,0.276-0.114,0.563-0.173c0.286-0.059,0.496-0.109,0.628-0.152V67.859z"/>
	<path fill="#FFFFFF" d="M65.297,49.69c-0.048-0.563-0.108-1.128-0.185-1.696l-0.151-1.139l-0.656,0.347
		c0.265,0.983,0.147,1.16,0.075,1.267c-0.067,0.101-0.176,0.159-0.295,0.159c-0.036,0-0.069-0.006-0.101-0.015
		c-0.117,0.044-0.16,0.112-0.183,0.162c-0.133,0.289,0.072,0.874,0.233,1.176l0.025,0.046l0.005,0.055l0.531,5.528l0.266,2.755
		c0.167-0.909,0.3-1.828,0.391-2.755h0.044v-0.52c0.073-0.899,0.113-1.807,0.113-2.718C65.41,51.475,65.372,50.588,65.297,49.69z"/>
	<path fill="#FFFFFF" d="M58.914,56.33l-0.098-0.004c0.023,0.174,0.134,0.59,0.585,1.487l0.493,0.071
		c-0.068-0.364-0.134-0.911-0.045-1.377l-0.09,0.108l-0.19-0.097c-0.21-0.105-0.478-0.217-0.655-0.267V56.33z"/>
	<path fill="#FFFFFF" d="M14.85,68.562c0.161-0.029,0.292-0.098,0.395-0.207c0.102-0.111,0.153-0.257,0.153-0.441
		c0-0.155-0.04-0.288-0.118-0.397c-0.078-0.108-0.191-0.188-0.34-0.238c-0.148-0.048-0.47-0.072-0.966-0.072h-0.878v1.388h1.008
		C14.495,68.593,14.744,68.583,14.85,68.562z"/>
	<path fill="#FFFFFF" d="M14.6,66.322c0.186-0.021,0.332-0.084,0.439-0.188c0.107-0.103,0.16-0.238,0.16-0.406
		c0-0.16-0.046-0.289-0.138-0.39c-0.092-0.103-0.228-0.163-0.41-0.185c-0.108-0.011-0.418-0.017-0.93-0.017h-0.625v1.202h0.713
		C14.233,66.34,14.497,66.333,14.6,66.322z"/>
	<path fill="#FFFFFF" d="M18.436,67.986c-0.135,0.093-0.202,0.21-0.202,0.352c0,0.14,0.054,0.261,0.161,0.361
		c0.109,0.102,0.245,0.152,0.412,0.152c0.186,0,0.364-0.06,0.533-0.178c0.125-0.088,0.207-0.199,0.246-0.328
		c0.026-0.086,0.041-0.248,0.041-0.486v-0.198c-0.133,0.043-0.342,0.094-0.628,0.152C18.711,67.872,18.523,67.932,18.436,67.986z"/>
	<path fill="#FFFFFF" d="M23.183,61.728c0.27,0,0.495-0.1,0.679-0.297c0.183-0.198,0.273-0.487,0.273-0.866
		c0-0.367-0.091-0.652-0.273-0.85c-0.184-0.198-0.409-0.299-0.679-0.299c-0.27,0-0.497,0.101-0.68,0.299
		c-0.184,0.197-0.276,0.485-0.276,0.856c0,0.375,0.092,0.661,0.276,0.859C22.686,61.628,22.913,61.728,23.183,61.728z"/>
	<path fill="#FFFFFF" d="M28.016,66.383c-0.249,0-0.452,0.091-0.613,0.276c-0.161,0.187-0.241,0.47-0.241,0.85
		c0,0.398,0.08,0.691,0.241,0.877c0.161,0.186,0.358,0.278,0.594,0.278c0.253,0,0.465-0.095,0.64-0.286
		c0.174-0.188,0.261-0.472,0.261-0.845c0-0.389-0.083-0.679-0.25-0.868C28.48,66.478,28.27,66.383,28.016,66.383z"/>
	<path fill="#FFFFFF" d="M44.314,61.728c0.27,0,0.496-0.1,0.679-0.297c0.183-0.198,0.273-0.487,0.273-0.866
		c0-0.367-0.091-0.652-0.273-0.85c-0.183-0.198-0.409-0.299-0.679-0.299c-0.271,0-0.497,0.101-0.681,0.299
		c-0.184,0.197-0.275,0.485-0.275,0.856c0,0.375,0.092,0.661,0.275,0.859C43.817,61.628,44.044,61.728,44.314,61.728z"/>
	<path fill="#FFFFFF" d="M44.053,66.605c-0.146-0.148-0.325-0.223-0.537-0.223c-0.225,0-0.411,0.078-0.559,0.236
		s-0.219,0.373-0.216,0.646h1.543C44.277,66.977,44.2,66.757,44.053,66.605z"/>
	<path fill="#FFFFFF" d="M2.584,52.282c0,16.659,13.506,30.163,30.166,30.163c15.007,0,27.453-10.959,29.773-25.31
		c-0.59-0.082-0.772-0.455-0.785-0.683c-0.031-0.191-0.064-0.322-0.092-0.41l-0.003,0.006l-0.159,0.003
		c-0.091,0-0.52,0.069-0.878,0.137c-0.379,0.186-0.293,1.264-0.11,1.946l0.104,0.391l-1.55-0.224l-0.063-0.123
		c-0.808-1.577-0.767-2.019-0.64-2.225c0.023-0.039,0.054-0.073,0.089-0.099c0.061-0.094,0.17-0.162,0.336-0.162
		c0.162,0,0.396,0.073,0.6,0.154c-0.042-0.11-0.096-0.233-0.154-0.346c-0.648-1.227-0.83-2.081-0.859-2.24
		c-0.093-0.269-0.026-0.449,0.047-0.554c0.108-0.155,0.288-0.245,0.548-0.271c-0.269-0.218-0.553-0.504-0.712-0.669
		c-0.162-0.109-0.546-0.389-0.453-0.758c0.106-0.422,0.758-0.531,1.034-0.559c0.119-0.015,0.164-0.062,0.186-0.098
		c0.091-0.146,0.033-0.452-0.008-0.569l-0.006-0.024c-0.188-0.778-0.281-2.421-0.314-3.1c-1.649,0.312-2.197,1.243-2.273,1.388
		c-0.234,0.83-0.433,1.139-0.729,1.139c-0.351,0-0.469-0.458-0.509-0.732l-0.003-0.026c-0.078-1.82-1.272-3.126-1.365-3.227
		c-1.651-1.472-1.632-2.228-1.582-2.432c0.012-0.078,0.021-0.15,0.03-0.217l-0.013,0.008c-0.352,0.2-1.162,1.002-1.445,1.294
		l-0.065,0.066l-0.337,0.044c0.553,0.915,0.107,1.598,0.085,1.631l-0.026,0.04l-0.041,0.028c-0.216,0.152-0.459,0.23-0.72,0.23
		c-0.479,0-0.922-0.27-1.209-0.493l-0.168,0.566l-0.311-0.258c-0.269-0.22-0.477-0.267-0.605-0.267
		c-0.104,0-0.163,0.029-0.166,0.031L47.187,45.5l-0.04,0.006c-0.004,0-0.384,0.095-0.565,2.012c-0.098,1.045-0.085,2.08-0.085,2.091
		c0.028,0.625-0.113,1.106-0.42,1.429c-0.552,0.576-1.401,0.387-1.441,0.377l-0.208-0.048v-0.212c0-0.085-0.002-0.156-0.005-0.218
		c-0.168,0.188-0.318,0.234-0.357,0.245l-0.208,0.052l-0.097-0.192c-0.168-0.34-0.343-0.51-0.463-0.594
		c-0.271,0.377-0.68,0.609-0.701,0.62l-0.077,0.043L42.43,51.1c-0.021-0.003-0.04-0.004-0.059-0.004
		c-0.085,0-0.099,0.031-0.101,0.051l-0.008,0.04c-0.607,2.513-2.341,2.784-3.059,2.784c-0.307,0-0.51-0.045-0.533-0.051
		l-0.048-0.016c-0.112-0.05-0.19-0.146-0.214-0.266c-0.036-0.171,0.053-0.38,0.184-0.578c-0.155-0.054-0.277-0.112-0.3-0.125
		l-0.146-0.074v-0.164c0-0.115-0.001-0.214-0.004-0.302c-0.026,0.006-0.053,0.009-0.082,0.009c-0.101,0-0.181-0.039-0.211-0.055
		l-0.055-0.031l-0.036-0.052c-0.302-0.443-0.51-0.704-0.647-0.856c0.083,1.381-0.424,1.828-0.534,1.91
		c-0.175,0.138-0.377,0.209-0.601,0.209c-0.411,0-0.778-0.246-0.961-0.391l0.435,0.688l-0.221,0.144
		c-0.324,0.211-0.621,0.318-0.881,0.318c-0.378,0-0.594-0.23-0.66-0.364l-0.013-0.029c-0.031-0.086-0.128-0.131-0.293-0.131
		c-0.024,0-0.048,0.001-0.067,0.004c-0.542,0.442-1.024,0.669-1.433,0.669c-0.306,0-0.484-0.126-0.555-0.19
		c-0.935-0.635-0.99-2.221-0.949-3.036c-0.248,0.209-0.434,0.517-0.521,0.692c0.154,2.08-0.017,2.556-0.184,2.734
		c-0.073,0.08-0.168,0.123-0.269,0.123c-0.118,0-0.198-0.059-0.227-0.084l-0.021-0.021c-1.267-1.396-1.396-4.971-1.4-5.122
		l-0.002-0.043l0.012-0.041c0.303-1.027,0.043-1.459-0.137-1.544l-0.011-0.004c-1.298-0.619-1.02-1.51-1.007-1.548l0.025-0.076
		l0.062-0.049c0.258-0.205,0.389-0.417,0.388-0.633c0-0.38-0.384-0.694-0.388-0.698l-0.1-0.08v-1.441
		c-0.281-0.204-0.414-0.442-0.397-0.709c0.027-0.408,0.422-0.732,0.745-0.93c-0.564-0.474-0.874-1.024-0.921-1.645
		c-0.071-0.938,0.488-1.788,0.878-2.261c-0.068,0.009-0.132,0.017-0.187,0.024c-0.225,0.361-0.501,0.419-0.653,0.419
		c-0.153,0-0.268-0.056-0.31-0.079c-1.145-0.59-1.384-0.974-1.384-1.195v-0.192l0.158-0.053c0.067-0.062,0.215-0.303,0.333-0.54
		c0-0.387,0.215-0.754,0.305-0.892c-0.068-0.142-0.528-0.423-0.987-0.602c-1.166-0.296-1.445-1.284-1.43-1.787
		c-0.121-1.107,1.071-1.607,1.121-1.628c0.755-0.274,0.805-0.482,0.807-0.49l-0.027-0.026l-0.011-0.032
		c-0.601-1.017-0.251-1.586-0.073-1.784c0.034-0.187,0.013-0.337-0.062-0.446c-0.101-0.15-0.285-0.208-0.361-0.226
		c-0.225,0.04-0.447,0.061-0.663,0.061c-0.872,0-1.373-0.33-1.395-0.345l-0.073-0.049l-0.029-0.083
		c-0.07-0.195-0.501-0.507-0.813-0.686c-0.194,0.024-0.38,0.036-0.552,0.036c-1.465,0-1.701-0.881-1.709-0.919
		c-0.078-0.274-0.184-0.494-0.296-0.671C9.079,30.711,2.584,40.733,2.584,52.282z M50.412,64.271h1.033v1.911
		c0.333-0.374,0.732-0.563,1.195-0.563c0.237,0,0.452,0.041,0.643,0.127c0.191,0.086,0.335,0.194,0.433,0.326
		c0.096,0.133,0.163,0.278,0.198,0.439s0.053,0.41,0.053,0.747v2.209h-1.033V67.48c0-0.395-0.02-0.645-0.06-0.751
		c-0.037-0.106-0.106-0.19-0.206-0.255c-0.101-0.063-0.224-0.092-0.374-0.092c-0.172,0-0.325,0.04-0.459,0.119
		c-0.135,0.081-0.233,0.201-0.297,0.363c-0.063,0.162-0.093,0.401-0.093,0.719v1.885h-1.033V64.271z M47.132,58.689h0.96v0.535
		c0.164-0.252,0.312-0.419,0.443-0.499c0.13-0.08,0.279-0.12,0.445-0.12c0.235,0,0.463,0.063,0.681,0.188l-0.319,0.869
		c-0.174-0.109-0.336-0.164-0.486-0.164c-0.144,0-0.267,0.038-0.367,0.116c-0.101,0.076-0.18,0.215-0.237,0.416
		c-0.057,0.201-0.085,0.622-0.085,1.263v1.161h-1.034V58.689z M47.613,65.62c0.533,0,0.931,0.083,1.19,0.251s0.44,0.416,0.538,0.744
		l-0.976,0.174c-0.041-0.146-0.12-0.26-0.236-0.337s-0.282-0.116-0.498-0.116c-0.272,0-0.467,0.036-0.584,0.109
		c-0.079,0.052-0.118,0.119-0.118,0.202c0,0.07,0.034,0.131,0.103,0.181c0.093,0.066,0.414,0.16,0.965,0.28
		c0.55,0.121,0.935,0.269,1.153,0.442c0.215,0.178,0.322,0.425,0.322,0.74c0,0.347-0.148,0.644-0.448,0.89
		c-0.299,0.249-0.741,0.373-1.327,0.373c-0.531,0-0.953-0.104-1.263-0.313c-0.311-0.208-0.513-0.489-0.608-0.847l1.036-0.152
		c0.045,0.193,0.135,0.341,0.269,0.441c0.136,0.1,0.324,0.15,0.566,0.15c0.268,0,0.469-0.048,0.604-0.143
		c0.09-0.064,0.137-0.153,0.137-0.265c0-0.075-0.025-0.139-0.074-0.188c-0.052-0.046-0.167-0.09-0.346-0.131
		c-0.834-0.176-1.362-0.339-1.584-0.485c-0.31-0.204-0.464-0.486-0.464-0.847c0-0.326,0.133-0.602,0.399-0.822
		C46.638,65.73,47.052,65.62,47.613,65.62z M42.553,59.558c0.17-0.308,0.41-0.544,0.72-0.707c0.309-0.163,0.656-0.245,1.039-0.245
		c0.59,0,1.074,0.185,1.45,0.554c0.379,0.37,0.567,0.839,0.567,1.402c0,0.569-0.19,1.04-0.571,1.415s-0.862,0.563-1.439,0.563
		c-0.358,0-0.7-0.077-1.024-0.233c-0.325-0.157-0.571-0.385-0.741-0.687c-0.17-0.301-0.254-0.667-0.254-1.101
		C42.299,60.188,42.383,59.868,42.553,59.558z M43.454,65.62c0.579,0,1.039,0.185,1.374,0.554c0.337,0.37,0.496,0.938,0.481,1.7
		h-2.587c0.007,0.296,0.09,0.524,0.249,0.688c0.159,0.165,0.358,0.247,0.596,0.247c0.162,0,0.298-0.043,0.408-0.128
		s0.193-0.223,0.249-0.41l1.031,0.166c-0.134,0.363-0.342,0.641-0.627,0.831c-0.286,0.189-0.644,0.285-1.072,0.285
		c-0.679,0-1.182-0.214-1.508-0.641c-0.258-0.344-0.386-0.775-0.386-1.299c0-0.623,0.169-1.111,0.508-1.465
		C42.509,65.797,42.937,65.62,43.454,65.62z M39.542,58.689h0.572v-0.282c0-0.317,0.035-0.553,0.104-0.709
		c0.07-0.156,0.199-0.283,0.387-0.381c0.188-0.099,0.426-0.147,0.711-0.147c0.295,0,0.583,0.043,0.865,0.127l-0.14,0.695
		c-0.164-0.037-0.322-0.057-0.475-0.057c-0.15,0-0.257,0.033-0.322,0.102c-0.064,0.066-0.097,0.196-0.097,0.388v0.265h0.771v0.784
		h-0.771v2.98h-1.034v-2.98h-0.572V58.689z M37.562,66.118c0.313-0.332,0.705-0.498,1.182-0.498c0.436,0,0.814,0.175,1.133,0.524
		v-1.873h1.031v5.197H39.95v-0.553c-0.161,0.215-0.348,0.374-0.565,0.48c-0.217,0.105-0.436,0.157-0.657,0.157
		c-0.447,0-0.833-0.175-1.152-0.522c-0.32-0.348-0.48-0.835-0.48-1.46C37.095,66.935,37.251,66.449,37.562,66.118z M33.223,57.259
		h1.033v1.911c0.334-0.377,0.731-0.564,1.194-0.564c0.239,0,0.453,0.043,0.644,0.127c0.191,0.086,0.335,0.194,0.432,0.326
		c0.098,0.133,0.165,0.278,0.199,0.439c0.035,0.16,0.054,0.41,0.054,0.747v2.209h-1.034v-1.987c0-0.396-0.02-0.646-0.059-0.752
		c-0.037-0.106-0.107-0.19-0.208-0.255c-0.099-0.062-0.222-0.092-0.372-0.092c-0.172,0-0.325,0.04-0.459,0.12
		c-0.136,0.08-0.234,0.2-0.298,0.362c-0.063,0.163-0.093,0.401-0.093,0.719v1.885h-1.033V57.259z M35.109,66.504
		c-0.098-0.081-0.282-0.121-0.556-0.121c-0.185,0-0.326,0.033-0.429,0.103c-0.104,0.071-0.187,0.192-0.251,0.368l-0.938-0.163
		c0.106-0.364,0.287-0.633,0.543-0.81c0.259-0.174,0.641-0.261,1.148-0.261c0.461,0,0.805,0.052,1.029,0.158
		c0.225,0.104,0.385,0.237,0.476,0.399c0.093,0.163,0.138,0.459,0.138,0.893l-0.01,1.161c0,0.331,0.017,0.575,0.049,0.731
		c0.033,0.158,0.095,0.326,0.187,0.506h-1.022c-0.027-0.067-0.06-0.165-0.099-0.295c-0.019-0.059-0.031-0.098-0.037-0.116
		c-0.177,0.165-0.366,0.289-0.566,0.372c-0.201,0.083-0.416,0.124-0.645,0.124c-0.402,0-0.718-0.105-0.949-0.315
		c-0.232-0.211-0.348-0.477-0.348-0.797c0-0.213,0.053-0.403,0.157-0.569c0.106-0.167,0.254-0.294,0.444-0.384
		c0.189-0.088,0.464-0.166,0.821-0.23c0.484-0.089,0.818-0.169,1.005-0.245v-0.1C35.257,66.723,35.208,66.586,35.109,66.504z
		 M32.005,69.469h-1.033v-5.197h1.033V69.469z M30.254,58.689h0.475v-0.747l1.037-0.582v1.329h0.706v0.795h-0.706v1.517
		c0,0.307,0.007,0.487,0.021,0.536c0.012,0.053,0.043,0.094,0.092,0.127c0.047,0.033,0.106,0.05,0.175,0.05
		c0.095,0,0.234-0.033,0.415-0.096l0.088,0.772c-0.24,0.1-0.513,0.148-0.816,0.148c-0.187,0-0.355-0.029-0.504-0.091
		c-0.149-0.06-0.26-0.138-0.329-0.232c-0.07-0.097-0.119-0.227-0.145-0.388c-0.022-0.117-0.033-0.351-0.033-0.704v-1.64h-0.475
		V58.689z M29.912,65.704v3.378c0,0.445-0.038,0.777-0.114,0.996c-0.076,0.22-0.182,0.393-0.32,0.517
		c-0.137,0.127-0.32,0.225-0.55,0.294c-0.229,0.072-0.518,0.108-0.869,0.108c-0.662,0-1.132-0.11-1.408-0.329
		c-0.277-0.218-0.415-0.495-0.415-0.83c0-0.034,0.001-0.074,0.003-0.122l1.18,0.138c0.02,0.134,0.065,0.225,0.136,0.274
		c0.099,0.071,0.253,0.106,0.463,0.106c0.27,0,0.472-0.04,0.607-0.117c0.09-0.052,0.159-0.137,0.205-0.251
		c0.033-0.083,0.049-0.236,0.049-0.458v-0.549c-0.31,0.407-0.699,0.609-1.17,0.609c-0.523,0-0.94-0.215-1.246-0.643
		c-0.24-0.337-0.36-0.757-0.36-1.262c0-0.63,0.157-1.112,0.472-1.445c0.314-0.333,0.706-0.499,1.174-0.499
		c0.483,0,0.881,0.203,1.196,0.612v-0.528H29.912z M26.021,58.689h1.034v1.729c0,0.53,0.019,0.854,0.057,0.974
		s0.107,0.215,0.208,0.284c0.1,0.069,0.228,0.104,0.383,0.104c0.176,0,0.334-0.046,0.473-0.14c0.141-0.093,0.236-0.209,0.288-0.347
		s0.077-0.478,0.077-1.017v-1.588h1.033v3.765h-0.96v-0.563c-0.142,0.201-0.329,0.358-0.561,0.475
		c-0.231,0.117-0.476,0.174-0.733,0.174c-0.262,0-0.497-0.056-0.706-0.166c-0.209-0.112-0.359-0.267-0.453-0.468
		c-0.092-0.2-0.139-0.479-0.139-0.833V58.689z M19.844,69.469c-0.027-0.067-0.06-0.165-0.099-0.295
		c-0.017-0.059-0.03-0.098-0.037-0.116c-0.177,0.165-0.365,0.289-0.567,0.372c-0.201,0.083-0.415,0.124-0.643,0.124
		c-0.403,0-0.719-0.105-0.951-0.315c-0.23-0.211-0.347-0.477-0.347-0.797c0-0.213,0.053-0.403,0.158-0.569
		c0.105-0.167,0.253-0.294,0.443-0.384c0.189-0.088,0.463-0.166,0.822-0.23c0.483-0.089,0.817-0.169,1.004-0.245v-0.1
		c0-0.19-0.049-0.327-0.148-0.409c-0.098-0.081-0.283-0.121-0.555-0.121c-0.184,0-0.327,0.033-0.43,0.103
		c-0.104,0.071-0.187,0.192-0.25,0.368l-0.938-0.163c0.106-0.364,0.287-0.633,0.544-0.81c0.258-0.174,0.64-0.261,1.148-0.261
		c0.46,0,0.804,0.052,1.029,0.158c0.225,0.104,0.384,0.237,0.476,0.399c0.092,0.163,0.138,0.459,0.138,0.893l-0.011,1.161
		c0,0.331,0.017,0.575,0.049,0.731c0.033,0.158,0.096,0.326,0.186,0.506H19.844z M25.249,69.469h-1.033v-1.921
		c0-0.407-0.021-0.669-0.066-0.788c-0.044-0.12-0.116-0.213-0.215-0.278c-0.1-0.066-0.219-0.099-0.359-0.099
		c-0.178,0-0.338,0.047-0.481,0.14c-0.142,0.096-0.239,0.222-0.293,0.376c-0.052,0.157-0.079,0.445-0.079,0.866v1.704h-1.034v-3.765
		h0.96v0.553c0.34-0.424,0.77-0.637,1.287-0.637c0.227,0,0.436,0.039,0.625,0.117c0.188,0.081,0.332,0.181,0.428,0.305
		c0.098,0.122,0.165,0.262,0.203,0.418c0.038,0.155,0.057,0.379,0.057,0.669V69.469z M22.141,58.851
		c0.31-0.163,0.656-0.245,1.039-0.245c0.59,0,1.074,0.185,1.451,0.554c0.378,0.37,0.567,0.839,0.567,1.402
		c0,0.569-0.191,1.04-0.573,1.415c-0.38,0.375-0.861,0.563-1.439,0.563c-0.358,0-0.699-0.077-1.024-0.233
		c-0.324-0.157-0.571-0.385-0.74-0.687c-0.17-0.301-0.254-0.667-0.254-1.101c0-0.33,0.084-0.65,0.254-0.961
		C21.591,59.25,21.83,59.014,22.141,58.851z M17.63,57.259l1.268,2.056l1.243-2.056h1.254l-1.981,3.016v2.18h-1.085v-2.188
		l-1.974-3.008H17.63z M12.007,64.271h2.155c0.426,0,0.744,0.019,0.954,0.053s0.397,0.105,0.562,0.215
		c0.166,0.107,0.304,0.253,0.414,0.434c0.11,0.181,0.166,0.383,0.166,0.608c0,0.242-0.069,0.467-0.204,0.669
		c-0.136,0.203-0.322,0.355-0.554,0.458c0.328,0.092,0.581,0.25,0.758,0.471c0.176,0.223,0.264,0.483,0.264,0.783
		c0,0.235-0.057,0.467-0.171,0.689c-0.113,0.225-0.27,0.402-0.466,0.536c-0.198,0.133-0.44,0.214-0.73,0.246
		c-0.181,0.019-0.619,0.03-1.312,0.035h-1.835V64.271z"/>
	<path fill="#FFFFFF" d="M34.065,67.986c-0.135,0.093-0.203,0.21-0.203,0.352c0,0.14,0.054,0.261,0.162,0.361
		c0.107,0.102,0.244,0.152,0.411,0.152c0.187,0,0.365-0.06,0.534-0.178c0.125-0.088,0.207-0.199,0.246-0.328
		c0.027-0.086,0.041-0.248,0.041-0.486v-0.198c-0.133,0.043-0.342,0.094-0.629,0.152S34.153,67.932,34.065,67.986z"/>
	<path fill="#FFFFFF" d="M39.021,68.767c0.238,0,0.441-0.097,0.607-0.292c0.167-0.195,0.25-0.485,0.25-0.874
		c0-0.432-0.08-0.743-0.242-0.935c-0.163-0.188-0.369-0.283-0.622-0.283c-0.245,0-0.45,0.092-0.615,0.28
		c-0.166,0.188-0.248,0.469-0.248,0.842c0,0.401,0.057,0.692,0.173,0.872C38.49,68.638,38.723,68.767,39.021,68.767z"/>
	<path fill="#FFFFFF" d="M63.423,57.219c-2.346,14.815-15.208,26.18-30.673,26.18c-17.125,0-31.058-13.932-31.058-31.056
		c0-11.446,6.397-21.942,16.288-27.311c-0.051-0.027-0.085-0.042-0.091-0.044c-0.57-0.193-0.947-0.351-1.194-0.489
		c-0.239-0.134-0.354-0.251-0.398-0.365c-0.177,0.104-0.353,0.208-0.528,0.314c-3.795,2.309-7.091,5.378-9.702,9.068
		C2.157,39.04,0.09,45.55,0.09,52.343c0,8.723,3.398,16.924,9.566,23.093C15.825,81.604,24.026,85,32.75,85
		s16.926-3.396,23.095-9.564c4.678-4.68,7.762-10.528,8.979-16.888l-0.313-0.086C63.979,58.315,63.61,57.649,63.423,57.219z"/>
</g>
</svg>
