<?xml version="1.0" encoding="utf-8"?>
<!-- Generator: Adobe Illustrator 16.0.0, SVG Export Plug-In . SVG Version: 6.00 Build 0)  -->
<!DOCTYPE svg PUBLIC "-//W3C//DTD SVG 1.1//EN" "http://www.w3.org/Graphics/SVG/1.1/DTD/svg11.dtd">
<svg version="1.1" id="Layer_1" xmlns="http://www.w3.org/2000/svg" xmlns:xlink="http://www.w3.org/1999/xlink" x="0px" y="0px"
	 width="65.5px" height="85px" viewBox="0 0 65.5 85" enable-background="new 0 0 65.5 85" xml:space="preserve">
<g>
	<polygon fill="none" points="33.513,4.909 33.921,4.909 33.921,4.909 	"/>
	<polygon fill="none" points="34.61,6.55 35.11,6.55 35.11,6.55 	"/>
	<rect x="61.942" y="4.314" fill="none" width="0" height="1.191"/>
	<rect x="58.963" y="23.003" fill="none" width="0" height="1.645"/>
	<rect x="62.539" y="4.909" fill="none" width="0" height="1.641"/>
	<rect x="62.539" y="8.195" fill="none" width="0" height="1.646"/>
	<polygon fill="none" points="32.726,4.909 33.103,4.909 33.103,4.909 	"/>
	<rect x="35.11" y="6.551" fill="none" width="0.004" height="1.102"/>
	<polygon fill="none" points="35.112,14.236 35.11,14.241 35.11,14.778 35.112,14.778 35.112,14.781 35.947,14.781 35.949,14.775 
		35.112,14.775 	"/>
	<polygon fill="none" points="36.306,11.487 37.496,11.487 37.496,11.487 38.688,11.487 38.688,13.132 38.688,13.132 38.688,11.487 
		39.881,11.487 39.881,13.132 38.688,13.132 38.688,13.132 39.881,13.132 39.881,13.132 39.881,11.487 41.076,11.487 41.076,13.132 
		41.076,13.132 41.076,11.487 42.271,11.487 42.271,9.844 42.267,9.844 42.267,11.487 41.076,11.487 41.076,11.487 39.881,11.487 
		39.881,11.487 38.688,11.487 38.688,11.487 37.496,11.487 37.496,11.487 36.306,11.487 36.306,11.487 35.414,11.487 35.414,11.487 
			"/>
	<rect x="62.539" y="14.781" fill="none" width="0" height="1.64"/>
	<polygon fill="none" points="28.237,4.909 29.146,4.909 29.146,4.909 	"/>
	<rect x="61.942" y="14.184" fill="none" width="0.002" height="1.191"/>
	<polygon fill="none" points="36.306,8.195 37.496,8.195 37.496,8.195 38.688,8.195 38.688,9.841 38.688,9.841 38.688,8.195 
		39.881,8.195 39.881,9.841 38.688,9.841 38.688,9.841 39.881,9.841 39.881,9.841 39.881,8.195 41.076,8.195 41.076,9.841 
		41.076,9.841 41.076,8.195 42.267,8.195 42.271,8.195 42.271,6.553 42.267,6.553 42.267,8.195 41.076,8.195 39.881,8.195 
		38.688,8.195 38.688,8.195 37.496,8.195 36.306,8.195 35.392,8.195 35.39,8.195 	"/>
	<rect x="61.942" y="10.891" fill="none" width="0" height="1.191"/>
	<rect x="62.539" y="11.487" fill="none" width="0" height="1.645"/>
	<rect x="34.517" y="2.667" fill="none" width="0" height="1.19"/>
	<polygon fill="none" points="36.306,6.55 37.496,6.55 37.496,6.55 	"/>
	<polygon fill="none" points="36.306,3.262 37.496,3.262 37.496,3.262 	"/>
	<polygon fill="none" points="17.282,13.132 18.413,13.132 18.413,13.132 	"/>
	<rect x="42.862" y="4.316" fill="none" width="0" height="1.188"/>
	<polygon fill="none" points="36.306,9.841 37.496,9.841 37.496,9.841 	"/>
	<polygon fill="none" points="42.271,14.778 42.271,13.132 42.267,13.132 42.267,14.778 41.076,14.778 41.076,14.775 39.881,14.775 
		39.881,14.778 38.688,14.778 38.688,14.775 37.496,14.775 37.496,14.778 36.306,14.778 36.306,14.775 36.25,14.775 36.261,14.781 
		36.306,14.781 36.306,14.778 37.496,14.778 37.496,14.781 38.688,14.781 38.688,15.668 38.688,15.668 38.688,14.778 39.881,14.778 
		39.881,15.938 39.881,15.938 39.881,14.781 41.076,14.781 41.076,16.145 41.076,16.145 41.076,14.778 	"/>
	<polygon fill="none" points="19.608,16.42 20.798,16.42 20.798,16.42 	"/>
	<path fill="none" d="M26.765,15.471L26.765,15.471c0-0.005,0-0.007,0-0.01v0.021C26.765,15.475,26.765,15.475,26.765,15.471z"/>
	<polygon fill="none" points="50.617,36.157 51.256,36.157 51.256,36.157 	"/>
	<polygon fill="none" points="21.304,1.618 21.994,1.618 21.994,1.618 23.187,1.618 23.187,1.618 24.375,1.618 24.375,3.262 
		24.378,3.262 24.378,1.618 25.569,1.618 25.569,3.262 24.378,3.262 24.378,3.262 25.569,3.262 25.569,3.262 25.569,1.618 
		26.765,1.618 26.765,3.182 26.765,3.182 26.765,1.618 27.959,1.618 27.959,1.618 29.146,1.618 29.146,1.618 30.343,1.618 
		30.343,1.618 31.532,1.618 31.532,1.618 32.726,1.618 32.726,1.618 33.921,1.618 33.921,1.618 35.112,1.618 35.112,1.618 
		36.306,1.618 36.306,1.618 37.496,1.618 37.496,1.618 38.688,1.618 38.688,3.262 38.688,3.262 38.688,1.618 39.881,1.618 
		39.881,3.262 38.688,3.262 38.688,3.262 39.881,3.262 39.881,3.262 39.881,1.618 41.076,1.618 41.076,3.262 41.076,3.262 
		41.076,1.618 42.271,1.618 42.271,1.618 43.457,1.618 43.457,1.618 44.651,1.618 44.651,1.618 45.842,1.618 45.842,1.618 
		47.037,1.618 47.037,1.618 48.229,1.618 48.229,3.262 48.229,3.262 48.229,1.618 49.422,1.618 49.422,1.618 50.617,1.618 
		50.617,1.618 51.808,1.618 51.808,1.618 52.998,1.618 52.998,1.618 54.192,1.618 54.192,3.262 52.998,3.262 52.998,3.262 
		54.192,3.262 54.192,4.908 52.998,4.908 52.998,4.908 51.808,4.908 51.808,4.908 50.617,4.908 50.617,4.908 49.422,4.908 
		49.422,3.262 49.418,3.262 49.418,4.909 49.422,4.909 49.422,4.909 50.617,4.909 50.617,4.909 51.808,4.909 51.808,4.909 
		52.998,4.909 52.998,4.909 54.192,4.909 54.192,6.55 52.998,6.55 52.998,6.55 54.192,6.55 54.192,8.195 52.998,8.195 51.808,8.195 
		50.617,8.195 49.422,8.195 49.422,6.55 49.418,6.55 49.418,8.195 49.422,8.195 50.617,8.195 51.808,8.195 52.998,8.195 
		54.192,8.195 54.192,9.841 52.998,9.841 52.998,9.841 54.192,9.841 54.192,11.487 52.998,11.487 52.998,11.487 51.808,11.487 
		51.808,11.487 50.617,11.487 50.617,11.487 49.422,11.487 49.422,9.841 49.418,9.841 49.418,11.487 49.422,11.487 49.422,11.487 
		50.617,11.487 50.617,11.487 51.808,11.487 51.808,11.487 52.998,11.487 52.998,11.487 54.192,11.487 54.192,13.132 52.998,13.132 
		52.998,13.132 54.192,13.132 54.192,14.778 52.998,14.778 52.998,14.775 51.808,14.775 51.808,14.778 50.617,14.778 50.617,14.775 
		49.422,14.775 49.422,13.132 49.418,13.132 49.418,14.778 49.422,14.778 49.422,14.781 50.617,14.781 50.617,14.778 51.808,14.778 
		51.808,14.781 52.998,14.781 52.998,14.778 54.192,14.778 54.192,15.629 54.192,15.629 54.192,14.781 55.383,14.781 55.383,14.778 
		56.58,14.778 56.58,14.778 55.383,14.778 55.383,14.775 54.192,14.775 54.192,13.132 54.192,13.132 54.192,11.487 55.383,11.487 
		55.383,11.487 56.58,11.487 56.58,11.487 55.383,11.487 55.383,11.487 54.192,11.487 54.192,9.841 54.192,9.841 54.192,8.195 
		55.383,8.195 56.58,8.195 56.58,8.195 55.383,8.195 54.192,8.195 54.192,6.55 54.192,6.55 54.192,4.909 55.383,4.909 55.383,4.909 
		56.58,4.909 56.58,4.908 55.383,4.908 55.383,4.908 54.192,4.908 54.192,3.262 54.192,3.262 54.192,1.618 55.383,1.618 
		55.383,1.618 56.58,1.618 56.58,1.618 57.769,1.618 57.769,1.618 58.963,1.618 58.963,1.618 60.156,1.618 60.156,1.618 
		61.349,1.618 61.349,1.618 62.539,1.618 62.539,3.262 62.539,3.262 62.539,1.618 63.728,1.618 63.728,1.609 21.3,1.609 	"/>
	<rect x="27.959" y="3.262" fill="none" width="0" height="0.653"/>
	<rect x="58.963" y="29.579" fill="none" width="0" height="1.127"/>
	<polygon fill="none" points="39.881,4.908 38.688,4.908 38.688,4.908 37.496,4.908 37.496,4.908 36.306,4.908 36.306,4.908 
		35.112,4.908 35.112,3.262 35.11,3.262 35.11,4.909 35.112,4.909 35.112,4.909 36.306,4.909 36.306,4.909 37.496,4.909 
		37.496,4.909 38.688,4.909 38.688,6.55 38.688,6.55 38.688,4.909 39.881,4.909 39.881,6.55 38.688,6.55 38.688,6.55 39.881,6.55 
		39.881,6.55 39.881,4.909 41.076,4.909 41.076,6.55 41.076,6.55 41.076,4.909 42.271,4.909 42.271,3.262 42.267,3.262 
		42.267,4.908 41.076,4.908 41.076,4.908 	"/>
	<rect x="20.204" y="12.537" fill="none" width="0" height="1.19"/>
	<polygon fill="none" points="58.963,27.936 60.156,27.936 60.156,27.936 	"/>
	<rect x="61.942" y="27.341" fill="none" width="0" height="1.191"/>
	<rect x="61.942" y="30.626" fill="none" width="0" height="1.191"/>
	<rect x="62.539" y="37.804" fill="none" width="0" height="1.641"/>
	<rect x="57.174" y="10.893" fill="none" width="0" height="1.188"/>
	<rect x="62.539" y="34.514" fill="none" width="0" height="1.643"/>
	<polygon fill="none" points="57.769,3.262 57.769,4.909 57.769,4.909 57.769,3.262 	"/>
	<rect x="57.174" y="4.316" fill="none" width="0" height="1.188"/>
	<rect x="61.942" y="37.208" fill="none" width="0" height="1.191"/>
	<rect x="57.173" y="14.186" fill="none" width="0.002" height="1.188"/>
	<polygon fill="none" points="58.963,24.648 60.156,24.648 60.156,24.648 	"/>
	<rect x="59.72" y="21.354" fill="none" width="0.438" height="0.003"/>
	<rect x="58.963" y="14.778" fill="none" width="1.193" height="0.002"/>
	<polygon fill="none" points="59.998,31.222 60.156,31.222 60.156,31.222 	"/>
	<rect x="62.539" y="18.066" fill="none" width="0" height="1.64"/>
	<rect x="58.963" y="13.132" fill="none" width="0" height="1.646"/>
	<polygon fill="none" points="62.013,18.066 62.539,18.066 62.539,18.066 	"/>
	<rect x="48.229" y="14.781" fill="none" width="0" height="0.818"/>
	<rect x="62.539" y="31.222" fill="none" width="0" height="1.648"/>
	<rect x="58.963" y="6.553" fill="none" width="0" height="1.642"/>
	<polygon fill="none" points="58.963,11.487 60.156,11.487 60.156,11.487 	"/>
	<rect x="62.539" y="21.357" fill="none" width="0" height="1.646"/>
	<polygon fill="none" points="58.963,4.909 60.156,4.909 60.156,4.909 	"/>
	<rect x="58.963" y="3.262" fill="none" width="0" height="1.647"/>
	<rect x="62.539" y="24.648" fill="none" width="0" height="1.641"/>
	<rect x="61.942" y="20.76" fill="none" width="0.002" height="1.191"/>
	<polygon fill="none" points="57.769,9.844 57.769,11.487 57.769,11.487 57.769,9.841 57.769,9.841 	"/>
	<polygon fill="none" points="57.769,6.553 57.769,8.195 57.769,8.195 57.769,6.553 	"/>
	<rect x="42.862" y="10.893" fill="none" width="0" height="1.188"/>
	<rect x="61.942" y="24.052" fill="none" width="0" height="1.191"/>
	<rect x="58.963" y="9.844" fill="none" width="0" height="1.644"/>
	<rect x="62.539" y="27.936" fill="none" width="0" height="1.643"/>
	<polygon fill="none" points="57.769,13.132 57.769,14.778 57.769,14.778 57.769,13.132 	"/>
	<rect x="30.937" y="4.315" fill="none" width="0" height="1.189"/>
	<polygon fill="none" points="25.569,14.778 24.375,14.778 24.375,14.775 23.187,14.775 23.187,14.778 21.994,14.778 21.994,14.775 
		20.799,14.775 20.799,13.132 20.799,13.132 20.799,14.778 19.608,14.778 19.608,14.775 18.413,14.775 18.413,14.778 18.413,14.781 
		19.608,14.781 19.608,14.778 20.799,14.778 20.799,14.781 21.994,14.781 21.994,14.778 23.187,14.778 23.187,14.781 24.375,14.781 
		24.375,16.42 24.378,16.42 24.378,14.778 25.569,14.778 25.569,16.049 25.569,16.049 25.569,14.781 25.646,14.781 25.646,14.775 
		25.569,14.775 	"/>
	<rect x="57.174" y="27.343" fill="none" width="0" height="1.188"/>
	<polygon fill="none" points="56.58,31.222 56.629,31.222 56.629,31.222 	"/>
	<polygon fill="none" points="17.282,6.55 18.413,6.55 18.413,6.55 	"/>
	<polygon fill="none" points="17.282,9.841 17.948,9.841 17.948,9.841 	"/>
	<polygon fill="none" points="19.608,11.487 18.413,11.487 18.413,11.487 18.413,11.487 19.608,11.487 19.608,11.487 20.74,11.487 
		20.74,11.487 	"/>
	<polygon fill="none" points="57.25,31.222 57.769,31.222 57.769,31.222 	"/>
	<rect x="45.246" y="14.185" fill="none" width="0.002" height="1.189"/>
	<polygon fill="none" points="21.994,13.132 22.456,13.132 22.456,13.132 	"/>
	<polygon fill="none" points="57.769,29.579 57.769,31.222 57.769,31.222 57.769,29.579 	"/>
	<polygon fill="none" points="27.086,4.909 27.386,4.909 27.386,4.908 27.075,4.908 	"/>
	<polygon fill="none" points="17.282,3.262 18.413,3.262 18.413,3.262 	"/>
	<polygon fill="none" points="18.413,1.618 18.413,1.618 19.608,1.618 19.608,1.618 20.209,1.618 20.214,1.609 17.282,1.609 
		17.282,1.618 	"/>
	<polygon fill="none" points="57.33,24.648 57.769,24.648 57.769,24.648 	"/>
	<polygon fill="none" points="50.617,29.579 51.806,29.579 51.806,29.579 	"/>
	<polygon fill="none" points="19.608,3.262 20.233,3.262 20.233,3.262 	"/>
	<polygon fill="none" points="50.617,32.87 51.806,32.87 51.806,32.87 	"/>
	<polygon fill="none" points="57.769,26.289 57.769,27.936 57.769,27.936 57.769,26.289 	"/>
	<rect x="20.799" y="3.262" fill="none" width="0" height="0.949"/>
	<polygon fill="none" points="19.608,4.908 18.413,4.908 18.413,4.909 18.413,4.909 19.608,4.909 19.608,4.909 20.36,4.909 
		20.36,4.908 	"/>
	<rect x="57.769" y="23.932" fill="none" width="0" height="0.716"/>
	<path fill="none" d="M54.192,32.87L54.192,32.87v-1.648h1.189l0,0h1.197l0,0h-1.197l0,0h-1.189v-1.643l0,0v-1.643h1.189l0,0h1.197
		l0,0h-1.197l0,0h-1.189v-1.382l0,0v1.382h-1.194l0,0h-1.19l0,0h-0.4l0,0h0.4l0,0h1.19l0,0h1.194v1.643h-1.194l0,0h1.194v1.643
		h-1.194l0,0h-1.19l0,0h-1.189l0,0h-1.195V30.92h-0.004v0.302h0.004l0,0h1.195l0,0h1.189l0,0h1.19l0,0h1.194V32.87h-1.194l0,0
		H54.192v1.644h-1.194h-1.19h-1.189h-0.396l0,0h0.396h1.189h1.19h1.194v1.643h-1.194l0,0h1.194v1.647h-1.194l0,0h-0.403l0,0h0.403
		l0,0h1.194v0.362l0,0v-0.362h0.716c0,0,0,0,0.006,0h-0.722v-1.647l0,0v-1.643h0.683l0,0h-0.683V32.87z"/>
	<polygon fill="none" points="20.292,3.262 20.799,3.262 20.799,3.262 	"/>
	<rect x="42.862" y="14.186" fill="none" width="0.002" height="1.188"/>
	<polygon fill="none" points="50.617,9.841 51.806,9.841 51.806,9.841 	"/>
	<polygon fill="none" points="20.799,16.42 20.799,16.42 20.799,18.066 19.608,18.066 19.608,18.066 18.413,18.066 18.413,18.066 
		18.413,18.066 19.608,18.066 19.608,18.066 20.799,18.066 20.799,18.066 21.487,18.066 21.487,18.066 20.799,18.066 	"/>
	<rect x="47.633" y="14.183" fill="none" width="0.003" height="1.193"/>
	<rect x="48.229" y="8.195" fill="none" width="0" height="1.646"/>
	<rect x="45.247" y="4.315" fill="none" width="0" height="1.189"/>
	<rect x="17.282" y="19.706" fill="none" width="1.131" height="0.005"/>
	<rect x="48.824" y="9.247" fill="none" width="0" height="1.188"/>
	<rect x="48.824" y="2.668" fill="none" width="0" height="1.188"/>
	<polygon fill="none" points="50.617,3.262 51.806,3.262 51.806,3.262 	"/>
	<rect x="48.229" y="4.909" fill="none" width="0" height="1.641"/>
	<rect x="48.824" y="5.956" fill="none" width="0" height="1.188"/>
	<rect x="47.634" y="4.313" fill="none" width="0" height="1.193"/>
	<polygon fill="none" points="50.617,6.55 51.806,6.55 51.806,6.55 	"/>
	<rect x="19.606" y="19.706" fill="none" width="0.817" height="0.006"/>
	<polygon fill="none" points="24.378,16.42 24.862,16.42 24.862,16.42 	"/>
	<polygon fill="none" points="36.306,13.132 37.496,13.132 37.496,13.132 	"/>
	<rect x="47.634" y="10.89" fill="none" width="0" height="1.193"/>
	<rect x="45.247" y="10.892" fill="none" width="0" height="1.189"/>
	<polygon fill="none" points="50.617,13.132 51.806,13.132 51.806,13.132 	"/>
	<polygon fill="none" points="17.282,16.42 18.413,16.42 18.413,16.42 	"/>
	<rect x="58.963" y="26.289" fill="none" width="0" height="1.647"/>
	<rect x="48.229" y="11.487" fill="none" width="0" height="1.645"/>
	<rect x="48.824" y="12.538" fill="none" width="0" height="1.188"/>
	<polygon fill="#EB2329" points="18.413,1.618 18.413,1.618 17.282,1.618 17.282,3.262 18.413,3.262 	"/>
	<path fill="#EB2329" d="M19.608,1.618v1.644h0.625c-0.428-0.544-0.246-1.195-0.024-1.644H19.608L19.608,1.618z"/>
	<path fill="#EB2329" d="M20.799,2.829c-0.261,0.057-0.438,0.325-0.507,0.433h0.507V2.829z"/>
	<path fill="#EB2329" d="M23.187,1.618h-1.192l0,0v0.681c0.177,0.134,0.312,0.214,0.312,0.214h0.49
		c0.02,0.103,0.172,0.286,0.393,0.494V1.618H23.187z"/>
	<rect x="24.378" y="1.618" fill="#EB2329" width="1.191" height="1.644"/>
	<path fill="#EB2329" d="M27.959,1.618L27.959,1.618L27.959,1.618h-1.194v1.564c0.008,0,0.012,0.003,0.012,0.003
		c0.164,0.004,0.311,0.032,0.443,0.076h0.739V1.618z"/>
	<polygon fill="#EB2329" points="29.146,3.262 29.146,3.262 30.337,3.262 30.337,1.618 30.343,1.618 30.343,1.618 29.146,1.618 
		29.146,1.618 29.146,1.618 	"/>
	<polygon fill="#EB2329" points="35.11,3.262 35.11,1.618 35.112,1.618 35.112,1.618 33.921,1.618 33.921,1.618 33.921,3.262 	"/>
	<polygon fill="#EB2329" points="36.306,3.262 37.496,3.262 37.496,1.618 37.496,1.618 37.496,1.618 36.306,1.618 36.306,1.618 
		36.306,1.618 	"/>
	<rect x="38.688" y="1.618" fill="#EB2329" width="1.191" height="1.644"/>
	<polygon fill="#EB2329" points="43.459,3.262 43.459,3.262 44.651,3.262 44.651,1.618 44.651,1.618 44.651,1.618 43.457,1.618 
		43.457,1.618 43.459,1.618 	"/>
	<polygon fill="#EB2329" points="49.418,1.618 49.422,1.618 49.422,1.618 48.229,1.618 48.229,3.262 49.418,3.262 	"/>
	<polygon fill="#EB2329" points="51.808,3.262 51.808,1.618 51.808,1.618 50.617,1.618 50.617,1.618 50.617,3.262 	"/>
	<polygon fill="#EB2329" points="54.192,3.262 54.192,1.618 52.998,1.618 52.998,1.618 52.998,3.262 	"/>
	<polygon fill="#EB2329" points="55.383,3.262 56.58,3.262 56.58,3.262 56.58,1.618 56.58,1.618 55.383,1.618 55.383,1.618 	"/>
	<polygon fill="#EB2329" points="57.769,3.262 57.769,3.262 57.769,3.262 58.963,3.262 58.963,1.618 58.963,1.618 58.963,1.618 
		57.769,1.618 57.769,1.618 	"/>
	<polygon fill="#EB2329" points="62.539,3.262 62.539,3.262 62.539,3.262 63.728,3.262 63.728,1.618 62.539,1.618 	"/>
	<rect x="18.413" y="3.262" fill="#EB2329" width="1.195" height="1.646"/>
	<path fill="#EB2329" d="M20.799,4.211c0.403-0.341,0.894-0.319,0.894-0.319l0.089-0.207c-0.087-0.169-0.171-0.307-0.251-0.422H20.8
		L20.799,4.211L20.799,4.211z"/>
	<rect x="24.376" y="3.261" fill="#EB2329" width="0" height="0.003"/>
	<path fill="#EB2329" d="M23.466,3.262c0.283,0.245,0.613,0.512,0.909,0.739V3.262H23.466z"/>
	<path fill="#EB2329" d="M25.569,4.619c0.482,0.049,0.975,0.269,0.975,0.269l0.221,0.007V4.133
		c-0.111-0.106-0.195-0.183-0.195-0.183c-0.771-0.166-0.872-0.452-0.776-0.688h-0.222v1.357H25.569z"/>
	<rect x="30.343" y="3.262" fill="#EB2329" width="1.189" height="1.647"/>
	<polygon fill="#EB2329" points="31.532,3.262 32.724,3.262 32.724,3.262 32.724,1.618 32.726,1.618 32.726,1.618 31.532,1.618 
		31.532,1.618 	"/>
	<path fill="#EB2329" d="M33.921,3.262h-1.195v1.647h0.377c0.174-0.147,0.41-0.167,0.41-0.167v0.167h0.408V3.262z"/>
	<rect x="35.112" y="3.262" fill="#EB2329" width="1.191" height="1.646"/>
	<rect x="37.496" y="3.262" fill="#EB2329" width="1.192" height="1.646"/>
	<polygon fill="#EB2329" points="38.688,3.262 38.688,3.262 38.688,3.262 	"/>
	<polygon fill="#EB2329" points="41.076,4.908 41.076,3.262 41.076,3.262 42.267,3.262 42.267,1.618 42.271,1.618 42.271,1.618 
		41.076,1.618 41.076,3.262 41.076,3.262 41.076,3.262 39.881,3.262 39.881,4.908 	"/>
	<polygon fill="#EB2329" points="43.457,4.909 43.457,4.909 43.459,4.909 43.459,4.909 43.459,3.262 42.271,3.262 42.271,4.909 	"/>
	<rect x="44.651" y="3.262" fill="#EB2329" width="1.189" height="1.647"/>
	<polygon fill="#EB2329" points="45.842,3.262 47.037,3.262 47.037,3.262 47.037,1.618 47.037,1.618 45.842,1.618 45.842,1.618 	"/>
	<rect x="47.037" y="3.262" fill="#EB2329" width="1.192" height="1.647"/>
	<polygon fill="#EB2329" points="48.229,3.262 48.229,3.262 48.229,3.262 	"/>
	<rect x="49.422" y="3.262" fill="#EB2329" width="1.195" height="1.646"/>
	<rect x="51.808" y="3.262" fill="#EB2329" width="1.19" height="1.646"/>
	<polygon fill="#EB2329" points="55.383,3.262 54.192,3.262 54.192,4.908 55.383,4.908 	"/>
	<polygon fill="#EB2329" points="57.769,3.262 56.58,3.262 56.58,4.908 56.58,4.909 57.769,4.909 	"/>
	<rect x="58.963" y="3.262" fill="#EB2329" width="1.193" height="1.647"/>
	<polygon fill="#EB2329" points="60.156,3.262 61.349,3.262 61.349,3.262 61.349,1.618 61.349,1.618 60.156,1.618 60.156,1.618 	"/>
	<rect x="61.349" y="3.262" fill="#EB2329" width="1.19" height="1.647"/>
	<rect x="17.282" y="4.909" fill="#EB2329" width="1.131" height="1.641"/>
	<path fill="#EB2329" d="M19.608,4.909v0.787c0.049-0.012,0.08-0.018,0.08-0.018c0.756-0.149,0.582-0.266,0.582-0.266
		c0.012-0.189,0.047-0.36,0.09-0.504L19.608,4.909L19.608,4.909z"/>
	<path fill="#EB2329" d="M27.356,4.917c0.016,0,0.024-0.002,0.029-0.007h-0.301L27.356,4.917z"/>
	<path fill="#EB2329" d="M29.146,4.909L29.146,4.909L29.146,4.909V3.262h-1.188v0.653c0.169,0.321,0.243,0.684,0.277,0.994H29.146
		L29.146,4.909z"/>
	<path fill="#EB2329" d="M30.337,4.909h-1.189v1.555c0.06,0.029,0.121,0.057,0.183,0.086h1.008L30.337,4.909L30.337,4.909z"/>
	<path fill="#EB2329" d="M31.532,4.909V6.55h1.191l0,0V6.354c-0.424-0.417-0.199-0.692,0-0.835v-0.61H31.532L31.532,4.909z"/>
	<polygon fill="#EB2329" points="35.11,4.909 35.112,4.909 35.112,4.909 	"/>
	<path fill="#EB2329" d="M35.11,4.909h-1.189v0.866c0.323,0.241,0.727,0.458,0.727,0.458c-0.035,0.098-0.045,0.206-0.035,0.317h0.5
		V4.909H35.11z"/>
	<polygon fill="#EB2329" points="36.306,6.55 37.496,6.55 37.496,4.909 37.496,4.909 37.496,4.909 36.306,4.909 36.306,4.909 
		36.306,4.909 	"/>
	<rect x="38.688" y="4.909" fill="#EB2329" width="1.191" height="1.641"/>
	<polygon fill="#EB2329" points="41.076,4.909 41.076,6.55 41.076,6.55 41.076,6.55 39.881,6.55 39.881,8.195 41.076,8.195 
		41.076,6.553 41.076,6.55 42.267,6.55 42.267,4.909 42.271,4.909 42.271,4.909 	"/>
	<polygon fill="#EB2329" points="43.459,6.55 44.651,6.55 44.651,4.909 43.459,4.909 	"/>
	<polygon fill="#EB2329" points="45.842,6.55 47.037,6.55 47.037,6.55 47.037,4.909 45.842,4.909 	"/>
	<rect x="48.229" y="4.909" fill="#EB2329" width="1.188" height="1.641"/>
	<rect x="49.42" y="4.908" fill="#EB2329" width="0" height="0.004"/>
	<polygon fill="#EB2329" points="51.808,6.55 51.808,4.909 51.808,4.909 50.617,4.909 50.617,4.909 50.617,6.55 	"/>
	<polygon fill="#EB2329" points="54.192,6.55 54.192,4.909 52.998,4.909 52.998,4.909 52.998,6.55 	"/>
	<polygon fill="#EB2329" points="55.383,6.55 56.58,6.55 56.58,6.55 56.58,4.909 56.58,4.909 55.383,4.909 55.383,4.909 	"/>
	<polygon fill="#EB2329" points="58.963,4.909 58.963,4.909 58.963,4.909 	"/>
	<polygon fill="#EB2329" points="57.769,4.909 57.769,6.55 57.769,6.553 57.769,6.553 57.769,6.55 58.963,6.55 58.963,4.909 
		57.769,4.909 57.769,4.909 	"/>
	<polygon fill="#EB2329" points="62.539,6.55 62.539,6.55 62.539,6.55 63.728,6.55 63.728,4.909 62.539,4.909 	"/>
	<path fill="#EB2329" d="M18.413,6.99c0.07-0.167,0.143-0.31,0.219-0.44h-0.219V6.99z"/>
	<path fill="#EB2329" d="M30.343,6.553v0.359c0.367,0.02,0.834,0.182,1.189,0.337V6.553H30.343z"/>
	<path fill="#EB2329" d="M32.726,6.938h0.004c0.082-0.12,0.093-0.277,0.08-0.385h-0.084V6.938z"/>
	<path fill="#EB2329" d="M36.306,6.55h-1.191v1.105c0.211,0.271,0.346,0.384,0.418,0.418c0.039-0.029,0.082-0.054,0.129-0.079
		c0,0,0,0.133-0.129,0.079c-0.051,0.042-0.098,0.081-0.141,0.123h0.914V6.55z"/>
	<polygon fill="#EB2329" points="38.688,6.55 38.688,6.55 38.688,6.55 	"/>
	<rect x="37.496" y="6.55" fill="#EB2329" width="1.192" height="1.645"/>
	<polygon fill="#EB2329" points="43.457,8.195 43.459,8.195 43.459,6.553 42.271,6.553 42.271,8.195 	"/>
	<rect x="44.651" y="6.553" fill="#EB2329" width="1.189" height="1.642"/>
	<rect x="47.037" y="6.553" fill="#EB2329" width="1.192" height="1.642"/>
	<polygon fill="#EB2329" points="48.229,6.55 48.229,6.55 48.229,6.55 	"/>
	<rect x="49.422" y="6.55" fill="#EB2329" width="1.195" height="1.645"/>
	<rect x="51.808" y="6.55" fill="#EB2329" width="1.19" height="1.645"/>
	<polygon fill="#EB2329" points="55.383,6.55 54.192,6.55 54.192,8.195 55.383,8.195 55.383,6.553 	"/>
	<polygon fill="#EB2329" points="57.769,6.553 56.58,6.553 56.58,8.195 56.58,8.195 57.769,8.195 	"/>
	<rect x="58.963" y="6.553" fill="#EB2329" width="1.193" height="1.642"/>
	<polygon fill="#EB2329" points="60.156,6.55 61.349,6.55 61.349,6.55 61.349,4.909 60.156,4.909 	"/>
	<rect x="61.349" y="6.553" fill="#EB2329" width="1.19" height="1.642"/>
	<path fill="#EB2329" d="M17.282,9.841h0.666c0.01-0.213,0.086-0.411,0.086-0.411c0-0.467,0.027-0.876,0.078-1.235h-0.83V9.841z"/>
	<path fill="#EB2329" d="M35.108,9.254c0,0.004,0.002,0.004,0.002,0.01V8.727C35.056,9.013,35.108,9.254,35.108,9.254z"/>
	<rect x="36.306" y="8.195" fill="#EB2329" width="1.19" height="1.646"/>
	<rect x="38.688" y="8.195" fill="#EB2329" width="1.191" height="1.646"/>
	<polygon fill="#EB2329" points="41.076,9.841 41.076,9.841 41.076,9.841 39.881,9.841 39.881,11.487 41.076,11.487 41.076,9.841 
		41.076,9.841 42.267,9.841 42.267,8.195 41.076,8.195 	"/>
	<polygon fill="#EB2329" points="43.459,9.841 44.651,9.841 44.651,8.195 43.459,8.195 	"/>
	<polygon fill="#EB2329" points="45.842,8.195 45.842,9.841 47.037,9.841 47.037,9.841 47.037,8.195 	"/>
	<rect x="48.229" y="8.195" fill="#EB2329" width="1.188" height="1.646"/>
	<rect x="50.617" y="8.195" fill="#EB2329" width="1.188" height="1.646"/>
	<rect x="52.998" y="8.195" fill="#EB2329" width="1.194" height="1.646"/>
	<polygon fill="#EB2329" points="55.383,9.841 56.58,9.841 56.58,9.841 56.58,8.195 55.383,8.195 	"/>
	<polygon fill="#EB2329" points="57.769,9.841 57.769,9.841 57.769,9.841 57.769,9.841 58.963,9.841 58.963,8.195 57.769,8.195 
		57.769,8.195 	"/>
	<polygon fill="#EB2329" points="62.539,9.841 62.539,9.841 62.539,9.841 63.728,9.841 63.728,8.195 62.539,8.195 	"/>
	<path fill="#EB2329" d="M19.608,11.487V10.21c-0.305-0.146-0.502-0.076-0.502-0.076c-0.297,0.13-0.521,0.187-0.693,0.191v1.162
		H19.608z"/>
	<path fill="#EB2329" d="M36.306,9.841h-1.054c0.106,0.563,0.151,1.129,0.162,1.646h0.892V9.841z"/>
	<rect x="37.496" y="9.841" fill="#EB2329" width="1.192" height="1.646"/>
	<polygon fill="#EB2329" points="38.688,9.841 38.688,9.841 38.688,9.841 	"/>
	<polygon fill="#EB2329" points="43.457,11.487 43.457,11.487 43.459,11.487 43.459,11.487 43.459,9.844 42.271,9.844 
		42.271,11.487 	"/>
	<rect x="44.651" y="9.844" fill="#EB2329" width="1.189" height="1.644"/>
	<polygon fill="#EB2329" points="48.229,9.841 48.229,9.841 48.229,9.841 	"/>
	<rect x="47.037" y="9.844" fill="#EB2329" width="1.192" height="1.644"/>
	<rect x="49.422" y="9.841" fill="#EB2329" width="1.195" height="1.646"/>
	<rect x="51.808" y="9.841" fill="#EB2329" width="1.19" height="1.646"/>
	<polygon fill="#EB2329" points="55.383,9.841 54.192,9.841 54.192,11.487 55.383,11.487 	"/>
	<polygon fill="#EB2329" points="57.769,9.844 56.58,9.844 56.58,11.487 56.58,11.487 57.769,11.487 	"/>
	<rect x="58.963" y="9.844" fill="#EB2329" width="1.193" height="1.644"/>
	<polygon fill="#EB2329" points="60.156,9.841 61.349,9.841 61.349,9.841 61.349,8.195 60.156,8.195 60.156,8.195 	"/>
	<rect x="61.349" y="9.844" fill="#EB2329" width="1.19" height="1.644"/>
	<rect x="17.282" y="11.487" fill="#EB2329" width="1.131" height="1.645"/>
	<path fill="#EB2329" d="M19.608,11.487v1.645h1.189v-1.559c-0.02-0.033-0.044-0.059-0.059-0.086H19.608L19.608,11.487z"/>
	<path fill="#EB2329" d="M22.456,13.132c-0.162-0.095-0.314-0.199-0.462-0.312v0.312H22.456z"/>
	<polygon fill="#EB2329" points="37.496,11.487 37.496,11.487 37.496,11.487 36.306,11.487 36.306,11.487 36.306,11.487 
		36.306,13.132 37.496,13.132 	"/>
	<rect x="38.688" y="11.487" fill="#EB2329" width="1.191" height="1.645"/>
	<polygon fill="#EB2329" points="41.076,11.487 41.076,13.132 41.076,13.132 41.076,13.132 39.881,13.132 39.881,14.775 
		41.076,14.775 41.076,13.132 41.076,13.132 42.267,13.132 42.267,11.487 42.271,11.487 42.271,11.487 	"/>
	<polygon fill="#EB2329" points="43.459,13.132 44.651,13.132 44.651,11.487 43.459,11.487 	"/>
	<polygon fill="#EB2329" points="45.842,13.132 47.037,13.132 47.037,13.132 47.037,11.487 45.842,11.487 	"/>
	<rect x="49.42" y="11.485" fill="#EB2329" width="0" height="0.004"/>
	<rect x="48.229" y="11.487" fill="#EB2329" width="1.188" height="1.645"/>
	<polygon fill="#EB2329" points="51.808,13.132 51.808,11.487 51.808,11.487 50.617,11.487 50.617,11.487 50.617,13.132 	"/>
	<polygon fill="#EB2329" points="54.192,13.132 54.192,11.487 52.998,11.487 52.998,11.487 52.998,13.132 	"/>
	<polygon fill="#EB2329" points="55.383,13.132 56.58,13.132 56.58,13.132 56.58,11.487 56.58,11.487 55.383,11.487 55.383,11.487 	
		"/>
	<polygon fill="#EB2329" points="58.963,11.487 58.963,11.487 58.963,11.487 	"/>
	<polygon fill="#EB2329" points="57.769,11.487 57.769,13.132 57.769,13.132 57.769,13.132 57.769,13.132 58.963,13.132 
		58.963,11.487 57.769,11.487 57.769,11.487 	"/>
	<polygon fill="#EB2329" points="62.539,13.132 62.539,13.132 62.539,13.132 63.728,13.132 63.728,11.487 62.539,11.487 	"/>
	<rect x="18.413" y="13.132" fill="#EB2329" width="1.195" height="1.643"/>
	<rect x="20.799" y="13.132" fill="#EB2329" width="1.195" height="1.643"/>
	<path fill="#EB2329" d="M24.375,14.775V13.44c-0.417,0.113-0.817,0.094-1.188,0v1.335H24.375z"/>
	<path fill="#EB2329" d="M25.646,14.775c-0.024-0.036-0.051-0.08-0.074-0.12v0.12H25.646z"/>
	<path fill="#EB2329" d="M36.306,13.132H35.33c-0.063,0.499-0.133,0.812-0.133,0.812c-0.035,0.105-0.063,0.201-0.085,0.292v0.539
		h0.837c0.108-0.014,0.211-0.012,0.301,0h0.056V13.132z"/>
	<rect x="37.496" y="13.132" fill="#EB2329" width="1.192" height="1.643"/>
	<polygon fill="#EB2329" points="38.688,13.132 38.688,13.132 38.688,13.132 	"/>
	<polygon fill="#EB2329" points="43.457,14.778 43.457,14.781 43.459,14.781 43.459,14.778 43.459,13.132 42.271,13.132 
		42.271,14.778 	"/>
	<rect x="44.651" y="13.132" fill="#EB2329" width="1.189" height="1.646"/>
	<polygon fill="#EB2329" points="48.229,13.132 48.229,13.132 48.229,13.132 	"/>
	<rect x="47.037" y="13.132" fill="#EB2329" width="1.192" height="1.646"/>
	<rect x="49.422" y="13.132" fill="#EB2329" width="1.195" height="1.643"/>
	<rect x="51.808" y="13.132" fill="#EB2329" width="1.19" height="1.643"/>
	<polygon fill="#EB2329" points="55.383,13.132 54.192,13.132 54.192,14.775 55.383,14.775 	"/>
	<polygon fill="#EB2329" points="57.769,13.132 56.58,13.132 56.58,14.778 56.58,14.778 57.769,14.778 	"/>
	<rect x="58.963" y="13.132" fill="#EB2329" width="1.193" height="1.646"/>
	<polygon fill="#EB2329" points="60.156,13.132 61.349,13.132 61.349,13.132 61.349,11.487 60.156,11.487 	"/>
	<rect x="61.349" y="13.132" fill="#EB2329" width="1.19" height="1.646"/>
	<rect x="17.282" y="14.781" fill="#EB2329" width="1.131" height="1.64"/>
	<polygon fill="#EB2329" points="20.799,16.42 20.799,14.781 20.799,14.781 20.799,14.778 19.608,14.778 19.608,14.781 
		19.608,16.42 	"/>
	<path fill="#EB2329" d="M23.187,14.778h-1.192v0.002v1.345c0.319,0.101,0.759,0.181,1.192,0.24V14.78V14.778z"/>
	<path fill="#EB2329" d="M24.378,14.778v1.642h0.484c0.219-0.304,0.546-0.361,0.707-0.371v-1.271H24.378z"/>
	<path fill="#EB2329" d="M26.765,15.471L26.765,15.471L26.765,15.471z"/>
	<path fill="#EB2329" d="M35.062,14.781c0.013,0.052,0.027,0.098,0.049,0.132v-0.132H35.062z"/>
	<rect x="35.11" y="14.778" fill="#EB2329" width="0.002" height="0.002"/>
	<path fill="#EB2329" d="M37.496,14.781v-0.002h-1.19v0.002l0,0v0.001c0.186,0.034,0.313,0.094,0.313,0.094
		c0.217,0.157,0.521,0.301,0.877,0.43V14.781L37.496,14.781z"/>
	<path fill="#EB2329" d="M38.688,14.778v0.89c0.408,0.104,0.822,0.194,1.191,0.27v-1.16H38.688z"/>
	<path fill="#EB2329" d="M42.271,14.781v-0.002h-1.193v1.367c0.082,0.015,0.133,0.022,0.133,0.022
		c0.389-0.16,0.74-0.269,1.057-0.334v-1.052L42.271,14.781L42.271,14.781z"/>
	<path fill="#EB2329" d="M43.459,14.781v0.959c0.291,0.021,0.447,0.081,0.447,0.081c0.225,0.094,0.479,0.15,0.745,0.18v-1.219
		L43.459,14.781L43.459,14.781z"/>
	<path fill="#EB2329" d="M45.842,14.781v1.208c0.32-0.04,0.535-0.084,0.535-0.084c0.185-0.071,0.414-0.129,0.66-0.174v-0.949
		L45.842,14.781L45.842,14.781z"/>
	<path fill="#EB2329" d="M48.229,14.781v0.818c0.438-0.029,0.859-0.034,1.188-0.034v-0.784H48.229z"/>
	<rect x="49.419" y="14.777" fill="#EB2329" width="0.002" height="0.004"/>
	<path fill="#EB2329" d="M51.808,14.778h-1.189v0.002v0.912c0.504,0.068,1.059,0.068,1.189,0.064V14.778L51.808,14.778z"/>
	<path fill="#EB2329" d="M52.998,14.778v0.002v0.952c0.578,0.095,0.957,0.012,1.194-0.104v-0.851L52.998,14.778L52.998,14.778z"/>
	<path fill="#EB2329" d="M56.58,14.778h-1.197v0.002v0.479c0.451-0.035,0.851-0.055,1.197-0.059v-0.42V14.778z"/>
	<rect x="58.963" y="14.778" fill="#EB2329" width="0" height="0.002"/>
	<path fill="#EB2329" d="M57.769,14.781v-0.002l0,0V14.781v0.474c0.858,0.103,1.131,0.323,1.194,0.394v-0.868H57.769z"/>
	<polygon fill="#EB2329" points="62.539,16.42 62.539,16.42 62.539,16.42 63.728,16.42 63.728,14.781 62.539,14.781 	"/>
	<rect x="18.413" y="16.42" fill="#EB2329" width="1.195" height="1.646"/>
	<path fill="#EB2329" d="M20.799,18.066h0.688c0.186-0.448,0.205-0.785,0.205-0.785c-0.166-0.275-0.205-0.6-0.205-0.861h-0.688
		V18.066z"/>
	<path fill="#EB2329" d="M23.628,16.42c0.281,0.032,0.545,0.054,0.747,0.072V16.42H23.628z"/>
	<rect x="24.376" y="16.419" fill="#EB2329" width="0" height="0.003"/>
	<path fill="#EB2329" d="M59.933,16.423c0.078,0.031,0.151,0.063,0.225,0.091v-0.091H59.933z"/>
	<polygon fill="#EB2329" points="60.156,16.42 61.349,16.42 61.349,16.42 61.349,14.781 60.156,14.781 	"/>
	<path fill="#EB2329" d="M62.539,16.423h-1.19v0.559c0.912,0.526,0.68,0.973,0.68,0.973c-0.004,0.037-0.01,0.073-0.016,0.111h0.526
		V16.423L62.539,16.423z"/>
	<rect x="17.282" y="18.066" fill="#EB2329" width="1.131" height="1.64"/>
	<path fill="#EB2329" d="M20.799,18.066L20.799,18.066h-1.19l0,0v1.64h0.814c-0.066-0.103-0.066-0.226-0.066-0.226
		c0.17-0.113,0.314-0.241,0.442-0.368V18.066L20.799,18.066z"/>
	<polygon fill="#EB2329" points="62.539,19.706 62.539,19.706 62.539,19.711 63.728,19.711 63.728,18.066 62.539,18.066 	"/>
	<path fill="#EB2329" d="M18.413,20.71c0.16-0.178,0.261-0.295,0.261-0.295c0.015-0.285,0.042-0.519,0.074-0.704h-0.335V20.71z"/>
	<path fill="#EB2329" d="M19.56,19.711c0.016,0.015,0.029,0.025,0.049,0.034v-0.034H19.56z"/>
	<path fill="#EB2329" d="M60.156,19.711h-0.068c-0.045,0.172-0.121,0.293-0.121,0.293c-0.434,0.337-0.336,0.999-0.247,1.35h0.438
		L60.156,19.711L60.156,19.711z"/>
	<path fill="#EB2329" d="M60.156,19.711h1.19v-0.005v-0.774c-0.438,0.042-0.957-0.293-1.19-0.471V19.711z"/>
	<rect x="61.349" y="19.711" fill="#EB2329" width="1.19" height="1.643"/>
	<path fill="#EB2329" d="M17.282,21.92c0.182-0.176,0.369-0.375,0.545-0.563h-0.545V21.92z"/>
	<path fill="#EB2329" d="M58.963,22.565c-0.174,0.007-0.301-0.01-0.301-0.01c0.088,0.167,0.144,0.314,0.166,0.448h0.135V22.565z"/>
	<polygon fill="#EB2329" points="62.539,23.003 62.539,23.003 62.539,23.003 63.728,23.003 63.728,21.357 62.539,21.357 	"/>
	<path fill="#EB2329" d="M57.769,23.932c-0.392,0.024-0.734-0.029-0.734-0.029c0.318,0.374,0.367,0.605,0.297,0.745h0.438V23.932
		L57.769,23.932z"/>
	<rect x="58.963" y="23.003" fill="#EB2329" width="1.193" height="1.645"/>
	<polygon fill="#EB2329" points="60.156,23.003 61.349,23.003 61.349,23.003 61.349,21.357 60.156,21.357 	"/>
	<rect x="61.349" y="23.003" fill="#EB2329" width="1.19" height="1.645"/>
	<path fill="#EB2329" d="M55.383,26.289h0.347c-0.121-0.062-0.24-0.143-0.347-0.227V26.289L55.383,26.289z"/>
	<path fill="#EB2329" d="M56.58,26.289v-0.138c-0.035,0.054-0.067,0.104-0.106,0.138H56.58L56.58,26.289z"/>
	<polygon fill="#EB2329" points="58.963,24.648 58.963,24.648 58.963,24.648 	"/>
	<polygon fill="#EB2329" points="57.769,24.648 57.769,26.289 57.769,26.289 57.769,26.289 57.769,26.289 58.963,26.289 
		58.963,24.648 57.769,24.648 57.769,24.648 	"/>
	<polygon fill="#EB2329" points="62.539,26.289 62.539,26.289 62.539,26.289 63.728,26.289 63.728,24.648 62.539,24.648 	"/>
	<path fill="#EB2329" d="M52.998,27.936V27.42c-0.455,0.167-0.942,0.201-1.19,0.205v0.311H52.998z"/>
	<path fill="#EB2329" d="M55.383,27.936v-1.647l0,0H55.08c0.073,0.821-0.563,0.484-0.888,0.265v1.382H55.383z"/>
	<polygon fill="#EB2329" points="57.769,26.289 56.58,26.289 56.58,27.936 56.58,27.936 57.769,27.936 	"/>
	<rect x="58.963" y="26.289" fill="#EB2329" width="1.193" height="1.647"/>
	<polygon fill="#EB2329" points="60.156,26.289 61.349,26.289 61.349,26.289 61.349,24.648 60.156,24.648 	"/>
	<rect x="61.349" y="26.289" fill="#EB2329" width="1.19" height="1.647"/>
	<path fill="#EB2329" d="M51.808,29.579v-1.643l0,0h-0.4c-0.236,0.244-0.559,0.452-0.559,0.452c-0.08,0.015-0.16,0.044-0.23,0.084
		v1.106L51.808,29.579L51.808,29.579z"/>
	<polygon fill="#EB2329" points="54.192,29.579 54.192,27.936 52.998,27.936 52.998,27.936 52.998,29.579 	"/>
	<polygon fill="#EB2329" points="55.383,29.579 56.58,29.579 56.58,29.579 56.58,27.936 56.58,27.936 55.383,27.936 55.383,27.936 	
		"/>
	<polygon fill="#EB2329" points="57.769,27.936 57.769,29.579 57.769,29.579 57.769,29.579 57.769,29.579 58.963,29.579 
		58.963,27.936 57.769,27.936 57.769,27.936 	"/>
	<polygon fill="#EB2329" points="58.963,27.936 58.963,27.936 58.963,27.936 	"/>
	<polygon fill="#EB2329" points="62.539,29.579 62.539,29.579 62.539,29.579 63.728,29.579 63.728,27.936 62.539,27.936 	"/>
	<path fill="#EB2329" d="M50.617,31.222v-1.643h-0.763c-0.225,0.655-0.28,1.329-0.28,1.329l-0.152,0.013v0.302L50.617,31.222
		L50.617,31.222z"/>
	<rect x="51.808" y="29.579" fill="#EB2329" width="1.19" height="1.643"/>
	<polygon fill="#EB2329" points="55.383,29.579 54.192,29.579 54.192,31.222 55.383,31.222 	"/>
	<path fill="#EB2329" d="M57.769,29.579H56.58v1.643l0,0h0.049c0.115-1.171,0.547-0.229,0.547-0.229
		c0.025,0.086,0.048,0.163,0.074,0.229h0.519V29.579z"/>
	<path fill="#EB2329" d="M60.156,29.579h-1.193v1.127c0.162,0.105,0.222,0.344,0.222,0.344c0.418-0.457,0.674-0.157,0.813,0.172
		h0.158V29.579z"/>
	<polygon fill="#EB2329" points="60.156,29.579 61.349,29.579 61.349,29.579 61.349,27.936 60.156,27.936 	"/>
	<rect x="61.349" y="29.579" fill="#EB2329" width="1.19" height="1.643"/>
	<path fill="#EB2329" d="M48.815,32.167c0.232,0.118,0.431,0.301,0.603,0.512v-0.974C48.383,31.882,48.815,32.167,48.815,32.167z"/>
	<rect x="49.42" y="31.22" fill="#EB2329" width="0" height="0.004"/>
	<path fill="#EB2329" d="M49.017,31.222c0.104,0.134,0.271,0.247,0.401,0.325v-0.325H49.017z"/>
	<polygon fill="#EB2329" points="51.808,32.87 51.808,31.222 51.808,31.222 50.617,31.222 50.617,31.222 50.617,32.87 	"/>
	<polygon fill="#EB2329" points="54.192,32.87 54.192,31.222 52.998,31.222 52.998,31.222 52.998,32.87 	"/>
	<path fill="#EB2329" d="M56.58,31.222h-1.197l0,0v1.648l0,0h1.14c0.024-0.158,0.045-0.315,0.059-0.452L56.58,31.222L56.58,31.222z"
		/>
	<path fill="#EB2329" d="M57.769,31.222L57.769,31.222L57.769,31.222v0.376c0.053-0.037,0.082-0.076,0.082-0.076
		c0.071-0.114,0.143-0.211,0.207-0.301L57.769,31.222L57.769,31.222z"/>
	<path fill="#EB2329" d="M61.349,32.87v-1.648h-1.191v1.567c0.006,0.027,0.018,0.052,0.025,0.082L61.349,32.87L61.349,32.87z"/>
	<polygon fill="#EB2329" points="62.539,32.87 62.539,32.87 62.539,32.87 63.728,32.87 63.728,31.222 62.539,31.222 	"/>
	<path fill="#EB2329" d="M50.617,32.87h-1.056c0.328,0.488,0.535,1.104,0.658,1.644h0.396L50.617,32.87L50.617,32.87z"/>
	<rect x="51.808" y="32.87" fill="#EB2329" width="1.19" height="1.644"/>
	<path fill="#EB2329" d="M55.383,32.87h-1.188v1.644h0.682c0.092-1.095,0.5-0.679,0.5-0.679c0.006,0.005,0.006,0.005,0.008,0.005
		L55.383,32.87L55.383,32.87z"/>
	<rect x="61.349" y="32.87" fill="#EB2329" width="1.19" height="1.644"/>
	<path fill="#EB2329" d="M50.617,34.514v1.643h0.639c-0.008-1.013,0.31-0.821,0.552-0.512v-1.131H50.617z"/>
	<rect x="52.998" y="34.514" fill="#EB2329" width="1.194" height="1.643"/>
	<path fill="#EB2329" d="M61.349,36.157v-1.643h-0.361c0.381,0.871,0.027,1.106,0.027,1.106c-0.33,0.204-0.42,0.394-0.42,0.537
		H61.349L61.349,36.157z"/>
	<polygon fill="#EB2329" points="62.539,36.157 62.539,36.157 62.539,36.157 63.728,36.157 63.728,34.514 62.539,34.514 	"/>
	<path fill="#EB2329" d="M50.412,36.157c0.012,0.485,0.094,0.799,0.205,1.003v-1.003H50.412z"/>
	<path fill="#EB2329" d="M52.998,36.157h-0.901c-0.007,0.598,0.237,1.191,0.498,1.647h0.403V36.157z"/>
	<path fill="#EB2329" d="M54.192,37.804h0.722c0.239-0.186,0.39-0.389,0.469-0.59v-0.915c-0.018-0.054-0.036-0.099-0.055-0.143
		h-1.136V37.804z"/>
	<rect x="61.349" y="36.159" fill="#EB2329" width="1.19" height="1.645"/>
	<path fill="#EB2329" d="M53.901,38.164c0.097,0,0.193,0,0.291,0.002v-0.362h-1.194l0,0v0.34
		C53.272,38.158,53.58,38.164,53.901,38.164z"/>
	<path fill="#EB2329" d="M61.133,37.804c-0.002,0.01-0.002,0.018-0.002,0.018c-0.209,0.496,0.025,0.795,0.218,0.942v-0.96H61.133z"
		/>
	<polygon fill="#EB2329" points="62.539,39.445 62.539,39.445 62.539,39.445 63.728,39.445 63.728,37.804 62.539,37.804 	"/>
	<path fill="#EB2329" d="M62.062,39.447c0.197,0.375,0.357,0.871,0.478,1.367v-1.367H62.062z"/>
	<path fill="#EB2329" d="M62.873,42.738h0.854v-1.645h-1.125C62.789,41.931,62.865,42.695,62.873,42.738z"/>
	<path fill="#EB2329" d="M63.728,44.997v-0.611h-0.22C63.588,44.608,63.66,44.813,63.728,44.997z"/>
	<polygon fill="#FFFFFF" points="18.413,3.262 19.608,3.262 19.608,3.262 19.608,1.618 18.413,1.618 	"/>
	<path fill="#FFFFFF" d="M20.799,3.262L20.799,3.262h0.729c-0.276-0.394-0.522-0.478-0.729-0.433V3.262L20.799,3.262z"/>
	<path fill="#FFFFFF" d="M21.304,1.618c0.18,0.269,0.469,0.518,0.69,0.681V1.618H21.304z"/>
	<path fill="#FFFFFF" d="M24.375,3.262V1.618h-1.188v1.39c0.086,0.081,0.18,0.165,0.278,0.254H24.375L24.375,3.262z"/>
	<path fill="#FFFFFF" d="M25.569,1.618v1.644l0,0h0.223c0.094-0.231,0.374-0.426,0.374-0.426c0.05,0.298,0.522,0.344,0.599,0.346
		V1.618H25.569z"/>
	<polygon fill="#FFFFFF" points="35.11,3.262 35.11,3.262 35.112,3.262 36.306,3.262 36.306,3.262 36.306,1.618 36.306,1.618 
		35.112,1.618 35.11,1.618 	"/>
	<polygon fill="#FFFFFF" points="37.496,3.262 37.496,3.262 36.306,3.262 36.306,4.908 36.306,4.908 37.496,4.908 37.496,4.908 
		37.496,3.262 38.688,3.262 38.688,3.262 38.688,1.618 37.496,1.618 37.496,1.618 	"/>
	<polygon fill="#FFFFFF" points="41.076,3.262 41.076,1.618 39.881,1.618 39.881,3.262 39.881,3.262 	"/>
	<polygon fill="#FFFFFF" points="49.418,3.262 49.418,3.262 49.422,3.262 50.617,3.262 50.617,3.262 50.617,1.618 49.422,1.618 
		49.418,1.618 	"/>
	<polygon fill="#FFFFFF" points="51.808,3.262 52.998,3.262 52.998,3.262 52.998,1.618 51.808,1.618 	"/>
	<polygon fill="#FFFFFF" points="55.383,3.262 55.383,1.618 54.192,1.618 54.192,3.262 54.192,3.262 	"/>
	<polygon fill="#FFFFFF" points="57.769,3.262 57.769,3.262 57.769,3.262 57.769,1.618 56.58,1.618 56.58,3.262 56.58,3.262 
		55.383,3.262 55.383,3.262 55.383,4.908 55.383,4.908 56.58,4.908 56.58,3.262 	"/>
	<polygon fill="#FFFFFF" points="18.413,4.909 18.413,4.908 18.413,3.262 17.282,3.262 17.282,4.909 	"/>
	<path fill="#FFFFFF" d="M19.608,4.908L19.608,4.908h0.752c0.099-0.327,0.262-0.547,0.438-0.697V3.262h-0.507
		c-0.012,0.027-0.021,0.044-0.021,0.044c-0.016-0.015-0.026-0.03-0.037-0.044h-0.625V4.908L19.608,4.908z"/>
	<path fill="#FFFFFF" d="M24.378,3.262h-0.003v0.739c0.452,0.353,0.829,0.624,0.829,0.624c0.121-0.018,0.238-0.016,0.365-0.006
		V3.262H24.378z"/>
	<path fill="#FFFFFF" d="M27.075,4.908h0.311c0.079-0.072-0.355-0.518-0.621-0.775v0.762L27.075,4.908z"/>
	<path fill="#FFFFFF" d="M35.11,4.909L35.11,4.909V3.262h-1.189l0,0V1.618h-1.195h-0.002v1.644l0,0h-1.19V1.618h-1.188h-0.007v1.644
		h-1.19l0,0V1.618l0,0H27.96l0,0v1.644h-0.74c0.35,0.118,0.584,0.364,0.74,0.653V3.262l0,0h1.188v1.647l0,0h1.19V6.55H29.33
		c0.478,0.227,0.93,0.356,0.93,0.356c0.029,0,0.058,0.005,0.085,0.005V6.553h1.188v0.696c0.271,0.11,0.487,0.219,0.559,0.259
		c-0.063-0.089,0.622-0.559,0.636-0.569V6.553h0.084c-0.008-0.081-0.022-0.141-0.022-0.141c-0.024-0.02-0.04-0.04-0.063-0.058V6.55
		l0,0h-1.19V4.909h-1.188l0,0V3.262h1.188v1.647l0,0h1.19v0.61c0.107-0.068,0.209-0.106,0.209-0.106
		c-0.037-0.25,0.051-0.411,0.17-0.504h-0.377l0,0V3.262h1.195v1.647l0,0h-0.408v0.418c0,0.116,0.187,0.288,0.408,0.448V4.909H35.11z
		"/>
	<polygon fill="#FFFFFF" points="38.688,4.908 38.688,4.908 39.881,4.908 39.881,4.908 39.881,3.262 38.688,3.262 38.688,3.262 	"/>
	<polygon fill="#FFFFFF" points="50.617,3.262 50.617,4.908 50.617,4.908 51.808,4.908 51.808,4.908 51.808,3.262 	"/>
	<polygon fill="#FFFFFF" points="52.998,4.908 54.192,4.908 54.192,3.262 52.998,3.262 	"/>
	<path fill="#FFFFFF" d="M62.539,3.262L62.539,3.262V1.618h-1.19v1.644l0,0h-1.191V1.618h-1.193l0,0v1.644h-1.195l0,0v1.647l0,0
		h1.195l0,0V3.262l0,0h1.193v1.647l0,0h1.191V6.55l0,0h-1.191V4.909h-1.193l0,0V6.55h-1.195v0.003v1.642h1.195V6.553l0,0h1.193
		v1.642l0,0h1.191v1.646l0,0h-1.191V8.195h-1.193l0,0v1.646h-1.195l0,0v1.646l0,0h1.195l0,0V9.843l0,0h1.193v1.644l0,0h1.191v1.645
		l0,0h-1.191v-1.645h-1.193l0,0v1.645h-1.195l0,0v1.646v0.002h1.195v-0.002v-1.646l0,0h1.193v1.646v0.002h1.191v1.64l0,0h-1.191
		v-1.64h-1.193l0,0v0.868c0.012,0.013,0.016,0.022,0.016,0.022c0.209,0.347,0.597,0.588,0.953,0.752h0.226v0.091
		c0.332,0.127,0.598,0.182,0.598,0.182c0.234,0.097,0.433,0.19,0.595,0.287v-0.559h1.19v1.643l0,0l0,0h1.188V16.42h-1.188l0,0v-1.64
		h-1.19v-0.002v-1.646h1.19v1.646v0.002l0,0h1.188v-1.648h-1.188l0,0v-1.645h-1.19l0,0V9.843h1.19v1.644l0,0l0,0h1.188V9.841h-1.188
		l0,0V8.195h-1.19V6.553h1.19v1.642l0,0h1.188V6.55h-1.188l0,0V4.909h-1.19l0,0V3.262H62.539v1.647l0,0l0,0h1.188V3.262H62.539z"/>
	<path fill="#FFFFFF" d="M18.413,4.909V6.55l0,0h0.219c0.367-0.623,0.803-0.804,0.977-0.854V4.909H18.413z"/>
	<path fill="#FFFFFF" d="M29.146,4.909h-0.908c0.039,0.354,0.019,0.62,0.019,0.62c0.028,0.376,0.444,0.699,0.892,0.935V4.909H29.146
		z"/>
	<polygon fill="#FFFFFF" points="36.306,4.909 36.306,4.909 35.112,4.909 35.11,4.909 35.11,6.55 35.11,6.55 35.112,6.55 
		36.306,6.55 36.306,6.55 	"/>
	<polygon fill="#FFFFFF" points="38.688,6.55 38.688,6.55 38.688,4.909 37.496,4.909 37.496,4.909 37.496,6.55 37.496,6.55 
		36.306,6.55 36.306,8.195 37.496,8.195 37.496,6.55 	"/>
	<polygon fill="#FFFFFF" points="41.076,6.55 41.076,4.909 39.881,4.909 39.881,6.55 39.881,6.55 	"/>
	<polygon fill="#FFFFFF" points="49.418,6.55 49.418,6.55 49.422,6.55 50.617,6.55 50.617,6.55 50.617,4.909 49.422,4.909 
		49.418,4.909 	"/>
	<polygon fill="#FFFFFF" points="51.808,6.55 52.998,6.55 52.998,6.55 52.998,4.909 51.808,4.909 	"/>
	<polygon fill="#FFFFFF" points="55.383,6.55 55.383,4.909 54.192,4.909 54.192,6.55 54.192,6.55 	"/>
	<polygon fill="#FFFFFF" points="57.769,6.553 57.769,6.553 57.769,6.55 57.769,4.909 56.58,4.909 56.58,6.55 56.58,6.55 
		55.383,6.55 55.383,6.553 55.383,8.195 56.58,8.195 56.58,6.553 	"/>
	<path fill="#FFFFFF" d="M17.282,6.55v1.645h0.83c0.063-0.49,0.178-0.884,0.301-1.205V6.55H17.282z"/>
	<path fill="#FFFFFF" d="M34.61,6.55c0.046,0.454,0.38,0.947,0.38,0.947c0.045,0.055,0.084,0.108,0.12,0.155V6.55H34.61z"/>
	<polygon fill="#FFFFFF" points="38.688,6.55 38.688,6.55 38.688,8.195 38.688,8.195 39.881,8.195 39.881,6.55 	"/>
	<rect x="50.617" y="6.55" fill="#FFFFFF" width="1.188" height="1.645"/>
	<rect x="52.998" y="6.55" fill="#FFFFFF" width="1.194" height="1.645"/>
	<path fill="#FFFFFF" d="M36.306,9.841V8.195l0,0H35.39c-0.162,0.168-0.24,0.357-0.277,0.532v0.537
		c0.055,0.191,0.1,0.384,0.141,0.578L36.306,9.841L36.306,9.841z"/>
	<polygon fill="#FFFFFF" points="38.688,9.841 38.688,9.841 38.688,8.195 37.496,8.195 37.496,8.195 37.496,9.841 37.496,9.841 
		36.306,9.841 36.306,11.487 36.306,11.487 37.496,11.487 37.496,11.487 37.496,9.841 	"/>
	<polygon fill="#FFFFFF" points="41.076,9.841 41.076,8.195 39.881,8.195 39.881,9.841 39.881,9.841 	"/>
	<polygon fill="#FFFFFF" points="49.418,9.841 49.422,9.841 50.617,9.841 50.617,9.841 50.617,8.195 49.422,8.195 49.418,8.195 	"/>
	<polygon fill="#FFFFFF" points="51.808,9.841 52.998,9.841 52.998,9.841 52.998,8.195 51.808,8.195 	"/>
	<polygon fill="#FFFFFF" points="55.383,9.841 55.383,8.195 54.192,8.195 54.192,9.841 54.192,9.841 	"/>
	<polygon fill="#FFFFFF" points="57.769,9.844 57.769,9.841 57.769,9.841 57.769,8.195 56.58,8.195 56.58,9.841 56.58,9.841 
		55.383,9.841 55.383,9.841 55.383,11.487 55.383,11.487 56.58,11.487 56.58,9.844 	"/>
	<path fill="#FFFFFF" d="M17.282,11.487h1.131l0,0l0,0v-1.162c-0.389,0.02-0.469-0.241-0.465-0.484h-0.666V11.487z"/>
	<path fill="#FFFFFF" d="M19.608,11.487h1.132c-0.118-0.168-0.179-0.271-0.179-0.271c-0.363-0.6-0.694-0.88-0.953-1.005V11.487
		L19.608,11.487z"/>
	<polygon fill="#FFFFFF" points="38.688,9.841 38.688,9.841 38.688,11.487 38.688,11.487 39.881,11.487 39.881,11.487 39.881,9.841 
			"/>
	<polygon fill="#FFFFFF" points="50.617,9.841 50.617,11.487 50.617,11.487 51.808,11.487 51.808,11.487 51.808,9.841 	"/>
	<polygon fill="#FFFFFF" points="52.998,11.487 54.192,11.487 54.192,9.841 52.998,9.841 	"/>
	<polygon fill="#FFFFFF" points="18.413,13.132 19.608,13.132 19.608,13.132 19.608,11.487 18.413,11.487 	"/>
	<path fill="#FFFFFF" d="M20.799,13.132L20.799,13.132h1.195l0,0V12.82c-0.538-0.414-0.949-0.921-1.195-1.247V13.132L20.799,13.132z
		"/>
	<path fill="#FFFFFF" d="M36.306,13.132v-1.645l0,0h-0.892c0.015,0.639-0.031,1.215-0.084,1.645H36.306L36.306,13.132z"/>
	<polygon fill="#FFFFFF" points="38.688,13.132 38.688,13.132 38.688,11.487 37.496,11.487 37.496,11.487 37.496,13.132 
		37.496,13.132 36.306,13.132 36.306,14.775 36.306,14.778 37.496,14.778 37.496,14.775 37.496,13.132 	"/>
	<polygon fill="#FFFFFF" points="41.076,13.132 41.076,11.487 39.881,11.487 39.881,13.132 39.881,13.132 	"/>
	<polygon fill="#FFFFFF" points="49.418,13.132 49.418,13.132 49.422,13.132 50.617,13.132 50.617,13.132 50.617,11.487 
		49.422,11.487 49.418,11.487 	"/>
	<polygon fill="#FFFFFF" points="51.808,13.132 52.998,13.132 52.998,13.132 52.998,11.487 51.808,11.487 	"/>
	<polygon fill="#FFFFFF" points="55.383,13.132 55.383,11.487 54.192,11.487 54.192,13.132 54.192,13.132 	"/>
	<polygon fill="#FFFFFF" points="57.769,13.132 57.769,13.132 57.769,13.132 57.769,11.487 56.58,11.487 56.58,13.132 56.58,13.132 
		55.383,13.132 55.383,13.132 55.383,14.775 55.383,14.778 56.58,14.778 56.58,13.132 	"/>
	<polygon fill="#FFFFFF" points="18.413,14.778 18.413,14.775 18.413,13.132 17.282,13.132 17.282,14.781 18.413,14.781 	"/>
	<polygon fill="#FFFFFF" points="19.608,14.775 19.608,14.778 20.799,14.778 20.799,13.132 19.608,13.132 	"/>
	<path fill="#FFFFFF" d="M21.994,14.775v0.003h1.192v-0.003V13.44c-0.254-0.074-0.498-0.177-0.73-0.307h-0.462V14.775z"/>
	<path fill="#FFFFFF" d="M24.375,14.778h1.194v-0.003v-0.12c-0.368-0.627-0.51-1.51-0.51-1.51c-0.232,0.142-0.461,0.241-0.686,0.295
		v1.335L24.375,14.778L24.375,14.778z"/>
	<path fill="#FFFFFF" d="M35.11,14.778v-0.537c-0.059,0.244-0.065,0.414-0.049,0.54h0.049V14.778z"/>
	<polygon fill="#FFFFFF" points="38.688,13.132 38.688,13.132 38.688,14.775 38.688,14.778 39.881,14.778 39.881,14.775 
		39.881,13.132 	"/>
	<polygon fill="#FFFFFF" points="50.617,13.132 50.617,14.775 50.617,14.778 51.808,14.778 51.808,14.775 51.808,13.132 	"/>
	<polygon fill="#FFFFFF" points="52.998,14.778 54.192,14.778 54.192,13.132 52.998,13.132 52.998,14.775 	"/>
	<polygon fill="#FFFFFF" points="18.413,16.42 19.608,16.42 19.608,16.42 19.608,14.781 18.413,14.781 	"/>
	<path fill="#FFFFFF" d="M20.799,14.781L20.799,14.781v1.64l0,0l0,0h0.688c0-0.294,0.059-0.517,0.059-0.517
		c0.085,0.084,0.244,0.161,0.448,0.222v-1.345H20.799z"/>
	<path fill="#FFFFFF" d="M24.375,16.42v-1.64h-1.188v1.585c0.147,0.02,0.297,0.04,0.44,0.054h0.748V16.42z"/>
	<path fill="#FFFFFF" d="M25.569,16.049c0.063-0.002,0.102,0,0.102,0c0.316,0.293,0.578,0.413,0.641,0.147
		c0.057-0.263,0.318-0.526,0.318-0.526c0.094-0.069,0.131-0.135,0.135-0.189v-0.021c-0.008-0.121-0.166-0.204-0.166-0.204
		c-0.408,0.093-0.718-0.138-0.953-0.477h-0.074v1.269H25.569z"/>
	<path fill="#FFFFFF" d="M35.11,14.781v0.132c0.109,0.18,0.349,0.083,0.349,0.083c0.156-0.132,0.326-0.199,0.488-0.215h-0.835H35.11
		z"/>
	<path fill="#FFFFFF" d="M36.306,14.781h-0.045C36.276,14.781,36.289,14.782,36.306,14.781L36.306,14.781L36.306,14.781z"/>
	<path fill="#FFFFFF" d="M37.496,14.781L37.496,14.781v0.526c0.364,0.135,0.774,0.258,1.192,0.361v-0.887H37.496z"/>
	<path fill="#FFFFFF" d="M39.881,14.781v1.157c0.539,0.104,0.984,0.178,1.195,0.207v-1.364H39.881z"/>
	<path fill="#FFFFFF" d="M43.457,14.781h-1.188h-0.004v1.052c0.508-0.11,0.912-0.116,1.193-0.093L43.457,14.781L43.457,14.781z"/>
	<path fill="#FFFFFF" d="M44.651,14.781v-0.002v-1.646h1.189v1.646v0.002h1.195v-0.002v-1.646h1.193v1.646v0.002l0,0h1.188v-0.002
		v-1.646h-1.188l0,0l0,0v-1.645h-1.193v1.645l0,0h-1.195v-1.645h-1.189l0,0V9.844h1.189v1.644l0,0h1.195l0,0V9.844h1.193v1.644l0,0
		l0,0h1.188l0,0V9.842h-1.188l0,0l0,0V8.195h-1.193v1.646l0,0h-1.195V8.195h-1.189V6.553h1.189v1.642l0,0h1.195V6.553h1.193v1.642
		l0,0h1.188V6.55h-1.188l0,0l0,0V4.909h-1.193V6.55l0,0h-1.195V4.909h-1.189l0,0V3.262h1.189v1.647l0,0h1.195l0,0V3.262h1.193v1.647
		l0,0l0,0h1.188l0,0V3.262h-1.188l0,0l0,0V1.618h-1.193v1.644l0,0h-1.195V1.618h-1.189l0,0v1.644h-1.192l0,0V1.618h-0.002h-1.188
		h-0.004v1.644h-1.188l0,0v1.646l0,0h1.188V3.262h0.004h1.189v1.647l0,0h1.193V6.55h-1.193l0,0V4.909h-0.002h-1.188h-0.004V6.55
		h-1.189v0.003v1.642h1.189V6.553h0.004h1.188v1.642h1.192v1.646h-1.192l0,0V8.195h-0.002h-1.188h-0.004v1.646h-1.188l0,0v1.646l0,0
		h1.188V9.843h0.004h1.189v1.644l0,0h1.193v1.645h-1.193l0,0v-1.645h-0.002h-1.188h-0.004v1.645h-1.189l0,0v1.643v0.003h1.189
		v-1.646h0.004h1.188v1.646v0.002L44.651,14.781v1.218c0.423,0.042,0.863,0.022,1.189-0.012v-1.208h-1.189V14.781z"/>
	<path fill="#FFFFFF" d="M47.037,14.781v0.949c0.366-0.068,0.785-0.108,1.192-0.13v-0.818L47.037,14.781L47.037,14.781z"/>
	<path fill="#FFFFFF" d="M49.422,14.781h-0.004v0.784c0.408,0.003,0.674,0.014,0.674,0.014c0.154,0.055,0.332,0.089,0.525,0.114
		v-0.912H49.422z"/>
	<path fill="#FFFFFF" d="M51.808,14.781v0.977c0.022,0,0.026,0,0.026,0c0.701-0.178,0.99-0.06,0.99-0.06
		c0.063,0.015,0.116,0.025,0.174,0.035v-0.952H51.808z"/>
	<path fill="#FFFFFF" d="M54.192,14.781v0.849c0.248-0.124,0.349-0.286,0.349-0.286c0.299-0.034,0.58-0.059,0.842-0.083v-0.479
		L54.192,14.781L54.192,14.781z"/>
	<path fill="#FFFFFF" d="M56.58,14.781v0.42c0.481-0.006,0.877,0.014,1.188,0.054v-0.474H56.58z"/>
	<polygon fill="#FFFFFF" points="18.413,18.066 18.413,18.066 18.413,16.42 17.282,16.42 17.282,18.066 	"/>
	<polygon fill="#FFFFFF" points="19.608,18.066 19.608,18.066 20.799,18.066 20.799,16.42 19.608,16.42 	"/>
	<path fill="#FFFFFF" d="M24.375,16.42v0.072c0.259,0.018,0.423,0.028,0.423,0.028c0.021-0.035,0.043-0.069,0.064-0.1h-0.484H24.375
		z"/>
	<path fill="#FFFFFF" d="M19.608,19.706v-1.64h-1.195v1.64v0.005h0.335c0.144-0.809,0.388-0.789,0.388-0.789
		c0.079,0.4,0.238,0.646,0.424,0.789h0.049V19.706L19.608,19.706z"/>
	<path fill="#FFFFFF" d="M20.799,18.066v1.046c0.351-0.351,0.562-0.724,0.688-1.046H20.799L20.799,18.066z"/>
	<path fill="#FFFFFF" d="M17.282,19.711v1.646h0.545c0.23-0.241,0.438-0.47,0.586-0.647v-0.999H17.282z"/>
	<path fill="#FFFFFF" d="M19.608,19.745c0.424,0.286,0.953,0.086,0.953,0.086c-0.063-0.026-0.106-0.073-0.137-0.12h-0.816V19.745z"
		/>
	<path fill="#FFFFFF" d="M62.539,19.711v-0.005v-1.64h-0.526c-0.089,0.612-0.354,0.836-0.664,0.866v0.774v0.005h-1.191v-1.25
		c-0.082-0.053-0.129-0.093-0.129-0.093c-0.73-0.325-0.264,0.554-0.264,0.554c0.368,0.233,0.379,0.558,0.323,0.789h0.068v1.643
		v0.003h1.19v1.646l0,0h-1.19v-1.646h-0.438c0.041,0.14,0.074,0.231,0.074,0.231c0.1,0.78-0.465,0.942-0.83,0.977v0.438h-0.135
		c0.156,0.714-0.496,0.9-1.061,0.929v0.716l0,0h1.194l0,0v-1.645l0,0h1.192v1.645l0,0h1.191v1.641l0,0h-1.191v-1.641h-1.192l0,0
		v1.641h-1.194l0,0v1.647l0,0h1.194l0,0v-1.647l0,0h1.192v1.647l0,0h1.191v1.643l0,0h-1.191v-1.643h-1.192l0,0v1.643h-1.194l0,0
		v1.643l0,0h0.289c0.457-0.58,0.735-0.622,0.905-0.516v-1.127l0,0h1.192v1.643l0,0h1.191v1.648l0,0h-1.166
		c0.172,0.529,0.453,0.994,0.453,0.994c0.16,0.249,0.275,0.462,0.352,0.649h0.361v1.643l0,0h-0.754c0,0.194,0.16,0.314,0.16,0.314
		c0.67,0.325,0.42,1.205,0.379,1.333h0.215v0.96c0.1,0.078,0.188,0.113,0.188,0.113c0.198,0.083,0.373,0.29,0.526,0.569h0.478v1.367
		c0.021,0.094,0.043,0.189,0.063,0.279h1.125v-1.646h-1.188l0,0v-1.641h-1.19l0,0v-1.645h1.19v1.645l0,0l0,0h1.188v-1.647h-1.188
		l0,0v-1.643h-1.19V32.87h1.19v1.644l0,0h1.188V32.87h-1.188l0,0v-1.648h-1.19l0,0v-1.643h1.19v1.643l0,0l0,0h1.188v-1.643h-1.188
		l0,0v-1.643h-1.19l0,0v-1.647h1.19v1.647l0,0l0,0h1.188v-1.647h-1.188l0,0v-1.641h-1.19l0,0v-1.645h1.19v1.645l0,0l0,0h1.188
		v-1.645h-1.188l0,0v-1.646h-1.19v-0.003v-1.643H62.539v1.643v0.003l0,0h1.188v-1.646H62.539z"/>
	<path fill="#FFFFFF" d="M55.383,26.289v-0.227c-0.252-0.197-0.438-0.4-0.438-0.4c0.078,0.261,0.121,0.465,0.137,0.627H55.383
		L55.383,26.289z"/>
	<path fill="#FFFFFF" d="M51.808,27.936v-0.311c-0.105,0.003-0.17,0-0.17,0c-0.043,0.1-0.134,0.207-0.23,0.311H51.808L51.808,27.936
		z"/>
	<path fill="#FFFFFF" d="M52.998,27.936h1.194v-1.382c-0.104-0.074-0.18-0.133-0.18-0.133c-0.119,0.539-0.551,0.837-1.016,1
		L52.998,27.936L52.998,27.936z"/>
	<path fill="#FFFFFF" d="M55.383,26.289v1.647l0,0h1.197v-1.647h1.188l0,0l0,0v-1.641H57.33c-0.117,0.249-0.586,0.219-0.586,0.219
		c0.032,0.649-0.037,1.048-0.164,1.285v0.138l0,0h-0.106c-0.201,0.191-0.479,0.138-0.744,0L55.383,26.289L55.383,26.289z"/>
	<path fill="#FFFFFF" d="M50.617,29.579v-1.106c-0.363,0.191-0.604,0.644-0.763,1.106H50.617L50.617,29.579z"/>
	<polygon fill="#FFFFFF" points="51.808,29.579 52.998,29.579 52.998,29.579 52.998,27.936 51.808,27.936 	"/>
	<polygon fill="#FFFFFF" points="55.383,29.579 55.383,27.936 54.192,27.936 54.192,29.579 54.192,29.579 	"/>
	<polygon fill="#FFFFFF" points="57.769,29.579 57.769,27.936 56.58,27.936 56.58,29.579 56.58,29.579 55.383,29.579 55.383,29.579 
		55.383,31.222 55.383,31.222 56.58,31.222 56.58,29.579 57.769,29.579 	"/>
	<path fill="#FFFFFF" d="M49.418,31.222V30.92l-0.517,0.043c0,0.092,0.043,0.18,0.113,0.258L49.418,31.222L49.418,31.222z"/>
	<polygon fill="#FFFFFF" points="50.617,29.579 50.617,31.222 50.617,31.222 51.808,31.222 51.808,31.222 51.808,29.579 	"/>
	<polygon fill="#FFFFFF" points="52.998,31.222 54.192,31.222 54.192,29.579 52.998,29.579 	"/>
	<path fill="#FFFFFF" d="M50.617,32.87v-1.648h-1.195h-0.004v0.325c0.133,0.075,0.242,0.121,0.242,0.121
		c-0.086,0.013-0.166,0.025-0.242,0.037v0.974c0.049,0.059,0.101,0.124,0.146,0.192L50.617,32.87L50.617,32.87z"/>
	<polygon fill="#FFFFFF" points="51.808,32.87 52.998,32.87 52.998,32.87 52.998,31.222 51.808,31.222 	"/>
	<polygon fill="#FFFFFF" points="54.192,32.87 54.192,32.87 55.383,32.87 55.383,32.87 55.383,31.222 54.192,31.222 	"/>
	<path fill="#FFFFFF" d="M57.25,31.222c0.181,0.522,0.401,0.461,0.519,0.376v-0.376H57.25z"/>
	<path fill="#FFFFFF" d="M56.58,32.418c0.021-0.281,0.019-0.487,0.019-0.487c0-0.295,0.014-0.523,0.03-0.709H56.58V32.418
		L56.58,32.418z"/>
	<path fill="#FFFFFF" d="M59.998,31.222c0.104,0.247,0.146,0.504,0.146,0.504c-0.152,0.283-0.104,0.684,0.014,1.063v-1.567H59.998z"
		/>
	<rect x="50.617" y="32.87" fill="#FFFFFF" width="1.188" height="1.644"/>
	<rect x="52.998" y="32.87" fill="#FFFFFF" width="1.194" height="1.644"/>
	<path fill="#FFFFFF" d="M55.383,32.87v0.969c0.732,0.44,1.021-0.288,1.14-0.969H55.383L55.383,32.87z"/>
	<path fill="#FFFFFF" d="M50.617,36.157v-1.643h-0.396c0.157,0.678,0.19,1.225,0.19,1.225c-0.004,0.154-0.004,0.29,0,0.417
		L50.617,36.157L50.617,36.157z"/>
	<path fill="#FFFFFF" d="M52.998,36.157v-1.643h-1.19v1.131c0.155,0.202,0.291,0.447,0.291,0.447c-0.002,0.025,0,0.045-0.002,0.064
		L52.998,36.157L52.998,36.157z"/>
	<path fill="#FFFFFF" d="M54.192,36.157L54.192,36.157h1.136c-0.039-0.076-0.063-0.123-0.063-0.123
		c-0.379-0.414-0.408-1.171-0.408-1.171c0.004-0.133,0.01-0.245,0.02-0.349h-0.682v1.643H54.192z"/>
	<path fill="#FFFFFF" d="M50.617,37.159c0.262,0.507,0.696,0.34,0.696,0.34l-0.059-1.289c0-0.018,0-0.035,0-0.054h-0.639
		L50.617,37.159L50.617,37.159z"/>
	<polygon fill="#FFFFFF" points="52.998,37.804 54.192,37.804 54.192,36.157 52.998,36.157 	"/>
	<path fill="#FFFFFF" d="M55.383,36.299v0.915C55.522,36.865,55.459,36.523,55.383,36.299z"/>
	<path fill="#FFFFFF" d="M52.998,37.804h-0.403c0.065,0.119,0.131,0.222,0.194,0.314c0.067,0.01,0.137,0.018,0.209,0.025V37.804z"/>
	<path fill="#FFFFFF" d="M54.192,38.166c0.052,0,0.101,0.002,0.154,0.002c0.211-0.126,0.365-0.231,0.365-0.231
		c0.072-0.044,0.137-0.084,0.195-0.133h-0.715V38.166L54.192,38.166z"/>
	<path fill="#FFFFFF" d="M62.873,42.743c0.252,0.634,0.463,1.178,0.635,1.643h0.22v-1.648h-0.854V42.743L62.873,42.743z"/>
	<path fill="#FFFFFF" d="M63.692,47.259c0.013,0,0.021,0,0.033,0v-0.023C63.715,47.243,63.705,47.249,63.692,47.259z"/>
	<path fill="#13A84E" d="M65.332,55.505c0,0.004-0.002,0.008-0.004,0.023h0.004V55.505z"/>
	<path fill="#1B8641" d="M17.278,23.175c0.156,0.062,0.338,0.127,0.549,0.201c0,0,0.521,0.183,0.915,0.861
		c0.108,0.182,0.202,0.398,0.278,0.664c0,0,0.232,0.935,2.063,0.673c0,0,0.867,0.468,1.013,0.879c0,0,0.698,0.469,1.92,0.233
		c0,0,0.899,0.119,0.666,1.085c0,0-0.58,0.44,0.063,1.522c0,0,0.459,0.44-0.904,0.94c0,0-1.074,0.438-0.959,1.377
		c0,0-0.056,1.227,1.248,1.554c0,0,1.367,0.526,1.16,0.965c0,0-0.314,0.437-0.289,0.85c0,0-0.318,0.674-0.49,0.733
		c0,0,0,0.32,1.246,0.965c0,0,0.379,0.236,0.668-0.352c0,0,1.104-0.18,0.902,0.032c0,0-2.612,2.401,0,4.157
		c0,0-1.747,0.762-0.581,1.467v1.464c0,0,1.103,0.883,0,1.76c0,0-0.233,0.701,0.87,1.228c0,0,0.751,0.299,0.291,1.879
		c0,0,0.113,3.633,1.333,4.977c0,0,0.465,0.422,0.231-2.633c0,0,0.407-0.936,1.108-1.119c0,0-0.353,2.555,0.813,3.322
		c0,0,0.457,0.531,1.707-0.531c0,0,0.586-0.119,0.73,0.295c0,0,0.264,0.527,1.157-0.055l-0.402-0.654c0,0-0.465-0.645,0.402-0.26
		c0,0,0.758,0.73,1.338,0.26c0,0,0.58-0.373,0.407-1.959c0,0-0.116-0.908,1.162,0.965c0,0,0.261,0.146,0.172-0.324
		c0,0,0.265-0.551,0.265,0.914c0,0,0.406,0.201,0.666,0.174c0,0-0.608,0.679-0.349,0.785c0,0,2.521,0.59,3.279-2.541
		c0,0,0.031-0.356,0.467-0.297c0,0,0.521-0.291,0.724-0.729c0,0,0.437,0.057,0.813,0.819c0,0,0.232-0.057,0.437-0.496
		c0,0,0.267-0.207,0.267,0.73c0,0,1.622,0.387,1.536-1.553c0,0-0.062-4.221,0.869-4.396c0,0,0.438-0.268,1.078,0.264l0.172-0.584
		c0,0,1.045,1.142,1.918,0.527c0,0,0.496-0.734-0.351-1.701l0.699-0.088c0,0,1.043-1.087,1.506-1.35c0,0,0.234-0.647,0.379-0.731
		c0,0,0.234-0.381,0,1.228c0,0-0.231,0.646,1.511,2.2c0,0,1.366,1.402,1.45,3.427c0,0,0.201,1.412,0.728-0.465
		c0,0,0.611-1.318,2.789-1.611c0,0,0.086,2.402,0.318,3.367c0,0,0.315,0.937-0.406,1.024c0,0-1.479,0.15-0.438,0.855
		c0,0,0.787,0.818,1.076,0.9l-0.176-0.998c0,0,0.236-0.383,0.348,0.418l0.178,0.904c0,0-1.51-0.381-1.217,0.407
		c0,0,0.146,0.882,0.84,2.199c0,0,0.377,0.733,0.23,0.903c0,0-1.043-0.522-1.043-0.229c0,0-0.463-0.021,0.576,2.021l1.02,0.154
		c0,0-0.522-1.968,0.291-2.291c0,0,0.783-0.148,0.961-0.148c0,0,0.314-0.615,0.521,0.65c0,0,0,0.729,1.537,0.35
		c0,0,0.041,0.137,0.125,0.318c0.168,0.393,0.492,0.994,0.924,1.121l-0.787-8.177c0,0-0.617-1.147-0.107-1.612
		c0.013-0.011,0.021-0.017,0.033-0.023v0.023c0.109-0.021,0.213-0.05,0.303-0.101l0.043-0.021c0.029,0,0.068-0.004,0.095-0.047
		l0.883-0.467l0.154,1.145c0.051,0.371,0.092,0.734,0.129,1.103V0H15.673v24.095C16.199,23.775,16.733,23.47,17.278,23.175z
		 M63.728,1.618v1.644v1.647V6.55v1.645v1.646v1.646v1.645v1.648v1.64v1.646v1.645v1.646v1.646v1.645v1.641v1.647v1.643v1.643v1.648
		v1.644v1.643v1.647v1.641v1.648v1.645v1.647v0.611c-0.066-0.184-0.14-0.389-0.22-0.611c-0.172-0.465-0.383-1.008-0.635-1.642
		v-0.006c-0.008-0.043-0.084-0.808-0.271-1.645c-0.021-0.09-0.043-0.186-0.063-0.279c-0.119-0.496-0.278-0.992-0.478-1.367
		c-0.153-0.279-0.328-0.486-0.526-0.569c0,0-0.088-0.035-0.188-0.113c-0.19-0.147-0.426-0.446-0.217-0.942c0,0,0-0.008,0.002-0.018
		c0.041-0.128,0.291-1.008-0.379-1.333c0,0-0.16-0.12-0.16-0.314c0-0.143,0.09-0.333,0.42-0.537c0,0,0.354-0.235-0.027-1.106
		c-0.075-0.187-0.19-0.401-0.352-0.649c0,0-0.281-0.465-0.453-0.994c-0.008-0.03-0.02-0.054-0.024-0.082
		c-0.117-0.379-0.166-0.78-0.015-1.063c0,0-0.041-0.257-0.145-0.504l0,0c-0.141-0.329-0.396-0.629-0.814-0.172
		c0,0-0.059-0.238-0.221-0.344l0,0c-0.17-0.106-0.449-0.064-0.906,0.516c-0.063,0.089-0.135,0.187-0.207,0.301
		c0,0-0.029,0.039-0.082,0.076c-0.115,0.084-0.338,0.146-0.518-0.376l0,0c-0.027-0.066-0.049-0.143-0.074-0.229
		c0,0-0.432-0.942-0.547,0.229l0,0c-0.018,0.186-0.031,0.414-0.031,0.709c0,0,0.004,0.206-0.018,0.487
		c-0.014,0.137-0.033,0.294-0.059,0.452c-0.117,0.681-0.406,1.41-1.14,0.969c-0.002,0-0.002,0-0.008-0.005
		c0,0-0.408-0.416-0.5,0.679l0,0c-0.011,0.104-0.017,0.215-0.021,0.349c0,0,0.029,0.757,0.408,1.171c0,0,0.025,0.047,0.064,0.123
		c0.018,0.044,0.037,0.088,0.055,0.143c0.076,0.224,0.141,0.566,0,0.915c-0.08,0.201-0.229,0.404-0.469,0.59
		c-0.006,0-0.006,0-0.006,0c-0.059,0.049-0.123,0.089-0.195,0.133c0,0-0.154,0.104-0.365,0.231c-0.404,0.25-1.023,0.584-1.178,0.471
		c0,0-0.172-0.198-0.381-0.521c-0.064-0.092-0.129-0.196-0.195-0.314l0,0c-0.26-0.457-0.504-1.05-0.498-1.647
		c0.002-0.02,0-0.04,0.002-0.064c0,0-0.135-0.245-0.291-0.447c-0.242-0.31-0.559-0.501-0.551,0.512l0,0c0,0.019,0,0.037,0,0.054
		l0.059,1.289c0,0-0.436,0.167-0.696-0.34c-0.111-0.204-0.193-0.518-0.205-1.003c-0.005-0.128-0.005-0.264,0-0.417
		c0,0-0.033-0.547-0.191-1.225l0,0c-0.122-0.539-0.329-1.156-0.657-1.644c-0.045-0.068-0.097-0.133-0.146-0.192
		c-0.172-0.211-0.369-0.394-0.603-0.512c0,0-0.434-0.285,0.603-0.462c0.076-0.012,0.155-0.024,0.242-0.037
		c0,0-0.109-0.046-0.242-0.121c-0.131-0.078-0.299-0.191-0.401-0.325c-0.07-0.078-0.113-0.167-0.113-0.258l0.516-0.043h0.004
		l0.152-0.013c0,0,0.057-0.673,0.281-1.329c0.158-0.462,0.397-0.915,0.762-1.106c0.07-0.04,0.15-0.069,0.23-0.084
		c0,0,0.321-0.208,0.559-0.452l0,0c0.098-0.104,0.188-0.211,0.229-0.311c0,0,0.064,0.003,0.171,0
		c0.248-0.004,0.735-0.038,1.19-0.205c0.465-0.163,0.896-0.461,1.017-1c0,0,0.073,0.059,0.18,0.133l0,0
		c0.322,0.219,0.961,0.556,0.887-0.265c-0.016-0.163-0.059-0.366-0.137-0.627c0,0,0.188,0.204,0.438,0.4
		c0.104,0.084,0.226,0.165,0.347,0.227c0.266,0.138,0.543,0.191,0.744,0c0.038-0.034,0.071-0.083,0.106-0.138
		c0.127-0.236,0.196-0.635,0.164-1.285c0,0,0.469,0.03,0.586-0.219l0,0c0.069-0.14,0.021-0.371-0.298-0.745
		c0,0,0.345,0.053,0.734,0.029l0,0c0.564-0.029,1.217-0.215,1.062-0.929c-0.022-0.133-0.078-0.28-0.166-0.448
		c0,0,0.127,0.017,0.301,0.01c0.365-0.034,0.931-0.197,0.83-0.977c0,0-0.033-0.091-0.074-0.231c0-0.003,0-0.003,0-0.003
		c-0.088-0.351-0.187-1.012,0.248-1.35c0,0,0.076-0.121,0.121-0.293c0.056-0.231,0.045-0.556-0.323-0.789
		c0,0-0.468-0.879,0.264-0.554c0,0,0.047,0.04,0.129,0.093c0.234,0.178,0.754,0.513,1.191,0.471c0.311-0.03,0.575-0.254,0.663-0.866
		l0,0c0.007-0.038,0.013-0.074,0.017-0.111c0,0,0.231-0.447-0.68-0.973c-0.162-0.096-0.359-0.189-0.595-0.287
		c0,0-0.267-0.054-0.599-0.182c-0.071-0.028-0.146-0.06-0.225-0.091c-0.357-0.165-0.744-0.406-0.953-0.752
		c0,0-0.004-0.01-0.016-0.022c-0.064-0.071-0.336-0.291-1.195-0.394c-0.311-0.04-0.705-0.06-1.188-0.054
		c-0.348,0.004-0.746,0.024-1.197,0.059c-0.262,0.024-0.543,0.049-0.842,0.083c0,0-0.1,0.163-0.348,0.286l0,0
		c-0.238,0.115-0.617,0.199-1.195,0.104c-0.057-0.01-0.111-0.02-0.174-0.035c0,0-0.289-0.119-0.99,0.06c0,0-0.004,0-0.027,0
		c-0.131,0.004-0.686,0.004-1.189-0.064c-0.192-0.025-0.37-0.059-0.524-0.114c0,0-0.267-0.011-0.674-0.014
		c-0.328,0-0.75,0.005-1.188,0.034l0,0c-0.408,0.022-0.826,0.062-1.192,0.13c-0.246,0.045-0.478,0.104-0.66,0.174
		c0,0-0.215,0.044-0.535,0.084c-0.325,0.034-0.769,0.053-1.188,0.012c-0.267-0.029-0.521-0.086-0.746-0.18
		c0,0-0.156-0.059-0.447-0.081c-0.281-0.023-0.686-0.017-1.193,0.093c-0.316,0.066-0.668,0.174-1.057,0.334
		c0,0-0.051-0.007-0.133-0.022l0,0c-0.211-0.029-0.656-0.104-1.195-0.207l0,0c-0.369-0.076-0.783-0.167-1.191-0.27l0,0
		c-0.418-0.103-0.828-0.227-1.192-0.361c-0.356-0.129-0.66-0.273-0.877-0.43c0,0-0.13-0.06-0.314-0.094
		c-0.016,0-0.028-0.001-0.045-0.001c-0.004-0.002-0.01-0.002-0.01-0.006c-0.09-0.012-0.19-0.014-0.302,0
		c0,0.003-0.002,0.003-0.002,0.006c-0.161,0.017-0.332,0.083-0.487,0.215c0,0-0.238,0.097-0.349-0.083
		c-0.021-0.034-0.037-0.08-0.049-0.132c-0.018-0.126-0.01-0.295,0.049-0.54c0.002-0.005,0.002-0.005,0.002-0.005
		c0.021-0.091,0.05-0.187,0.084-0.292c0,0,0.068-0.313,0.134-0.812c0.053-0.43,0.098-1.006,0.084-1.645l0,0
		c-0.011-0.517-0.056-1.083-0.162-1.646c-0.041-0.193-0.086-0.386-0.142-0.578c0-0.006-0.002-0.006-0.002-0.01
		c0,0-0.055-0.241,0.002-0.527c0.037-0.174,0.115-0.364,0.277-0.532c0.002,0,0.002,0,0.002,0c0.043-0.042,0.09-0.081,0.141-0.123
		c-0.071-0.034-0.207-0.147-0.418-0.418c0-0.002,0-0.002-0.002-0.002c-0.037-0.047-0.075-0.1-0.121-0.155
		c0,0-0.334-0.494-0.379-0.947l0,0c-0.01-0.111,0-0.219,0.035-0.317c0,0-0.401-0.217-0.726-0.458
		c-0.224-0.16-0.408-0.332-0.408-0.448V4.909l0,0V4.742c0,0-0.235,0.02-0.409,0.167l0,0c-0.119,0.093-0.207,0.254-0.17,0.504
		c0,0-0.103,0.038-0.209,0.106c-0.199,0.143-0.424,0.418,0,0.835c0.022,0.018,0.038,0.038,0.063,0.058c0,0,0.015,0.06,0.021,0.141
		c0.012,0.108,0.002,0.265-0.08,0.385h-0.004c-0.013,0.01-0.697,0.48-0.635,0.569c-0.07-0.04-0.287-0.148-0.559-0.259
		c-0.355-0.155-0.822-0.317-1.189-0.337c-0.027,0-0.055-0.005-0.084-0.005c0,0-0.453-0.13-0.93-0.356
		c-0.063-0.029-0.123-0.057-0.184-0.086c-0.445-0.236-0.861-0.558-0.891-0.935c0,0,0.021-0.266-0.02-0.62l0,0
		c-0.035-0.311-0.108-0.673-0.277-0.994l0,0c-0.157-0.29-0.391-0.536-0.74-0.653c-0.133-0.044-0.277-0.072-0.443-0.076
		c0,0-0.004-0.003-0.012-0.003l0,0c-0.074-0.002-0.548-0.048-0.598-0.346c0,0-0.281,0.194-0.374,0.426
		c-0.097,0.235,0.006,0.521,0.776,0.688c0,0,0.084,0.077,0.194,0.183c0.267,0.258,0.701,0.704,0.622,0.775c0,0,0,0,0,0.001
		c-0.004,0.005-0.014,0.007-0.027,0.007L27.083,4.91l-0.012-0.001l-0.307-0.014l-0.221-0.007c0,0-0.49-0.22-0.975-0.269
		c-0.127-0.01-0.244-0.012-0.365,0.006c0,0-0.377-0.271-0.829-0.624c-0.296-0.228-0.626-0.494-0.909-0.739
		c-0.1-0.089-0.191-0.173-0.277-0.254c-0.221-0.208-0.373-0.391-0.393-0.494h-0.49c0,0-0.135-0.081-0.312-0.214
		c-0.222-0.164-0.511-0.412-0.69-0.681c0-0.005,0-0.005-0.004-0.01h42.428V1.618L63.728,1.618z M20.214,1.609
		c-0.002,0.005-0.002,0.005-0.005,0.01c-0.222,0.448-0.403,1.099,0.024,1.644l0,0c0.01,0.014,0.021,0.029,0.037,0.044
		c0,0,0.01-0.017,0.021-0.044l0,0c0.069-0.108,0.246-0.376,0.507-0.433c0.207-0.044,0.453,0.039,0.73,0.433
		c0.08,0.115,0.164,0.253,0.25,0.422L21.69,3.892c0,0-0.489-0.022-0.894,0.319l0,0c-0.177,0.15-0.34,0.37-0.438,0.697
		c0,0,0,0,0,0.001c-0.043,0.144-0.078,0.314-0.09,0.504c0,0,0.174,0.116-0.582,0.266c0,0-0.031,0.006-0.08,0.018
		c-0.176,0.05-0.609,0.231-0.978,0.854c-0.075,0.13-0.147,0.273-0.219,0.44c-0.123,0.321-0.236,0.715-0.3,1.205
		c-0.053,0.359-0.079,0.768-0.079,1.235c0,0-0.076,0.197-0.087,0.411l0,0c-0.002,0.244,0.076,0.504,0.466,0.484
		c0.174-0.004,0.396-0.061,0.692-0.191c0,0,0.197-0.069,0.502,0.076c0.26,0.125,0.59,0.405,0.955,1.005c0,0,0.06,0.104,0.178,0.271
		l0,0c0.015,0.027,0.039,0.053,0.059,0.086c0.246,0.326,0.657,0.833,1.195,1.247c0.146,0.113,0.3,0.217,0.462,0.312l0,0
		c0.231,0.13,0.478,0.233,0.731,0.307c0.369,0.094,0.771,0.113,1.188,0c0.225-0.054,0.452-0.153,0.686-0.295
		c0,0,0.142,0.883,0.51,1.51c0.024,0.04,0.051,0.084,0.074,0.12c0,0.003,0,0.003,0,0.006c0.236,0.339,0.547,0.57,0.955,0.477
		c0,0,0.157,0.083,0.164,0.204c0,0.003,0,0.005,0,0.01l0,0c0,0.004,0,0.004,0,0.01c-0.003,0.055-0.039,0.121-0.134,0.189
		c0,0-0.263,0.263-0.317,0.526c-0.063,0.266-0.324,0.146-0.642-0.147c0,0-0.039-0.002-0.101,0l0,0
		c-0.162,0.01-0.489,0.067-0.709,0.371l0,0c-0.021,0.03-0.043,0.064-0.063,0.1c0,0-0.164-0.01-0.423-0.028
		c-0.202-0.018-0.466-0.04-0.747-0.072c-0.144-0.014-0.293-0.034-0.44-0.054c-0.435-0.059-0.873-0.139-1.192-0.24
		c-0.204-0.062-0.363-0.138-0.448-0.222c0,0-0.059,0.222-0.059,0.517c0,0.261,0.039,0.586,0.205,0.861c0,0-0.021,0.337-0.205,0.785
		l0,0c-0.127,0.322-0.34,0.695-0.688,1.046c-0.128,0.127-0.272,0.255-0.442,0.368c0,0,0,0.124,0.066,0.226c0,0,0,0,0.003,0.005
		c0.029,0.047,0.073,0.094,0.138,0.12c0,0-0.53,0.2-0.955-0.086c-0.02-0.009-0.033-0.019-0.049-0.034
		c-0.186-0.143-0.345-0.388-0.424-0.789c0,0-0.244-0.02-0.388,0.789c-0.032,0.185-0.06,0.419-0.074,0.704
		c0,0-0.101,0.118-0.261,0.295c-0.146,0.177-0.354,0.406-0.586,0.647c-0.176,0.187-0.363,0.386-0.545,0.563v-0.563v-1.646v-0.005
		v-1.64v-1.646l0,0v-1.64v-1.648l0,0v-1.645V9.842l0,0V8.195V6.55l0,0V4.909V3.262l0,0V1.618v-0.01L20.214,1.609L20.214,1.609z"/>
	<path fill="#EB2329" d="M62.002,55.259c-0.207-1.266-0.521-0.649-0.521-0.649c-0.178,0-0.961,0.147-0.961,0.147
		c-0.814,0.324-0.291,2.291-0.291,2.291l-1.021-0.154c-1.039-2.039-0.576-2.02-0.576-2.02c0-0.293,1.043,0.23,1.043,0.23
		c0.146-0.17-0.229-0.904-0.229-0.904c-0.695-1.318-0.84-2.199-0.84-2.199c-0.293-0.789,1.217-0.408,1.217-0.408l-0.178-0.904
		c-0.111-0.801-0.349-0.418-0.349-0.418l0.177,0.998c-0.289-0.082-1.076-0.899-1.076-0.899c-1.041-0.705,0.438-0.854,0.438-0.854
		c0.723-0.09,0.406-1.025,0.406-1.025c-0.232-0.965-0.318-3.367-0.318-3.367c-2.178,0.293-2.789,1.611-2.789,1.611
		c-0.525,1.877-0.727,0.465-0.727,0.465c-0.084-2.023-1.451-3.426-1.451-3.426c-1.742-1.555-1.51-2.201-1.51-2.201
		c0.234-1.608,0-1.228,0-1.228c-0.146,0.084-0.379,0.731-0.379,0.731c-0.463,0.263-1.506,1.351-1.506,1.351l-0.699,0.088
		c0.846,0.965,0.35,1.701,0.35,1.701c-0.873,0.612-1.918-0.527-1.918-0.527l-0.172,0.584c-0.641-0.531-1.078-0.264-1.078-0.264
		c-0.93,0.176-0.869,4.396-0.869,4.396c0.086,1.938-1.537,1.553-1.537,1.553c0-0.938-0.266-0.729-0.266-0.729
		c-0.203,0.438-0.436,0.496-0.436,0.496c-0.379-0.765-0.814-0.82-0.814-0.82c-0.201,0.439-0.723,0.73-0.723,0.73
		c-0.437-0.062-0.467,0.297-0.467,0.297c-0.759,3.131-3.279,2.541-3.279,2.541c-0.262-0.107,0.348-0.785,0.348-0.785
		c-0.26,0.026-0.666-0.174-0.666-0.174c0-1.465-0.264-0.914-0.264-0.914c0.088,0.471-0.172,0.324-0.172,0.324
		c-1.279-1.873-1.162-0.966-1.162-0.966c0.172,1.586-0.408,1.959-0.408,1.959c-0.58,0.472-1.338-0.26-1.338-0.26
		c-0.867-0.386-0.402,0.26-0.402,0.26l0.402,0.654c-0.895,0.582-1.157,0.055-1.157,0.055c-0.146-0.414-0.729-0.295-0.729-0.295
		c-1.25,1.063-1.707,0.531-1.707,0.531c-1.166-0.769-0.814-3.322-0.814-3.322c-0.701,0.185-1.109,1.119-1.109,1.119
		c0.233,3.055-0.23,2.633-0.23,2.633c-1.221-1.344-1.333-4.978-1.333-4.978c0.46-1.579-0.291-1.879-0.291-1.879
		c-1.104-0.524-0.87-1.227-0.87-1.227c1.104-0.877,0-1.76,0-1.76v-1.464c-1.166-0.705,0.581-1.467,0.581-1.467
		c-2.612-1.756,0-4.157,0-4.157c0.201-0.212-0.901-0.032-0.901-0.032c-0.289,0.588-0.668,0.352-0.668,0.352
		c-1.246-0.645-1.246-0.965-1.246-0.965c0.172-0.059,0.489-0.733,0.489-0.733c-0.024-0.413,0.289-0.85,0.289-0.85
		c0.207-0.438-1.16-0.965-1.16-0.965c-1.304-0.327-1.248-1.554-1.248-1.554c-0.114-0.939,0.96-1.377,0.96-1.377
		c1.362-0.5,0.903-0.94,0.903-0.94c-0.644-1.083-0.063-1.522-0.063-1.522c0.234-0.966-0.666-1.085-0.666-1.085
		c-1.221,0.236-1.918-0.233-1.918-0.233c-0.146-0.411-1.014-0.879-1.014-0.879c-1.831,0.262-2.064-0.673-2.064-0.673
		c-0.074-0.266-0.17-0.482-0.277-0.664C8.354,29.491,1.576,40.314,1.576,52.138c0,17.238,13.978,31.254,31.159,31.254
		c15.904,0,29.063-12.016,30.932-27.465c-0.084-0.182-0.125-0.317-0.125-0.317C62.002,55.989,62.002,55.259,62.002,55.259z
		 M16.009,56.849l1.381,2.252l1.358-2.252h1.369l-2.166,3.297v2.395h-1.181v-2.4l-2.156-3.291H16.009L16.009,56.849z M14.61,69.317
		c-0.123,0.246-0.295,0.438-0.512,0.59c-0.211,0.146-0.479,0.234-0.798,0.268c-0.196,0.021-0.672,0.043-1.434,0.043h-2v-5.69h2.353
		c0.465,0,0.813,0.014,1.038,0.062c0.23,0.032,0.437,0.112,0.617,0.229c0.185,0.112,0.334,0.278,0.449,0.471
		c0.123,0.203,0.182,0.425,0.182,0.67c0,0.269-0.071,0.513-0.224,0.729c-0.145,0.222-0.348,0.396-0.604,0.498
		c0.359,0.113,0.637,0.277,0.826,0.521c0.193,0.244,0.291,0.527,0.291,0.857C14.798,68.829,14.733,69.069,14.61,69.317z
		 M18.421,70.218c-0.027-0.076-0.063-0.184-0.105-0.319c-0.018-0.074-0.031-0.113-0.039-0.138c-0.194,0.189-0.403,0.314-0.62,0.408
		c-0.22,0.09-0.452,0.137-0.703,0.137c-0.438,0-0.782-0.116-1.037-0.344c-0.252-0.229-0.383-0.521-0.383-0.873
		c0-0.231,0.065-0.438,0.178-0.623c0.115-0.188,0.274-0.32,0.481-0.41c0.209-0.104,0.504-0.194,0.897-0.264
		c0.526-0.094,0.896-0.182,1.097-0.266v-0.105c0-0.207-0.055-0.361-0.162-0.455c-0.106-0.082-0.311-0.133-0.604-0.133
		c-0.205,0-0.358,0.043-0.467,0.117c-0.117,0.076-0.206,0.207-0.274,0.404l-1.023-0.182c0.115-0.404,0.313-0.693,0.596-0.882
		c0.279-0.188,0.695-0.293,1.254-0.293c0.5,0,0.878,0.058,1.121,0.175c0.244,0.118,0.419,0.256,0.52,0.434
		c0.102,0.184,0.15,0.508,0.15,0.979l-0.01,1.273c0,0.362,0.014,0.631,0.049,0.803c0.041,0.174,0.107,0.353,0.207,0.556H18.421
		L18.421,70.218z M19.869,60.413c0-0.357,0.092-0.707,0.274-1.049c0.186-0.334,0.446-0.594,0.785-0.771
		c0.34-0.184,0.717-0.274,1.135-0.274c0.645,0,1.176,0.202,1.584,0.608c0.412,0.408,0.619,0.916,0.619,1.537
		c0,0.623-0.207,1.139-0.619,1.551c-0.422,0.404-0.945,0.611-1.574,0.611c-0.391,0-0.768-0.082-1.119-0.254
		c-0.357-0.174-0.625-0.42-0.811-0.75C19.961,61.294,19.869,60.89,19.869,60.413z M24.327,70.218h-1.13v-2.1
		c0-0.447-0.024-0.738-0.071-0.867c-0.049-0.135-0.128-0.23-0.236-0.305c-0.107-0.075-0.236-0.113-0.395-0.113
		c-0.189,0-0.367,0.053-0.525,0.154c-0.152,0.105-0.262,0.24-0.313,0.414c-0.06,0.17-0.089,0.482-0.089,0.947v1.869H20.44v-4.123
		h1.048v0.603C21.863,66.232,22.33,66,22.892,66c0.246,0,0.48,0.043,0.683,0.138c0.207,0.082,0.364,0.188,0.467,0.323
		c0.108,0.144,0.185,0.289,0.224,0.464c0.039,0.168,0.063,0.414,0.063,0.729L24.327,70.218L24.327,70.218z M25.167,58.417h1.127
		v1.893c0,0.58,0.021,0.933,0.063,1.063c0.043,0.134,0.119,0.229,0.229,0.312c0.112,0.076,0.249,0.119,0.421,0.119
		c0.188,0,0.359-0.058,0.512-0.154c0.153-0.109,0.258-0.229,0.316-0.377c0.053-0.16,0.082-0.533,0.082-1.117v-1.736h1.126v4.123
		h-1.045v-0.621c-0.153,0.217-0.36,0.387-0.612,0.519c-0.252,0.127-0.517,0.188-0.8,0.188c-0.287,0-0.546-0.059-0.774-0.176
		c-0.227-0.117-0.391-0.295-0.492-0.521c-0.102-0.211-0.151-0.518-0.151-0.907L25.167,58.417L25.167,58.417z M29.412,69.794
		c0,0.484-0.038,0.852-0.122,1.088c-0.084,0.24-0.199,0.424-0.348,0.572c-0.15,0.127-0.353,0.24-0.603,0.316
		c-0.248,0.076-0.563,0.117-0.946,0.117c-0.724,0-1.237-0.121-1.537-0.357c-0.308-0.244-0.453-0.541-0.453-0.908
		c0-0.033,0-0.09,0.005-0.137l1.29,0.15c0.02,0.143,0.068,0.246,0.142,0.291c0.108,0.09,0.278,0.125,0.507,0.125
		c0.293,0,0.52-0.043,0.662-0.129c0.102-0.062,0.174-0.154,0.227-0.271c0.031-0.1,0.057-0.264,0.057-0.504v-0.604
		c-0.339,0.447-0.768,0.675-1.277,0.675c-0.572,0-1.029-0.236-1.363-0.697c-0.262-0.373-0.395-0.838-0.395-1.383
		c0-0.693,0.174-1.229,0.518-1.588c0.342-0.365,0.771-0.552,1.283-0.552c0.526,0,0.959,0.228,1.303,0.67v-0.573h1.054v3.699H29.412z
		 M31.7,70.218h-1.127v-5.69H31.7V70.218z M31.41,62.626c-0.202,0-0.388-0.033-0.548-0.094c-0.16-0.066-0.281-0.156-0.36-0.26
		c-0.075-0.104-0.125-0.244-0.159-0.428c-0.025-0.123-0.033-0.384-0.033-0.761v-1.803h-0.521v-0.865h0.521v-0.817l1.131-0.638v1.455
		h0.768v0.865H31.44v1.668c0,0.334,0.004,0.524,0.021,0.574c0.015,0.063,0.048,0.112,0.101,0.146
		c0.055,0.035,0.114,0.055,0.19,0.055c0.103,0,0.257-0.037,0.453-0.104l0.097,0.844C32.04,62.573,31.745,62.626,31.41,62.626z
		 M35.481,70.218c-0.022-0.076-0.061-0.184-0.104-0.319c-0.02-0.074-0.031-0.113-0.039-0.138c-0.193,0.189-0.398,0.314-0.619,0.408
		c-0.223,0.09-0.455,0.137-0.701,0.137c-0.439,0-0.789-0.116-1.041-0.344c-0.252-0.229-0.377-0.521-0.377-0.873
		c0-0.231,0.057-0.438,0.172-0.623c0.115-0.188,0.274-0.32,0.481-0.41c0.209-0.104,0.507-0.194,0.899-0.264
		c0.527-0.094,0.891-0.182,1.098-0.266v-0.105c0-0.207-0.057-0.361-0.162-0.455c-0.109-0.082-0.311-0.133-0.607-0.133
		c-0.203,0-0.354,0.043-0.471,0.117c-0.109,0.076-0.199,0.207-0.271,0.404l-1.028-0.182c0.118-0.404,0.314-0.693,0.598-0.882
		c0.285-0.188,0.695-0.293,1.252-0.293c0.502,0,0.879,0.058,1.121,0.175c0.252,0.118,0.424,0.256,0.521,0.434
		c0.1,0.184,0.152,0.508,0.152,0.979l-0.015,1.273c0,0.362,0.021,0.631,0.058,0.803c0.037,0.174,0.104,0.353,0.199,0.556H35.481
		L35.481,70.218z M36.908,62.54h-1.125v-2.188c0-0.428-0.023-0.701-0.066-0.814c-0.043-0.119-0.116-0.207-0.225-0.279
		c-0.107-0.069-0.242-0.102-0.408-0.102c-0.185,0-0.354,0.041-0.502,0.131s-0.256,0.213-0.324,0.395
		c-0.065,0.181-0.1,0.439-0.1,0.791v2.066h-1.13v-5.691h1.13v2.097c0.364-0.42,0.799-0.627,1.303-0.627
		c0.261,0,0.494,0.053,0.701,0.144c0.209,0.094,0.366,0.213,0.471,0.354c0.109,0.154,0.179,0.311,0.222,0.484
		c0.035,0.18,0.055,0.455,0.055,0.821L36.908,62.54L36.908,62.54z M41.416,70.218h-1.045v-0.61
		c-0.177,0.237-0.379,0.407-0.619,0.526c-0.235,0.117-0.474,0.172-0.713,0.172c-0.485,0-0.91-0.19-1.261-0.571
		c-0.346-0.377-0.522-0.908-0.522-1.597c0-0.692,0.17-1.229,0.511-1.596c0.338-0.357,0.771-0.543,1.291-0.543
		c0.475,0,0.887,0.193,1.233,0.58v-2.053h1.125V70.218z M41.681,62.54h-1.125v-3.27h-0.63v-0.854h0.63v-0.319
		c0-0.342,0.039-0.603,0.112-0.769c0.078-0.172,0.218-0.313,0.422-0.418c0.203-0.101,0.464-0.155,0.772-0.155
		c0.324,0,0.64,0.049,0.943,0.137l-0.149,0.758c-0.179-0.043-0.353-0.061-0.519-0.061c-0.162,0-0.281,0.036-0.354,0.108
		c-0.068,0.073-0.104,0.221-0.104,0.418v0.301h0.842v0.854h-0.842v3.27H41.681z M43.674,69.224c0.173,0.174,0.39,0.27,0.648,0.27
		c0.178,0,0.325-0.043,0.444-0.141c0.123-0.096,0.209-0.242,0.273-0.449l1.127,0.184c-0.146,0.396-0.375,0.697-0.686,0.908
		c-0.314,0.207-0.703,0.311-1.172,0.311c-0.74,0-1.293-0.229-1.646-0.701c-0.281-0.375-0.42-0.838-0.42-1.42
		c0-0.68,0.183-1.219,0.551-1.6c0.369-0.393,0.836-0.586,1.399-0.586c0.638,0,1.136,0.207,1.503,0.604
		c0.364,0.41,0.547,1.031,0.526,1.869h-2.828C43.408,68.79,43.498,69.044,43.674,69.224z M45.14,62.626
		c-0.388,0-0.763-0.082-1.119-0.254c-0.349-0.174-0.621-0.42-0.808-0.75c-0.188-0.328-0.272-0.732-0.272-1.209
		c0-0.357,0.086-0.707,0.272-1.049c0.187-0.334,0.447-0.594,0.785-0.771c0.34-0.184,0.719-0.274,1.138-0.274
		c0.645,0,1.176,0.202,1.584,0.608c0.413,0.408,0.618,0.916,0.618,1.537c0,0.623-0.211,1.139-0.625,1.551
		C46.301,62.419,45.772,62.626,45.14,62.626z M50.281,69.897c-0.326,0.271-0.814,0.408-1.453,0.408
		c-0.576,0-1.039-0.111-1.377-0.338c-0.334-0.234-0.558-0.545-0.664-0.933l1.135-0.166c0.045,0.217,0.146,0.373,0.291,0.485
		c0.147,0.104,0.353,0.169,0.615,0.169c0.295,0,0.514-0.062,0.662-0.158c0.096-0.072,0.146-0.166,0.146-0.297
		c0-0.084-0.025-0.146-0.078-0.203c-0.057-0.047-0.186-0.095-0.381-0.142c-0.906-0.192-1.486-0.373-1.727-0.53
		c-0.34-0.218-0.506-0.533-0.506-0.929c0-0.356,0.143-0.664,0.436-0.899c0.291-0.24,0.744-0.367,1.359-0.367
		c0.582,0,1.016,0.091,1.299,0.277c0.285,0.184,0.482,0.452,0.588,0.813l-1.064,0.193c-0.045-0.16-0.135-0.291-0.258-0.375
		c-0.133-0.076-0.311-0.127-0.545-0.127c-0.295,0-0.51,0.045-0.639,0.125c-0.086,0.053-0.129,0.127-0.129,0.217
		c0,0.082,0.037,0.146,0.113,0.199c0.104,0.07,0.453,0.174,1.053,0.307c0.6,0.127,1.02,0.287,1.26,0.488
		c0.236,0.189,0.352,0.461,0.352,0.811C50.771,69.304,50.604,69.628,50.281,69.897z M50.627,59.478
		c-0.188-0.123-0.366-0.18-0.528-0.18c-0.16,0-0.295,0.047-0.402,0.127c-0.109,0.075-0.193,0.235-0.258,0.457
		c-0.064,0.227-0.097,0.678-0.097,1.383v1.274h-1.129v-4.123h1.05v0.58c0.18-0.271,0.34-0.463,0.483-0.547
		c0.146-0.08,0.303-0.133,0.483-0.133c0.259,0,0.506,0.067,0.744,0.207L50.627,59.478z M55.672,70.218h-1.121v-2.18
		c0-0.43-0.026-0.707-0.069-0.82c-0.039-0.121-0.115-0.211-0.228-0.274c-0.106-0.07-0.239-0.109-0.401-0.109
		c-0.189,0-0.359,0.052-0.508,0.134c-0.144,0.088-0.25,0.215-0.318,0.403c-0.068,0.17-0.101,0.433-0.101,0.781v2.065h-1.133v-5.69
		h1.133v2.086c0.359-0.404,0.798-0.613,1.3-0.613c0.26,0,0.496,0.048,0.703,0.14c0.207,0.094,0.364,0.215,0.473,0.36
		c0.104,0.146,0.178,0.306,0.217,0.479c0.039,0.175,0.055,0.447,0.055,0.818L55.672,70.218L55.672,70.218z"/>
	<path fill="#EB2329" d="M13.071,67.817c-0.163-0.061-0.514-0.084-1.057-0.084h-0.959v1.52h1.104c0.43,0,0.701-0.01,0.813-0.029
		c0.176-0.032,0.318-0.11,0.435-0.229c0.108-0.123,0.161-0.28,0.161-0.479c0-0.168-0.043-0.318-0.125-0.435
		C13.356,67.958,13.229,67.872,13.071,67.817z"/>
	<path fill="#EB2329" d="M16.886,68.595c-0.145,0.095-0.225,0.23-0.225,0.379c0,0.156,0.063,0.289,0.178,0.402
		c0.118,0.107,0.27,0.164,0.453,0.164c0.201,0,0.396-0.07,0.58-0.199c0.139-0.098,0.227-0.215,0.266-0.356
		c0.035-0.095,0.049-0.271,0.049-0.531v-0.218c-0.147,0.039-0.373,0.104-0.684,0.174C17.183,68.466,16.981,68.532,16.886,68.595z"/>
	<path fill="#EB2329" d="M45.138,59.208c-0.293,0-0.539,0.117-0.74,0.33c-0.201,0.221-0.303,0.521-0.303,0.938
		c0,0.408,0.102,0.726,0.303,0.937c0.201,0.226,0.447,0.33,0.74,0.33c0.299,0,0.543-0.104,0.739-0.33
		c0.201-0.211,0.297-0.53,0.297-0.944c0-0.406-0.096-0.707-0.297-0.929C45.681,59.325,45.437,59.208,45.138,59.208z"/>
	<path fill="#EB2329" d="M22.067,61.741c0.297,0,0.541-0.105,0.738-0.33c0.201-0.211,0.299-0.531,0.299-0.945
		c0-0.406-0.098-0.707-0.299-0.928c-0.197-0.213-0.441-0.33-0.738-0.33c-0.291,0-0.547,0.117-0.742,0.33
		c-0.201,0.221-0.301,0.521-0.301,0.938c0,0.408,0.1,0.726,0.301,0.937C21.521,61.636,21.776,61.741,22.067,61.741z"/>
	<path fill="#EB2329" d="M33.95,68.595c-0.15,0.095-0.223,0.23-0.223,0.379c0,0.156,0.063,0.289,0.18,0.402
		c0.113,0.107,0.267,0.164,0.443,0.164c0.207,0,0.4-0.07,0.588-0.199c0.136-0.098,0.224-0.215,0.267-0.356
		c0.032-0.095,0.047-0.271,0.047-0.531v-0.218c-0.147,0.039-0.379,0.104-0.688,0.174C34.25,68.466,34.047,68.532,33.95,68.595z"/>
	<path fill="#EB2329" d="M27.341,66.833c-0.266,0-0.49,0.109-0.662,0.311c-0.18,0.199-0.268,0.509-0.268,0.925
		c0,0.438,0.088,0.762,0.268,0.959c0.172,0.202,0.387,0.307,0.645,0.307c0.273,0,0.512-0.104,0.697-0.311
		c0.193-0.207,0.285-0.519,0.285-0.925c0-0.428-0.088-0.744-0.272-0.955C27.851,66.942,27.622,66.833,27.341,66.833z"/>
	<path fill="#EB2329" d="M39.353,66.833c-0.269,0-0.49,0.109-0.672,0.311c-0.183,0.207-0.273,0.511-0.273,0.925
		c0,0.438,0.064,0.762,0.193,0.948c0.184,0.287,0.432,0.435,0.76,0.435c0.26,0,0.481-0.112,0.664-0.324
		c0.182-0.213,0.272-0.53,0.272-0.961c0-0.467-0.088-0.805-0.266-1.021C39.851,66.946,39.625,66.833,39.353,66.833z"/>
	<path fill="#EB2329" d="M44.271,66.833c-0.25,0-0.453,0.09-0.615,0.26c-0.158,0.178-0.236,0.412-0.236,0.705h1.684
		c-0.004-0.313-0.092-0.551-0.248-0.715C44.69,66.917,44.494,66.833,44.271,66.833z"/>
	<path fill="#EB2329" d="M12.702,66.769c0.201-0.025,0.359-0.092,0.473-0.203c0.117-0.109,0.178-0.264,0.178-0.443
		c0-0.179-0.055-0.324-0.153-0.432c-0.099-0.113-0.244-0.176-0.444-0.199c-0.115-0.004-0.457-0.01-1.016-0.01h-0.682v1.309h0.773
		C12.297,66.79,12.589,66.78,12.702,66.769z"/>
	<path fill="#1B8641" d="M65.5,52.138c0-1.059-0.056-2.153-0.168-3.266c-0.037-0.367-0.078-0.73-0.129-1.102l-0.154-1.146
		l-0.883,0.468c-0.024,0.043-0.063,0.047-0.094,0.047l-0.044,0.02c-0.09,0.051-0.192,0.08-0.303,0.1c-0.012,0-0.021,0-0.033,0
		c-0.51,0.465,0.107,1.613,0.107,1.613l0.787,8.176c-0.432-0.127-0.756-0.729-0.924-1.121
		c-1.869,15.449-15.027,27.465-30.932,27.465c-17.184,0-31.159-14.016-31.159-31.254c0-11.823,6.778-22.646,17.169-27.899
		c-0.395-0.679-0.915-0.861-0.915-0.861c-0.211-0.074-0.394-0.14-0.548-0.201c-0.547,0.294-1.08,0.6-1.606,0.919
		c-3.803,2.322-7.096,5.404-9.71,9.108c-3.927,5.556-5.997,12.104-5.997,18.935c0,8.783,3.406,17.031,9.599,23.242
		c6.186,6.195,14.418,9.621,23.17,9.621c8.748,0,16.98-3.426,23.168-9.621c5.388-5.402,8.662-12.354,9.427-19.852
		c0.002-0.016,0.004-0.02,0.004-0.023C65.44,54.394,65.5,53.269,65.5,52.138z"/>
	<path fill="#12A74D" d="M54.192,38.166c-0.098-0.002-0.194-0.002-0.291-0.002c-0.321,0-0.629-0.005-0.903-0.02
		c-0.072-0.008-0.142-0.015-0.209-0.025c0.209,0.323,0.381,0.521,0.381,0.521c0.154,0.113,0.772-0.221,1.179-0.471
		C54.293,38.169,54.244,38.166,54.192,38.166L54.192,38.166z"/>
	<path fill="#13A84E" d="M35.66,7.994c-0.047,0.024-0.091,0.049-0.129,0.079C35.66,8.127,35.66,7.994,35.66,7.994z"/>
	<polygon fill="#FFFFFF" points="16.771,62.54 17.951,62.54 17.951,60.146 20.117,56.849 18.748,56.849 17.39,59.101 16.009,56.849 
		14.614,56.849 16.771,60.14 	"/>
	<path fill="#FFFFFF" d="M20.954,62.372c0.352,0.172,0.729,0.254,1.119,0.254c0.629,0,1.152-0.207,1.574-0.611
		c0.412-0.412,0.619-0.928,0.619-1.551c0-0.621-0.207-1.129-0.619-1.537c-0.408-0.406-0.939-0.608-1.584-0.608
		c-0.418,0-0.795,0.092-1.135,0.274c-0.339,0.178-0.601,0.438-0.785,0.771c-0.184,0.342-0.274,0.691-0.274,1.049
		c0,0.477,0.092,0.881,0.274,1.209C20.329,61.952,20.597,62.198,20.954,62.372z M21.325,59.538c0.195-0.213,0.451-0.33,0.742-0.33
		c0.297,0,0.541,0.117,0.738,0.33c0.201,0.221,0.299,0.521,0.299,0.928c0,0.414-0.098,0.734-0.299,0.945
		c-0.197,0.225-0.441,0.33-0.738,0.33c-0.291,0-0.547-0.105-0.742-0.33c-0.201-0.211-0.301-0.527-0.301-0.936
		C21.024,60.06,21.124,59.759,21.325,59.538z"/>
	<path fill="#FFFFFF" d="M25.812,62.45c0.229,0.117,0.487,0.176,0.774,0.176c0.283,0,0.548-0.063,0.8-0.189
		c0.252-0.131,0.459-0.301,0.612-0.518v0.621h1.045v-4.123h-1.126v1.736c0,0.584-0.029,0.957-0.082,1.117
		c-0.059,0.147-0.163,0.268-0.316,0.377c-0.151,0.098-0.324,0.154-0.512,0.154c-0.172,0-0.309-0.043-0.421-0.119
		c-0.11-0.08-0.187-0.178-0.229-0.312c-0.041-0.131-0.063-0.481-0.063-1.063v-1.893h-1.127v2.604c0,0.392,0.051,0.697,0.152,0.908
		C25.421,62.155,25.585,62.333,25.812,62.45z"/>
	<path fill="#FFFFFF" d="M31.751,61.726c-0.076,0-0.137-0.021-0.191-0.055c-0.052-0.033-0.086-0.082-0.1-0.146
		c-0.016-0.049-0.021-0.24-0.021-0.574v-1.668h0.769v-0.865h-0.769v-1.455l-1.131,0.637v0.818h-0.521v0.865h0.521v1.803
		c0,0.377,0.01,0.637,0.034,0.76c0.034,0.185,0.084,0.324,0.159,0.429c0.079,0.104,0.2,0.192,0.359,0.26
		c0.162,0.062,0.347,0.094,0.549,0.094c0.335,0,0.63-0.053,0.891-0.159l-0.097-0.845C32.008,61.688,31.853,61.726,31.751,61.726z"/>
	<path fill="#FFFFFF" d="M36.633,58.813c-0.104-0.141-0.262-0.26-0.471-0.354c-0.207-0.09-0.44-0.143-0.701-0.143
		c-0.504,0-0.938,0.207-1.303,0.627v-2.097h-1.13v5.691h1.13v-2.066c0-0.352,0.032-0.61,0.1-0.791
		c0.068-0.182,0.177-0.305,0.324-0.395s0.317-0.131,0.502-0.131c0.166,0,0.302,0.031,0.408,0.102
		c0.106,0.072,0.182,0.16,0.225,0.279c0.043,0.113,0.066,0.387,0.066,0.814v2.188h1.125v-2.42c0-0.367-0.021-0.643-0.056-0.822
		C36.812,59.124,36.742,58.968,36.633,58.813z"/>
	<path fill="#FFFFFF" d="M42.521,58.417h-0.842v-0.301c0-0.197,0.035-0.344,0.104-0.418c0.073-0.072,0.192-0.109,0.354-0.109
		c0.166,0,0.34,0.019,0.519,0.062l0.149-0.759c-0.305-0.088-0.619-0.137-0.943-0.137c-0.311,0-0.569,0.057-0.772,0.156
		c-0.205,0.104-0.344,0.246-0.422,0.418c-0.073,0.166-0.112,0.426-0.112,0.768v0.32h-0.63v0.854h0.63v3.271h1.125v-3.271h0.842
		v-0.854H42.521z"/>
	<path fill="#FFFFFF" d="M46.72,58.927c-0.408-0.406-0.939-0.608-1.584-0.608c-0.419,0-0.798,0.092-1.138,0.274
		c-0.338,0.178-0.601,0.438-0.785,0.771c-0.188,0.342-0.272,0.691-0.272,1.049c0,0.477,0.086,0.881,0.272,1.209
		c0.187,0.33,0.459,0.576,0.808,0.75c0.356,0.172,0.731,0.254,1.119,0.254c0.635,0,1.161-0.207,1.573-0.611
		c0.414-0.412,0.625-0.928,0.625-1.551C47.338,59.843,47.133,59.335,46.72,58.927z M45.877,61.411
		c-0.196,0.225-0.44,0.33-0.739,0.33c-0.293,0-0.539-0.105-0.74-0.33c-0.201-0.211-0.303-0.527-0.303-0.936
		c0-0.416,0.102-0.717,0.303-0.938c0.201-0.213,0.447-0.33,0.74-0.33c0.299,0,0.543,0.117,0.739,0.33
		c0.201,0.222,0.297,0.521,0.297,0.929C46.174,60.88,46.078,61.2,45.877,61.411z"/>
	<path fill="#FFFFFF" d="M49.746,58.45c-0.146,0.084-0.306,0.277-0.483,0.547v-0.58h-1.05v4.123h1.129v-1.275
		c0-0.705,0.031-1.155,0.097-1.383c0.063-0.221,0.147-0.381,0.258-0.457c0.107-0.08,0.242-0.127,0.402-0.127
		c0.162,0,0.34,0.057,0.528,0.18l0.349-0.952c-0.238-0.14-0.486-0.207-0.744-0.207C50.049,58.317,49.892,58.37,49.746,58.45z"/>
	<path fill="#FFFFFF" d="M13.681,67.187c0.256-0.104,0.459-0.277,0.604-0.498c0.15-0.219,0.224-0.463,0.224-0.73
		c0-0.246-0.059-0.467-0.182-0.67c-0.115-0.191-0.267-0.357-0.449-0.471c-0.181-0.117-0.387-0.197-0.616-0.23
		c-0.228-0.047-0.574-0.061-1.039-0.061H9.869v5.691h2c0.762,0,1.237-0.023,1.435-0.043c0.317-0.033,0.586-0.121,0.797-0.269
		c0.217-0.151,0.389-0.345,0.512-0.59c0.123-0.248,0.188-0.488,0.188-0.752c0-0.33-0.098-0.613-0.291-0.857
		C14.315,67.464,14.04,67.3,13.681,67.187z M11.058,65.481h0.682c0.559,0,0.9,0.006,1.016,0.01c0.2,0.023,0.348,0.086,0.444,0.199
		c0.1,0.107,0.153,0.252,0.153,0.432s-0.061,0.334-0.178,0.443c-0.113,0.111-0.271,0.178-0.473,0.203
		c-0.113,0.012-0.405,0.021-0.871,0.021h-0.773V65.481L11.058,65.481z M13.405,68.993c-0.115,0.119-0.258,0.197-0.434,0.23
		c-0.111,0.02-0.384,0.028-0.813,0.028h-1.103v-1.52h0.959c0.541,0,0.893,0.022,1.055,0.084c0.158,0.055,0.285,0.141,0.371,0.262
		c0.082,0.115,0.125,0.267,0.125,0.435C13.567,68.712,13.515,68.87,13.405,68.993z"/>
	<path fill="#FFFFFF" d="M19.284,68.86l0.01-1.273c0-0.473-0.05-0.797-0.15-0.979c-0.101-0.179-0.274-0.314-0.52-0.435
		c-0.243-0.117-0.621-0.174-1.121-0.174c-0.559,0-0.975,0.104-1.254,0.293c-0.283,0.188-0.479,0.477-0.596,0.881l1.023,0.182
		c0.068-0.196,0.157-0.327,0.274-0.403c0.108-0.074,0.262-0.117,0.467-0.117c0.295,0,0.498,0.052,0.604,0.134
		c0.107,0.094,0.162,0.248,0.162,0.455v0.104c-0.201,0.084-0.569,0.172-1.097,0.266c-0.394,0.068-0.688,0.16-0.897,0.265
		c-0.207,0.09-0.366,0.223-0.481,0.41c-0.112,0.184-0.178,0.391-0.178,0.623c0,0.352,0.131,0.643,0.383,0.873
		c0.255,0.227,0.601,0.344,1.037,0.344c0.251,0,0.483-0.047,0.703-0.137c0.217-0.095,0.426-0.22,0.62-0.408
		c0.008,0.022,0.021,0.063,0.039,0.137c0.045,0.137,0.078,0.244,0.105,0.32h1.119c-0.1-0.203-0.166-0.381-0.207-0.556
		C19.298,69.491,19.284,69.224,19.284,68.86z M18.187,68.452c0,0.26-0.014,0.438-0.049,0.531c-0.039,0.143-0.127,0.26-0.266,0.357
		c-0.186,0.129-0.379,0.198-0.58,0.198c-0.186,0-0.335-0.057-0.453-0.164c-0.115-0.112-0.178-0.245-0.178-0.401
		c0-0.148,0.08-0.285,0.225-0.379c0.096-0.063,0.297-0.129,0.617-0.187c0.311-0.069,0.535-0.135,0.684-0.174V68.452L18.187,68.452z"
		/>
	<path fill="#FFFFFF" d="M24.04,66.46c-0.102-0.135-0.26-0.242-0.467-0.324c-0.201-0.094-0.436-0.137-0.682-0.137
		c-0.563,0-1.029,0.232-1.404,0.697v-0.602H20.44v4.123h1.127v-1.869c0-0.465,0.027-0.776,0.088-0.946
		c0.053-0.175,0.162-0.31,0.314-0.414c0.157-0.103,0.334-0.154,0.524-0.154c0.157,0,0.286,0.039,0.396,0.113
		c0.108,0.073,0.188,0.17,0.235,0.305c0.047,0.13,0.071,0.421,0.071,0.867v2.101h1.13v-2.564c0-0.316-0.025-0.563-0.063-0.73
		C24.224,66.749,24.149,66.603,24.04,66.46z"/>
	<path fill="#FFFFFF" d="M28.358,66.669c-0.344-0.443-0.775-0.67-1.303-0.67c-0.513,0-0.941,0.186-1.283,0.551
		c-0.344,0.359-0.518,0.896-0.518,1.588c0,0.545,0.133,1.011,0.395,1.383c0.334,0.462,0.791,0.697,1.363,0.697
		c0.51,0,0.938-0.227,1.277-0.674v0.604c0,0.239-0.023,0.403-0.057,0.504c-0.053,0.116-0.125,0.211-0.227,0.271
		c-0.144,0.086-0.369,0.129-0.662,0.129c-0.229,0-0.397-0.035-0.507-0.125c-0.073-0.045-0.122-0.147-0.142-0.291l-1.29-0.149
		c-0.005,0.047-0.005,0.104-0.005,0.137c0,0.367,0.146,0.664,0.453,0.908c0.299,0.235,0.813,0.356,1.537,0.356
		c0.383,0,0.698-0.041,0.946-0.117c0.25-0.075,0.451-0.188,0.603-0.315c0.147-0.147,0.264-0.332,0.348-0.571
		c0.084-0.236,0.122-0.604,0.122-1.088v-3.701h-1.054v0.574H28.358z M28.021,69.022c-0.188,0.207-0.424,0.311-0.698,0.311
		c-0.257,0-0.474-0.104-0.646-0.307c-0.179-0.197-0.267-0.521-0.267-0.959c0-0.416,0.088-0.725,0.267-0.924
		c0.172-0.201,0.397-0.312,0.663-0.312c0.281,0,0.511,0.109,0.691,0.312c0.186,0.211,0.272,0.527,0.272,0.955
		C28.306,68.505,28.214,68.815,28.021,69.022z"/>
	<rect x="30.573" y="64.526" fill="#FFFFFF" width="1.127" height="5.691"/>
	<path fill="#FFFFFF" d="M36.345,68.86l0.014-1.273c0-0.473-0.053-0.797-0.152-0.979c-0.098-0.179-0.27-0.314-0.521-0.435
		c-0.242-0.117-0.619-0.174-1.121-0.174c-0.557,0-0.967,0.104-1.252,0.293c-0.281,0.188-0.479,0.477-0.598,0.881l1.028,0.182
		c0.069-0.196,0.159-0.327,0.271-0.403c0.117-0.074,0.269-0.117,0.471-0.117c0.298,0,0.498,0.052,0.607,0.134
		c0.105,0.094,0.162,0.248,0.162,0.455v0.104c-0.207,0.084-0.57,0.172-1.098,0.266c-0.395,0.068-0.69,0.16-0.899,0.265
		c-0.207,0.09-0.366,0.223-0.481,0.41c-0.115,0.184-0.172,0.391-0.172,0.623c0,0.352,0.125,0.643,0.377,0.873
		c0.252,0.227,0.602,0.344,1.041,0.344c0.246,0,0.479-0.047,0.701-0.137c0.221-0.095,0.426-0.22,0.619-0.408
		c0.008,0.022,0.02,0.063,0.039,0.137c0.043,0.137,0.08,0.244,0.104,0.32h1.117c-0.094-0.203-0.162-0.381-0.199-0.556
		C36.362,69.491,36.345,69.224,36.345,68.86z M35.252,68.452c0,0.26-0.015,0.438-0.047,0.531c-0.043,0.143-0.131,0.26-0.267,0.357
		c-0.188,0.129-0.381,0.198-0.588,0.198c-0.178,0-0.33-0.057-0.443-0.164c-0.115-0.112-0.18-0.245-0.18-0.401
		c0-0.148,0.071-0.285,0.223-0.379c0.097-0.063,0.3-0.129,0.611-0.187c0.312-0.069,0.541-0.135,0.689-0.174L35.252,68.452
		L35.252,68.452z"/>
	<path fill="#FFFFFF" d="M40.291,66.579c-0.349-0.387-0.76-0.58-1.233-0.58c-0.521,0-0.953,0.186-1.291,0.543
		c-0.341,0.367-0.511,0.902-0.511,1.596c0,0.688,0.179,1.22,0.522,1.597c0.351,0.381,0.773,0.571,1.261,0.571
		c0.239,0,0.478-0.055,0.713-0.172c0.24-0.119,0.442-0.289,0.619-0.526v0.61h1.045v-5.69h-1.125V66.579z M40.022,69.126
		c-0.182,0.211-0.403,0.324-0.664,0.324c-0.327,0-0.575-0.146-0.76-0.434c-0.129-0.188-0.192-0.512-0.192-0.949
		c0-0.414,0.092-0.717,0.272-0.924c0.182-0.201,0.404-0.312,0.672-0.312c0.273,0,0.498,0.113,0.681,0.312
		c0.178,0.217,0.266,0.555,0.266,1.021C40.297,68.595,40.205,68.913,40.022,69.126z"/>
	<path fill="#FFFFFF" d="M45.699,66.603c-0.367-0.396-0.865-0.604-1.502-0.604c-0.564,0-1.031,0.193-1.4,0.586
		c-0.368,0.382-0.551,0.921-0.551,1.601c0,0.582,0.139,1.045,0.42,1.42c0.353,0.471,0.903,0.701,1.646,0.701
		c0.469,0,0.856-0.104,1.172-0.312c0.311-0.211,0.539-0.512,0.686-0.908l-1.127-0.184c-0.064,0.207-0.15,0.354-0.273,0.448
		c-0.119,0.099-0.268,0.142-0.444,0.142c-0.261,0-0.478-0.097-0.648-0.271c-0.176-0.18-0.266-0.434-0.274-0.752h2.828
		C46.246,67.634,46.063,67.013,45.699,66.603z M43.418,67.798c0-0.293,0.078-0.527,0.235-0.705c0.162-0.17,0.365-0.26,0.615-0.26
		c0.226,0,0.422,0.084,0.584,0.25c0.156,0.164,0.244,0.4,0.248,0.715H43.418z"/>
	<path fill="#FFFFFF" d="M50.418,68.118c-0.239-0.201-0.66-0.361-1.26-0.488c-0.601-0.133-0.949-0.236-1.054-0.307
		c-0.076-0.053-0.112-0.117-0.112-0.199c0-0.09,0.043-0.164,0.129-0.217c0.129-0.08,0.344-0.125,0.639-0.125
		c0.234,0,0.412,0.051,0.546,0.127c0.123,0.084,0.213,0.215,0.258,0.375l1.063-0.193c-0.104-0.361-0.303-0.631-0.588-0.813
		C49.756,66.089,49.322,66,48.74,66c-0.615,0-1.068,0.127-1.359,0.367c-0.293,0.235-0.437,0.543-0.437,0.899
		c0,0.396,0.166,0.711,0.507,0.929c0.239,0.157,0.819,0.338,1.728,0.53c0.194,0.048,0.323,0.095,0.381,0.142
		c0.053,0.058,0.078,0.119,0.078,0.203c0,0.131-0.052,0.226-0.146,0.297c-0.148,0.099-0.367,0.158-0.662,0.158
		c-0.264,0-0.467-0.064-0.615-0.168c-0.146-0.113-0.246-0.271-0.291-0.486l-1.135,0.166c0.107,0.388,0.33,0.697,0.664,0.933
		c0.338,0.227,0.801,0.338,1.377,0.338c0.639,0,1.127-0.138,1.453-0.408c0.324-0.27,0.488-0.594,0.488-0.969
		C50.771,68.579,50.653,68.308,50.418,68.118z"/>
	<path fill="#FFFFFF" d="M55.399,66.499c-0.106-0.146-0.266-0.268-0.473-0.361c-0.207-0.092-0.443-0.139-0.703-0.139
		c-0.502,0-0.938,0.209-1.299,0.613v-2.086h-1.133v5.691h1.133v-2.066c0-0.35,0.031-0.611,0.1-0.781
		c0.068-0.189,0.177-0.316,0.318-0.404c0.148-0.082,0.318-0.133,0.508-0.133c0.162,0,0.295,0.039,0.402,0.109
		c0.111,0.064,0.188,0.154,0.227,0.275c0.043,0.112,0.07,0.391,0.07,0.819v2.181h1.121v-2.42c0-0.371-0.016-0.646-0.055-0.818
		C55.578,66.804,55.504,66.646,55.399,66.499z"/>
</g>
</svg>
